M48
; DRILL file {KiCad (6.0.7-1)-1} date 2022 September 09, Friday 18:07:52
; FORMAT={-:-/ absolute / metric / decimal}
; #@! TF.CreationDate,2022-09-09T18:07:52+02:00
; #@! TF.GenerationSoftware,Kicad,Pcbnew,(6.0.7-1)-1
; #@! TF.FileFunction,MixedPlating,1,2
FMAT,2
METRIC
; #@! TA.AperFunction,Plated,PTH,ViaDrill
T1C0.600
; #@! TA.AperFunction,Plated,PTH,ComponentDrill
T2C0.800
; #@! TA.AperFunction,Plated,PTH,ComponentDrill
T3C0.850
; #@! TA.AperFunction,Plated,PTH,ComponentDrill
T4C0.900
; #@! TA.AperFunction,Plated,PTH,ComponentDrill
T5C1.700
; #@! TA.AperFunction,NonPlated,NPTH,ComponentDrill
T6C2.500
; #@! TA.AperFunction,NonPlated,NPTH,ComponentDrill
T7C3.200
%
G90
G05
T1
X45.0Y20.4
X45.0Y13.8
X50.4Y22.2
X52.2Y19.8
X52.2Y7.8
X53.4Y5.8
X54.6Y8.8
X56.8Y20.4
X57.0Y24.2
X58.8Y10.6
X61.0Y17.2
X61.0Y13.8
X68.8Y22.8
X73.6Y19.6
X73.8Y7.6
X77.2Y18.8
X81.0Y17.4
X81.0Y13.6
X85.4Y21.4
X88.4Y20.4
X92.156Y19.45
X94.375Y21.499
X96.6Y17.4
X96.61Y13.59
X103.715Y22.95
X104.915Y20.55
T2
X29.48Y23.675
X29.48Y21.135
X29.48Y18.595
X29.48Y16.055
X29.48Y13.515
X29.48Y10.975
X29.48Y8.435
X29.48Y5.895
X37.1Y23.675
X37.1Y21.135
X37.1Y18.595
X37.1Y16.055
X37.1Y13.515
X37.1Y10.975
X37.1Y8.435
X37.1Y5.895
X85.38Y25.8
X100.62Y25.8
T3
X48.675Y7.8
X48.675Y3.6
X68.075Y7.8
X68.075Y3.4
X98.675Y3.0
X98.875Y29.2
X107.6Y20.725
T4
X17.25Y20.815
X17.25Y18.275
X17.25Y15.735
X17.25Y13.195
X17.25Y10.655
X19.79Y19.545
X19.79Y17.005
X19.79Y14.465
X19.79Y11.925
X19.79Y9.385
T5
X13.95Y22.975
X13.95Y7.225
T6
X60.675Y7.8
X60.675Y3.6
X80.075Y7.8
X80.075Y3.4
X107.6Y8.725
X110.675Y3.0
X110.875Y29.2
T7
X10.9Y20.815
X10.9Y9.385
T0
M30
