%TF.GenerationSoftware,KiCad,Pcbnew,(6.0.9-0)*%
%TF.CreationDate,2022-11-17T19:03:49+01:00*%
%TF.ProjectId,shield,73686965-6c64-42e6-9b69-6361645f7063,1*%
%TF.SameCoordinates,PX3a2c940PY82a7440*%
%TF.FileFunction,Copper,L4,Bot*%
%TF.FilePolarity,Positive*%
%FSLAX46Y46*%
G04 Gerber Fmt 4.6, Leading zero omitted, Abs format (unit mm)*
G04 Created by KiCad (PCBNEW (6.0.9-0)) date 2022-11-17 19:03:49*
%MOMM*%
%LPD*%
G01*
G04 APERTURE LIST*
%TA.AperFunction,ComponentPad*%
%ADD10C,1.600000*%
%TD*%
%TA.AperFunction,ComponentPad*%
%ADD11O,1.500000X2.500000*%
%TD*%
%TA.AperFunction,ComponentPad*%
%ADD12R,1.500000X2.500000*%
%TD*%
%TA.AperFunction,ComponentPad*%
%ADD13O,2.200000X3.500000*%
%TD*%
%TA.AperFunction,ComponentPad*%
%ADD14C,2.400000*%
%TD*%
%TA.AperFunction,ComponentPad*%
%ADD15C,1.400000*%
%TD*%
%TA.AperFunction,ComponentPad*%
%ADD16C,1.300000*%
%TD*%
%TA.AperFunction,ViaPad*%
%ADD17C,0.640000*%
%TD*%
%TA.AperFunction,ViaPad*%
%ADD18C,0.550000*%
%TD*%
%TA.AperFunction,Conductor*%
%ADD19C,0.150000*%
%TD*%
G04 APERTURE END LIST*
D10*
%TO.P,J2,+5V,+5V*%
%TO.N,VCC*%
X5490000Y50370000D03*
%TO.P,J2,GND,GND*%
%TO.N,GND*%
X2950000Y47830000D03*
X63910000Y60530000D03*
X5490000Y47830000D03*
X66450000Y47830000D03*
X5490000Y63070000D03*
X5490000Y45290000D03*
%TO.P,J2,PB13,PB13*%
%TO.N,/sck_rx*%
X66450000Y35130000D03*
%TO.P,J2,PB15,PB15*%
%TO.N,/mosi_rx*%
X66450000Y40210000D03*
%TO.P,J2,PC6,PC6*%
%TO.N,/nss_rx*%
X66450000Y68150000D03*
%TO.P,J2,PC10,PC10*%
%TO.N,/sck_tx*%
X2950000Y70690000D03*
%TO.P,J2,PC12,PC12*%
%TO.N,/mosi_tx*%
X2950000Y68150000D03*
%TD*%
D11*
%TO.P,SW1,3,C*%
%TO.N,VCC*%
X9000000Y3702500D03*
%TO.P,SW1,2,B*%
%TO.N,Net-(SW1-Pad2)*%
X7000000Y3702500D03*
D12*
%TO.P,SW1,1,A*%
%TO.N,GND*%
X5000000Y3702500D03*
D13*
%TO.P,SW1,*%
%TO.N,*%
X11100000Y3702500D03*
X2900000Y3702500D03*
%TD*%
D14*
%TO.P,J1,SH*%
%TO.N,unconnected-(J1-PadSH)*%
X42550000Y14050000D03*
X26850000Y14050000D03*
D15*
%TO.P,J1,12*%
%TO.N,Net-(J1-Pad12)*%
X41485000Y8460000D03*
%TO.P,J1,11*%
%TO.N,GND*%
X41485000Y6430000D03*
%TO.P,J1,10*%
%TO.N,Net-(J1-Pad10)*%
X27915000Y8460000D03*
%TO.P,J1,9*%
%TO.N,GND*%
X27915000Y6430000D03*
D16*
%TO.P,J1,8*%
X30300000Y17350000D03*
%TO.P,J1,7*%
%TO.N,unconnected-(J1-Pad7)*%
X31570000Y19890000D03*
%TO.P,J1,6*%
%TO.N,Net-(C3-Pad1)*%
X32840000Y17350000D03*
%TO.P,J1,5*%
%TO.N,GND*%
X34110000Y19890000D03*
%TO.P,J1,4*%
%TO.N,unconnected-(J1-Pad4)*%
X35380000Y17350000D03*
%TO.P,J1,3*%
%TO.N,Net-(C2-Pad1)*%
X36650000Y19890000D03*
%TO.P,J1,2*%
%TO.N,Net-(J1-Pad2)*%
X37920000Y17350000D03*
%TO.P,J1,1*%
%TO.N,Net-(J1-Pad1)*%
X39190000Y19890000D03*
%TD*%
D17*
%TO.N,GND*%
X3000000Y16000000D03*
X64000000Y3000000D03*
X60000000Y72000000D03*
D18*
%TO.N,Net-(J1-Pad2)*%
X40400000Y25500000D03*
%TO.N,Net-(SW1-Pad2)*%
X7100000Y47700000D03*
%TO.N,Net-(U4-Pad12)*%
X52200000Y52700000D03*
X36600000Y34000000D03*
X29200000Y24000000D03*
X52200000Y61400000D03*
X29300000Y34000000D03*
X36600000Y52700000D03*
%TO.N,/edge_in*%
X54200000Y54700000D03*
X54400000Y62000000D03*
X50100000Y54500000D03*
X50100000Y41500000D03*
%TO.N,Net-(U1-Pad2)*%
X42800000Y31800000D03*
X42800000Y37000000D03*
X48700000Y48200000D03*
X48700000Y37000000D03*
%TO.N,/sck_rx*%
X52800000Y53900000D03*
X52900000Y59400000D03*
X68000000Y54000000D03*
%TO.N,Net-(U2-Pad8)*%
X55200000Y59400000D03*
X55700000Y35700000D03*
%TO.N,Net-(C10-Pad1)*%
X30800000Y48600000D03*
X30700000Y26200000D03*
%TO.N,Net-(C8-Pad2)*%
X34200000Y38600000D03*
X34200000Y43800000D03*
%TO.N,/bytesync*%
X53600000Y60700000D03*
X54600000Y9600000D03*
%TO.N,Net-(U4-Pad1)*%
X47800000Y63400000D03*
X47800000Y58900000D03*
%TO.N,/nss_rx*%
X45400000Y66500000D03*
X45400000Y60400000D03*
%TO.N,Net-(U4-Pad2)*%
X49300000Y62000000D03*
X32700000Y68300000D03*
X49300000Y68400000D03*
X32700000Y61200000D03*
X32700000Y63800000D03*
%TO.N,Net-(U6-Pad12)*%
X26000000Y61800000D03*
X26000000Y63100000D03*
%TO.N,/sck*%
X46900000Y60200000D03*
X46900000Y57000000D03*
X31800000Y57000000D03*
X31800000Y36500000D03*
X31900000Y62600000D03*
%TO.N,/line*%
X25300000Y63800000D03*
X25300000Y45600000D03*
%TO.N,/~{idle}*%
X26800000Y63800000D03*
X28000000Y37900000D03*
X28000000Y25000000D03*
D17*
%TO.N,VCC*%
X53600000Y48100000D03*
X53600000Y43100000D03*
D18*
%TO.N,/tx_ena*%
X26400000Y35900000D03*
X26400000Y22300000D03*
%TO.N,/driver_ena*%
X28000000Y19600000D03*
X31900000Y30300000D03*
D17*
%TO.N,VCC*%
X34100000Y62500000D03*
X45900000Y10900000D03*
X50700000Y18400000D03*
X42700000Y61900000D03*
X20900000Y62500000D03*
X51200000Y51500000D03*
X27200000Y66500000D03*
X48100000Y53500000D03*
X56300000Y15700000D03*
X42700000Y63200000D03*
X40400000Y66500000D03*
X17100000Y38500000D03*
X45200000Y34800000D03*
X29400000Y61900000D03*
X60800000Y9600000D03*
X60800000Y7100000D03*
X65200000Y11000000D03*
X18200000Y59000000D03*
X45900000Y8400000D03*
X55500000Y64600000D03*
X38600000Y41900000D03*
X29500000Y41100000D03*
X20700000Y29500000D03*
X15600000Y66200000D03*
%TO.N,GND*%
X49300000Y34800000D03*
X11700000Y55600000D03*
X47500000Y30500000D03*
X43000000Y41900000D03*
X16800000Y19100000D03*
X60800000Y12200000D03*
X37400000Y47400000D03*
X44400000Y54500000D03*
X24700000Y34600000D03*
X65400000Y13100000D03*
X19400000Y66200000D03*
X22400000Y59700000D03*
X44300000Y66500000D03*
X50700000Y3700000D03*
X3800000Y53700000D03*
X52800000Y18400000D03*
X50700000Y58100000D03*
X35500000Y59800000D03*
X20000000Y33700000D03*
X60300000Y15700000D03*
X55100000Y51500000D03*
X24500000Y29500000D03*
X20000000Y42600000D03*
X40300000Y27800000D03*
X33500000Y41100000D03*
X47000000Y40900000D03*
X59400000Y64600000D03*
X31200000Y66600000D03*
X13100000Y35400000D03*
X45900000Y13400000D03*
X46100000Y27900000D03*
D18*
%TO.N,Net-(C2-Pad1)*%
X36600000Y25900000D03*
%TO.N,Net-(C2-Pad2)*%
X36400000Y32400000D03*
X36400000Y29800000D03*
%TO.N,Net-(C3-Pad1)*%
X32800000Y25900000D03*
%TO.N,Net-(C3-Pad2)*%
X34400000Y33100000D03*
X34400000Y29700000D03*
%TO.N,Net-(C9-Pad2)*%
X35000000Y55200000D03*
X35000000Y37200000D03*
%TO.N,Net-(C15-Pad1)*%
X23050000Y37850000D03*
X23000000Y34900000D03*
%TO.N,Net-(C19-Pad2)*%
X49100000Y12200000D03*
X49100000Y15600000D03*
%TO.N,Net-(J1-Pad1)*%
X39200000Y22900000D03*
%TO.N,/sck_tx*%
X11700000Y70800000D03*
X11700000Y63500000D03*
%TO.N,/mosi_tx*%
X14300000Y68200000D03*
X14400000Y62900000D03*
%TO.N,/edge_in*%
X41500000Y44600000D03*
X41500000Y39800000D03*
%TO.N,Net-(Q3-Pad1)*%
X10000000Y37300000D03*
X10000000Y61600000D03*
%TO.N,/~{line}*%
X49500000Y47500000D03*
X49500000Y45000000D03*
%TO.N,Net-(R7-Pad2)*%
X13200000Y59000000D03*
X13200000Y39700000D03*
%TO.N,/~{nlp}*%
X11600000Y49100000D03*
X7100000Y57700000D03*
X7100000Y49100000D03*
X11600000Y23700000D03*
%TO.N,/driver_in*%
X35500000Y31100000D03*
X35500000Y35000000D03*
%TO.N,Net-(U2-Pad4)*%
X14300000Y60300000D03*
X14300000Y54000000D03*
X26700000Y54000000D03*
X26700000Y37200000D03*
%TO.N,/tx_ena*%
X55400000Y22300000D03*
X55400000Y8400000D03*
%TO.N,Net-(U5-Pad1)*%
X18300000Y21200000D03*
X18200000Y56500000D03*
X18200000Y27500000D03*
%TO.N,/xor_tx*%
X15300000Y60300000D03*
X5200000Y41900000D03*
X5200000Y26300000D03*
X15300000Y41900000D03*
%TO.N,Net-(U5-Pad6)*%
X14000000Y21200000D03*
X21100000Y57800000D03*
X14000000Y32700000D03*
X21100000Y32700000D03*
%TD*%
D19*
%TO.N,Net-(U2-Pad4)*%
X26700000Y54000000D02*
X26700000Y37200000D01*
%TO.N,/driver_ena*%
X28000000Y19600000D02*
X31900000Y23500000D01*
X31900000Y23500000D02*
X31900000Y30300000D01*
%TO.N,Net-(J1-Pad2)*%
X40400000Y25500000D02*
X40400000Y19000000D01*
X40400000Y19000000D02*
X38750000Y17350000D01*
X38750000Y17350000D02*
X37920000Y17350000D01*
%TO.N,Net-(SW1-Pad2)*%
X7000000Y3702500D02*
X7000000Y46700000D01*
X7000000Y46700000D02*
X7000000Y47600000D01*
X7000000Y47600000D02*
X7100000Y47700000D01*
%TO.N,Net-(U4-Pad12)*%
X52200000Y61400000D02*
X52200000Y52700000D01*
X36600000Y52700000D02*
X36600000Y34000000D01*
X29300000Y34000000D02*
X29300000Y24100000D01*
X29300000Y24100000D02*
X29200000Y24000000D01*
%TO.N,/edge_in*%
X50100000Y41500000D02*
X50100000Y54500000D01*
X54200000Y61800000D02*
X54400000Y62000000D01*
X54200000Y54700000D02*
X54200000Y61800000D01*
%TO.N,Net-(U1-Pad2)*%
X42800000Y31800000D02*
X42800000Y37000000D01*
X48700000Y37000000D02*
X48700000Y48200000D01*
%TO.N,/sck_rx*%
X52900000Y59400000D02*
X52900000Y54000000D01*
X68000000Y54000000D02*
X68000000Y36680000D01*
X52900000Y54000000D02*
X52800000Y53900000D01*
X68000000Y36680000D02*
X66450000Y35130000D01*
%TO.N,Net-(U2-Pad8)*%
X55700000Y35700000D02*
X55700000Y58900000D01*
X55700000Y58900000D02*
X55200000Y59400000D01*
%TO.N,Net-(C10-Pad1)*%
X30700000Y48500000D02*
X30800000Y48600000D01*
X30700000Y26200000D02*
X30700000Y48500000D01*
%TO.N,Net-(C8-Pad2)*%
X34200000Y38600000D02*
X34200000Y43800000D01*
%TO.N,/bytesync*%
X54600000Y9600000D02*
X54600000Y50100000D01*
X54600000Y50100000D02*
X53800000Y50900000D01*
X53800000Y50900000D02*
X53600000Y51100000D01*
X53600000Y51100000D02*
X53600000Y60700000D01*
%TO.N,Net-(U4-Pad1)*%
X47800000Y58900000D02*
X47800000Y63400000D01*
%TO.N,/nss_rx*%
X45400000Y60400000D02*
X45400000Y66500000D01*
%TO.N,Net-(U4-Pad2)*%
X49300000Y62000000D02*
X49300000Y68400000D01*
X32700000Y68300000D02*
X32700000Y63800000D01*
X32700000Y61200000D02*
X32700000Y63800000D01*
%TO.N,Net-(U6-Pad12)*%
X26000000Y61800000D02*
X26000000Y63100000D01*
%TO.N,/sck*%
X46900000Y60200000D02*
X46900000Y57000000D01*
X31800000Y36500000D02*
X31800000Y57000000D01*
X31800000Y57000000D02*
X31800000Y62500000D01*
X31800000Y62500000D02*
X31900000Y62600000D01*
%TO.N,/line*%
X25300000Y45600000D02*
X25300000Y63800000D01*
%TO.N,/~{idle}*%
X28000000Y37900000D02*
X28000000Y55000000D01*
X28000000Y55000000D02*
X26800000Y56200000D01*
X26800000Y56200000D02*
X26800000Y63800000D01*
X28000000Y25000000D02*
X28000000Y37900000D01*
%TO.N,/tx_ena*%
X26400000Y35900000D02*
X26400000Y22300000D01*
%TO.N,Net-(C2-Pad1)*%
X36650000Y19890000D02*
X36650000Y25850000D01*
X36650000Y25850000D02*
X36600000Y25900000D01*
%TO.N,Net-(C2-Pad2)*%
X36400000Y29800000D02*
X36400000Y32400000D01*
%TO.N,Net-(C3-Pad1)*%
X32840000Y25860000D02*
X32800000Y25900000D01*
X32840000Y17350000D02*
X32840000Y25860000D01*
%TO.N,Net-(C3-Pad2)*%
X34400000Y29700000D02*
X34400000Y33100000D01*
%TO.N,Net-(C9-Pad2)*%
X35000000Y37200000D02*
X35000000Y55200000D01*
%TO.N,Net-(C15-Pad1)*%
X23000000Y37800000D02*
X23050000Y37850000D01*
X23000000Y34900000D02*
X23000000Y37800000D01*
%TO.N,Net-(C19-Pad2)*%
X49100000Y12200000D02*
X49100000Y15600000D01*
%TO.N,Net-(J1-Pad1)*%
X39190000Y22890000D02*
X39200000Y22900000D01*
X39190000Y19890000D02*
X39190000Y22890000D01*
%TO.N,/sck_tx*%
X11700000Y70800000D02*
X11700000Y63500000D01*
%TO.N,/mosi_tx*%
X14300000Y63000000D02*
X14400000Y62900000D01*
X14300000Y68200000D02*
X14300000Y63000000D01*
%TO.N,/edge_in*%
X41500000Y39800000D02*
X41500000Y44600000D01*
%TO.N,Net-(Q3-Pad1)*%
X10000000Y61600000D02*
X10000000Y37300000D01*
%TO.N,/~{line}*%
X49500000Y47500000D02*
X49500000Y45000000D01*
%TO.N,Net-(R7-Pad2)*%
X13200000Y59000000D02*
X13200000Y39700000D01*
%TO.N,/~{nlp}*%
X7100000Y57700000D02*
X7100000Y49100000D01*
X11600000Y49100000D02*
X11600000Y23700000D01*
%TO.N,/driver_in*%
X35500000Y31100000D02*
X35500000Y35000000D01*
%TO.N,Net-(U2-Pad4)*%
X14300000Y60300000D02*
X14300000Y54000000D01*
%TO.N,/tx_ena*%
X55400000Y8400000D02*
X55400000Y22300000D01*
%TO.N,Net-(U5-Pad1)*%
X18200000Y27500000D02*
X18200000Y21300000D01*
X18200000Y21300000D02*
X18300000Y21200000D01*
X18200000Y56500000D02*
X18200000Y27500000D01*
%TO.N,/xor_tx*%
X15300000Y41900000D02*
X15300000Y60300000D01*
X5200000Y26300000D02*
X5200000Y41900000D01*
%TO.N,Net-(U5-Pad6)*%
X14000000Y21200000D02*
X14000000Y32700000D01*
X21100000Y32700000D02*
X21100000Y57800000D01*
%TD*%
M02*
