%TF.GenerationSoftware,KiCad,Pcbnew,(6.0.9-0)*%
%TF.CreationDate,2022-11-17T19:03:50+01:00*%
%TF.ProjectId,shield,73686965-6c64-42e6-9b69-6361645f7063,1*%
%TF.SameCoordinates,PX3a2c940PY82a7440*%
%TF.FileFunction,Paste,Top*%
%TF.FilePolarity,Positive*%
%FSLAX46Y46*%
G04 Gerber Fmt 4.6, Leading zero omitted, Abs format (unit mm)*
G04 Created by KiCad (PCBNEW (6.0.9-0)) date 2022-11-17 19:03:50*
%MOMM*%
%LPD*%
G01*
G04 APERTURE LIST*
G04 Aperture macros list*
%AMRoundRect*
0 Rectangle with rounded corners*
0 $1 Rounding radius*
0 $2 $3 $4 $5 $6 $7 $8 $9 X,Y pos of 4 corners*
0 Add a 4 corners polygon primitive as box body*
4,1,4,$2,$3,$4,$5,$6,$7,$8,$9,$2,$3,0*
0 Add four circle primitives for the rounded corners*
1,1,$1+$1,$2,$3*
1,1,$1+$1,$4,$5*
1,1,$1+$1,$6,$7*
1,1,$1+$1,$8,$9*
0 Add four rect primitives between the rounded corners*
20,1,$1+$1,$2,$3,$4,$5,0*
20,1,$1+$1,$4,$5,$6,$7,0*
20,1,$1+$1,$6,$7,$8,$9,0*
20,1,$1+$1,$8,$9,$2,$3,0*%
G04 Aperture macros list end*
%ADD10RoundRect,0.250000X0.450000X-0.262500X0.450000X0.262500X-0.450000X0.262500X-0.450000X-0.262500X0*%
%ADD11RoundRect,0.100000X-0.637500X-0.100000X0.637500X-0.100000X0.637500X0.100000X-0.637500X0.100000X0*%
%ADD12RoundRect,0.250000X-0.250000X-0.475000X0.250000X-0.475000X0.250000X0.475000X-0.250000X0.475000X0*%
%ADD13RoundRect,0.250000X-0.475000X0.250000X-0.475000X-0.250000X0.475000X-0.250000X0.475000X0.250000X0*%
%ADD14RoundRect,0.150000X-0.825000X-0.150000X0.825000X-0.150000X0.825000X0.150000X-0.825000X0.150000X0*%
%ADD15RoundRect,0.250000X0.475000X-0.250000X0.475000X0.250000X-0.475000X0.250000X-0.475000X-0.250000X0*%
%ADD16RoundRect,0.150000X-0.587500X-0.150000X0.587500X-0.150000X0.587500X0.150000X-0.587500X0.150000X0*%
%ADD17RoundRect,0.137500X-0.662500X-0.137500X0.662500X-0.137500X0.662500X0.137500X-0.662500X0.137500X0*%
%ADD18RoundRect,0.250000X0.262500X0.450000X-0.262500X0.450000X-0.262500X-0.450000X0.262500X-0.450000X0*%
%ADD19RoundRect,0.250000X0.250000X0.475000X-0.250000X0.475000X-0.250000X-0.475000X0.250000X-0.475000X0*%
%ADD20RoundRect,0.250000X-0.262500X-0.450000X0.262500X-0.450000X0.262500X0.450000X-0.262500X0.450000X0*%
%ADD21RoundRect,0.250000X0.325000X1.100000X-0.325000X1.100000X-0.325000X-1.100000X0.325000X-1.100000X0*%
G04 APERTURE END LIST*
D10*
%TO.C,R3*%
X16050000Y36687500D03*
X16050000Y38512500D03*
%TD*%
D11*
%TO.C,U4*%
X50687500Y62650000D03*
X50687500Y62000000D03*
X50687500Y61350000D03*
X50687500Y60700000D03*
X50687500Y60050000D03*
X50687500Y59400000D03*
X50687500Y58750000D03*
X56412500Y58750000D03*
X56412500Y59400000D03*
X56412500Y60050000D03*
X56412500Y60700000D03*
X56412500Y61350000D03*
X56412500Y62000000D03*
X56412500Y62650000D03*
%TD*%
D10*
%TO.C,R10*%
X24900000Y6487500D03*
X24900000Y8312500D03*
%TD*%
D12*
%TO.C,C18*%
X16550000Y66200000D03*
X18450000Y66200000D03*
%TD*%
D13*
%TO.C,C14*%
X18150000Y38550000D03*
X18150000Y36650000D03*
%TD*%
D14*
%TO.C,U8*%
X11725000Y64110000D03*
X11725000Y62840000D03*
X11725000Y61570000D03*
X11725000Y60300000D03*
X11725000Y59030000D03*
X11725000Y57760000D03*
X11725000Y56490000D03*
X16675000Y56490000D03*
X16675000Y57760000D03*
X16675000Y59030000D03*
X16675000Y60300000D03*
X16675000Y61570000D03*
X16675000Y62840000D03*
X16675000Y64110000D03*
%TD*%
D15*
%TO.C,C9*%
X49100000Y53400000D03*
X49100000Y55300000D03*
%TD*%
D16*
%TO.C,Q1*%
X41762500Y43850000D03*
X41762500Y41950000D03*
X43637500Y42900000D03*
%TD*%
D12*
%TO.C,C4*%
X52150000Y51500000D03*
X54050000Y51500000D03*
%TD*%
D17*
%TO.C,U9*%
X50750000Y13445000D03*
X50750000Y12175000D03*
X50750000Y10905000D03*
X50750000Y9635000D03*
X50750000Y8365000D03*
X50750000Y7095000D03*
X50750000Y5825000D03*
X50750000Y4555000D03*
X57250000Y4555000D03*
X57250000Y5825000D03*
X57250000Y7095000D03*
X57250000Y8365000D03*
X57250000Y9635000D03*
X57250000Y10905000D03*
X57250000Y12175000D03*
X57250000Y13445000D03*
%TD*%
D11*
%TO.C,U2*%
X24737500Y39150000D03*
X24737500Y38500000D03*
X24737500Y37850000D03*
X24737500Y37200000D03*
X24737500Y36550000D03*
X24737500Y35900000D03*
X24737500Y35250000D03*
X30462500Y35250000D03*
X30462500Y35900000D03*
X30462500Y36550000D03*
X30462500Y37200000D03*
X30462500Y37850000D03*
X30462500Y38500000D03*
X30462500Y39150000D03*
%TD*%
D15*
%TO.C,C2*%
X36400000Y26850000D03*
X36400000Y28750000D03*
%TD*%
D14*
%TO.C,U5*%
X16825000Y27510000D03*
X16825000Y26240000D03*
X16825000Y24970000D03*
X16825000Y23700000D03*
X16825000Y22430000D03*
X16825000Y21160000D03*
X16825000Y19890000D03*
X21775000Y19890000D03*
X21775000Y21160000D03*
X21775000Y22430000D03*
X21775000Y23700000D03*
X21775000Y24970000D03*
X21775000Y26240000D03*
X21775000Y27510000D03*
%TD*%
D10*
%TO.C,R2*%
X38800000Y23887500D03*
X38800000Y25712500D03*
%TD*%
D16*
%TO.C,Q2*%
X43062500Y56350000D03*
X43062500Y54450000D03*
X44937500Y55400000D03*
%TD*%
D12*
%TO.C,C7*%
X21650000Y29500000D03*
X23550000Y29500000D03*
%TD*%
D14*
%TO.C,U1*%
X47025000Y49410000D03*
X47025000Y48140000D03*
X47025000Y46870000D03*
X47025000Y45600000D03*
X47025000Y44330000D03*
X47025000Y43060000D03*
X47025000Y41790000D03*
X51975000Y41790000D03*
X51975000Y43060000D03*
X51975000Y44330000D03*
X51975000Y45600000D03*
X51975000Y46870000D03*
X51975000Y48140000D03*
X51975000Y49410000D03*
%TD*%
D18*
%TO.C,R6*%
X43700000Y47400000D03*
X41875000Y47400000D03*
%TD*%
D15*
%TO.C,C8*%
X37600000Y41950000D03*
X37600000Y43850000D03*
%TD*%
D11*
%TO.C,U7*%
X35537500Y64450000D03*
X35537500Y63800000D03*
X35537500Y63150000D03*
X35537500Y62500000D03*
X35537500Y61850000D03*
X35537500Y61200000D03*
X35537500Y60550000D03*
X41262500Y60550000D03*
X41262500Y61200000D03*
X41262500Y61850000D03*
X41262500Y62500000D03*
X41262500Y63150000D03*
X41262500Y63800000D03*
X41262500Y64450000D03*
%TD*%
D18*
%TO.C,R1*%
X36312500Y24800000D03*
X34487500Y24800000D03*
%TD*%
D12*
%TO.C,C1*%
X46250000Y34800000D03*
X48150000Y34800000D03*
%TD*%
%TO.C,C6*%
X30550000Y41100000D03*
X32450000Y41100000D03*
%TD*%
%TO.C,C16*%
X41350000Y66500000D03*
X43250000Y66500000D03*
%TD*%
D19*
%TO.C,C13*%
X21950000Y41350000D03*
X20050000Y41350000D03*
%TD*%
D18*
%TO.C,R7*%
X21912500Y39300000D03*
X20087500Y39300000D03*
%TD*%
D19*
%TO.C,C10*%
X40250000Y47400000D03*
X38350000Y47400000D03*
%TD*%
D20*
%TO.C,R12*%
X62337500Y11000000D03*
X64162500Y11000000D03*
%TD*%
D10*
%TO.C,R5*%
X47050000Y53437500D03*
X47050000Y55262500D03*
%TD*%
D11*
%TO.C,U3*%
X40337500Y33075000D03*
X40337500Y32425000D03*
X40337500Y31775000D03*
X40337500Y31125000D03*
X40337500Y30475000D03*
X40337500Y29825000D03*
X40337500Y29175000D03*
X40337500Y28525000D03*
X46062500Y28525000D03*
X46062500Y29175000D03*
X46062500Y29825000D03*
X46062500Y30475000D03*
X46062500Y31125000D03*
X46062500Y31775000D03*
X46062500Y32425000D03*
X46062500Y33075000D03*
%TD*%
D20*
%TO.C,R8*%
X20087500Y37250000D03*
X21912500Y37250000D03*
%TD*%
D15*
%TO.C,C3*%
X34400000Y26850000D03*
X34400000Y28750000D03*
%TD*%
D12*
%TO.C,C5*%
X57300000Y15700000D03*
X59200000Y15700000D03*
%TD*%
%TO.C,C11*%
X56500000Y64600000D03*
X58400000Y64600000D03*
%TD*%
D21*
%TO.C,C17*%
X5675000Y53700000D03*
X2725000Y53700000D03*
%TD*%
D13*
%TO.C,C19*%
X52800000Y17450000D03*
X52800000Y15550000D03*
%TD*%
D10*
%TO.C,R11*%
X50650000Y17412500D03*
X50650000Y15587500D03*
%TD*%
D12*
%TO.C,C12*%
X28150000Y66500000D03*
X30050000Y66500000D03*
%TD*%
D19*
%TO.C,C15*%
X21950000Y34950000D03*
X20050000Y34950000D03*
%TD*%
%TO.C,C20*%
X64200000Y13050000D03*
X62300000Y13050000D03*
%TD*%
D16*
%TO.C,Q3*%
X11812500Y37350000D03*
X11812500Y35450000D03*
X13687500Y36400000D03*
%TD*%
D11*
%TO.C,U6*%
X22337500Y64450000D03*
X22337500Y63800000D03*
X22337500Y63150000D03*
X22337500Y62500000D03*
X22337500Y61850000D03*
X22337500Y61200000D03*
X22337500Y60550000D03*
X28062500Y60550000D03*
X28062500Y61200000D03*
X28062500Y61850000D03*
X28062500Y62500000D03*
X28062500Y63150000D03*
X28062500Y63800000D03*
X28062500Y64450000D03*
%TD*%
D10*
%TO.C,R9*%
X44000000Y6487500D03*
X44000000Y8312500D03*
%TD*%
%TO.C,R4*%
X39700000Y41987500D03*
X39700000Y43812500D03*
%TD*%
M02*
