M48
; DRILL file {KiCad (6.0.9-0)} date 2022 November 17, Thursday 19:03:58
; FORMAT={-:-/ absolute / metric / decimal}
; #@! TF.CreationDate,2022-11-17T19:03:58+01:00
; #@! TF.GenerationSoftware,Kicad,Pcbnew,(6.0.9-0)
; #@! TF.FileFunction,MixedPlating,1,4
FMAT,2
METRIC
; #@! TA.AperFunction,Plated,PTH,ViaDrill
T1C0.250
; #@! TA.AperFunction,Plated,PTH,ViaDrill
T2C0.350
; #@! TA.AperFunction,Plated,PTH,ComponentDrill
T3C0.800
; #@! TA.AperFunction,Plated,PTH,ComponentDrill
T4C0.900
; #@! TA.AperFunction,Plated,PTH,ComponentDrill
T5C1.000
; #@! TA.AperFunction,Plated,PTH,ComponentDrill
T6C1.500
; #@! TA.AperFunction,Plated,PTH,ComponentDrill
T7C1.600
; #@! TA.AperFunction,NonPlated,NPTH,ComponentDrill
T8C3.250
%
G90
G05
T1
X5.2Y41.9
X5.2Y26.3
X7.1Y57.7
X7.1Y49.1
X7.1Y47.7
X10.0Y61.6
X10.0Y37.3
X11.6Y49.1
X11.6Y23.7
X11.7Y70.8
X11.7Y63.5
X13.2Y59.0
X13.2Y39.7
X14.0Y32.7
X14.0Y21.2
X14.3Y68.2
X14.3Y60.3
X14.3Y54.0
X14.4Y62.9
X15.3Y60.3
X15.3Y41.9
X18.2Y56.5
X18.2Y27.5
X18.3Y21.2
X21.1Y57.8
X21.1Y32.7
X23.0Y34.9
X23.05Y37.85
X25.3Y63.8
X25.3Y45.6
X26.0Y63.1
X26.0Y61.8
X26.4Y35.9
X26.4Y22.3
X26.7Y54.0
X26.7Y37.2
X26.8Y63.8
X28.0Y37.9
X28.0Y25.0
X28.0Y19.6
X29.2Y24.0
X29.3Y34.0
X30.7Y26.2
X30.8Y48.6
X31.8Y57.0
X31.8Y36.5
X31.9Y62.6
X31.9Y30.3
X32.7Y68.3
X32.7Y63.8
X32.7Y61.2
X32.8Y25.9
X34.2Y43.8
X34.2Y38.6
X34.4Y33.1
X34.4Y29.7
X35.0Y55.2
X35.0Y37.2
X35.5Y35.0
X35.5Y31.1
X36.4Y32.4
X36.4Y29.8
X36.6Y52.7
X36.6Y34.0
X36.6Y25.9
X39.2Y22.9
X40.4Y25.5
X41.5Y44.6
X41.5Y39.8
X42.8Y37.0
X42.8Y31.8
X45.4Y66.5
X45.4Y60.4
X46.9Y60.2
X46.9Y57.0
X47.8Y63.4
X47.8Y58.9
X48.7Y48.2
X48.7Y37.0
X49.1Y15.6
X49.1Y12.2
X49.3Y68.4
X49.3Y62.0
X49.5Y47.5
X49.5Y45.0
X50.1Y54.5
X50.1Y41.5
X52.2Y61.4
X52.2Y52.7
X52.8Y53.9
X52.9Y59.4
X53.6Y60.7
X54.2Y54.7
X54.4Y62.0
X54.6Y9.6
X55.2Y59.4
X55.4Y22.3
X55.4Y8.4
X55.7Y35.7
X68.0Y54.0
T2
X3.0Y16.0
X3.8Y53.7
X11.7Y55.6
X13.1Y35.4
X15.6Y66.2
X16.8Y19.1
X17.1Y38.5
X18.2Y59.0
X19.4Y66.2
X20.0Y42.6
X20.0Y33.7
X20.7Y29.5
X20.9Y62.5
X22.4Y59.7
X24.5Y29.5
X24.7Y34.6
X27.2Y66.5
X29.4Y61.9
X29.5Y41.1
X31.2Y66.6
X33.5Y41.1
X34.1Y62.5
X35.5Y59.8
X37.4Y47.4
X38.6Y41.9
X40.3Y27.8
X40.4Y66.5
X42.7Y63.2
X42.7Y61.9
X43.0Y41.9
X44.3Y66.5
X44.4Y54.5
X45.2Y34.8
X45.9Y13.4
X45.9Y10.9
X45.9Y8.4
X46.1Y27.9
X47.0Y40.9
X47.5Y30.5
X48.1Y53.5
X49.3Y34.8
X50.7Y58.1
X50.7Y18.4
X50.7Y3.7
X51.2Y51.5
X52.8Y18.4
X53.6Y48.1
X53.6Y43.1
X55.1Y51.5
X55.5Y64.6
X56.3Y15.7
X59.4Y64.6
X60.0Y72.0
X60.3Y15.7
X60.8Y12.2
X60.8Y9.6
X60.8Y7.1
X64.0Y3.0
X65.2Y11.0
X65.4Y13.1
T3
X5.0Y3.702
X7.0Y3.702
X9.0Y3.702
T4
X2.95Y70.69
X2.95Y68.15
X2.95Y47.83
X5.49Y63.07
X5.49Y50.37
X5.49Y47.83
X5.49Y45.29
X30.3Y17.35
X31.57Y19.89
X32.84Y17.35
X34.11Y19.89
X35.38Y17.35
X36.65Y19.89
X37.92Y17.35
X39.19Y19.89
X63.91Y60.53
X66.45Y68.15
X66.45Y47.83
X66.45Y40.21
X66.45Y35.13
T5
X27.915Y8.46
X27.915Y6.43
X41.485Y8.46
X41.485Y6.43
T6
X2.9Y3.702
X11.1Y3.702
T7
X26.85Y14.05
X42.55Y14.05
T8
X28.985Y11.0
X40.415Y11.0
T0
M30
