%TF.GenerationSoftware,KiCad,Pcbnew,(6.0.7-1)-1*%
%TF.CreationDate,2022-09-19T13:49:17+02:00*%
%TF.ProjectId,nlpgen,6e6c7067-656e-42e6-9b69-6361645f7063,rev?*%
%TF.SameCoordinates,PX81b3200PY53ec600*%
%TF.FileFunction,Copper,L1,Top*%
%TF.FilePolarity,Positive*%
%FSLAX46Y46*%
G04 Gerber Fmt 4.6, Leading zero omitted, Abs format (unit mm)*
G04 Created by KiCad (PCBNEW (6.0.7-1)-1) date 2022-09-19 13:49:17*
%MOMM*%
%LPD*%
G01*
G04 APERTURE LIST*
G04 Aperture macros list*
%AMRoundRect*
0 Rectangle with rounded corners*
0 $1 Rounding radius*
0 $2 $3 $4 $5 $6 $7 $8 $9 X,Y pos of 4 corners*
0 Add a 4 corners polygon primitive as box body*
4,1,4,$2,$3,$4,$5,$6,$7,$8,$9,$2,$3,0*
0 Add four circle primitives for the rounded corners*
1,1,$1+$1,$2,$3*
1,1,$1+$1,$4,$5*
1,1,$1+$1,$6,$7*
1,1,$1+$1,$8,$9*
0 Add four rect primitives between the rounded corners*
20,1,$1+$1,$2,$3,$4,$5,0*
20,1,$1+$1,$4,$5,$6,$7,0*
20,1,$1+$1,$6,$7,$8,$9,0*
20,1,$1+$1,$8,$9,$2,$3,0*%
G04 Aperture macros list end*
%TA.AperFunction,SMDPad,CuDef*%
%ADD10RoundRect,0.250000X-0.262500X-0.450000X0.262500X-0.450000X0.262500X0.450000X-0.262500X0.450000X0*%
%TD*%
%TA.AperFunction,ComponentPad*%
%ADD11R,1.600000X1.600000*%
%TD*%
%TA.AperFunction,ComponentPad*%
%ADD12O,1.600000X1.600000*%
%TD*%
%TA.AperFunction,SMDPad,CuDef*%
%ADD13RoundRect,0.150000X-0.825000X-0.150000X0.825000X-0.150000X0.825000X0.150000X-0.825000X0.150000X0*%
%TD*%
%TA.AperFunction,ComponentPad*%
%ADD14C,1.400000*%
%TD*%
%TA.AperFunction,ComponentPad*%
%ADD15O,1.400000X1.400000*%
%TD*%
%TA.AperFunction,ComponentPad*%
%ADD16RoundRect,0.250001X0.899999X0.899999X-0.899999X0.899999X-0.899999X-0.899999X0.899999X-0.899999X0*%
%TD*%
%TA.AperFunction,ComponentPad*%
%ADD17RoundRect,0.250001X-0.899999X-0.899999X0.899999X-0.899999X0.899999X0.899999X-0.899999X0.899999X0*%
%TD*%
%TA.AperFunction,SMDPad,CuDef*%
%ADD18RoundRect,0.250000X-0.250000X-0.475000X0.250000X-0.475000X0.250000X0.475000X-0.250000X0.475000X0*%
%TD*%
%TA.AperFunction,SMDPad,CuDef*%
%ADD19RoundRect,0.250000X0.475000X-0.250000X0.475000X0.250000X-0.475000X0.250000X-0.475000X-0.250000X0*%
%TD*%
%TA.AperFunction,Conductor*%
%ADD20C,0.400000*%
%TD*%
%TA.AperFunction,Conductor*%
%ADD21C,0.800000*%
%TD*%
G04 APERTURE END LIST*
D10*
%TO.P,R2,1*%
%TO.N,Net-(U2-Pad3)*%
X36987500Y12400000D03*
%TO.P,R2,2*%
%TO.N,Net-(U1-Pad3)*%
X38812500Y12400000D03*
%TD*%
D11*
%TO.P,U2,1*%
%TO.N,Net-(U2-Pad1)*%
X31000000Y18925000D03*
D12*
%TO.P,U2,2*%
%TO.N,Net-(U2-Pad2)*%
X31000000Y16385000D03*
%TO.P,U2,3*%
%TO.N,Net-(U2-Pad3)*%
X31000000Y13845000D03*
%TO.P,U2,4*%
X31000000Y11305000D03*
%TO.P,U2,5*%
%TO.N,Net-(U1-Pad4)*%
X31000000Y8765000D03*
%TO.P,U2,6*%
%TO.N,Net-(U2-Pad9)*%
X31000000Y6225000D03*
%TO.P,U2,7,GND*%
%TO.N,GND*%
X31000000Y3685000D03*
%TO.P,U2,8*%
%TO.N,Net-(U2-Pad8)*%
X23380000Y3685000D03*
%TO.P,U2,9*%
%TO.N,Net-(U2-Pad9)*%
X23380000Y6225000D03*
%TO.P,U2,10*%
%TO.N,Net-(U2-Pad10)*%
X23380000Y8765000D03*
%TO.P,U2,11*%
X23380000Y11305000D03*
%TO.P,U2,12*%
%TO.N,Net-(U2-Pad12)*%
X23380000Y13845000D03*
%TO.P,U2,13*%
%TO.N,Net-(U2-Pad13)*%
X23380000Y16385000D03*
%TO.P,U2,14,VCC*%
%TO.N,VCC*%
X23380000Y18925000D03*
%TD*%
D13*
%TO.P,U1,1*%
%TO.N,Net-(U1-Pad1)*%
X41425000Y15410000D03*
%TO.P,U1,2*%
%TO.N,Net-(U2-Pad1)*%
X41425000Y14140000D03*
%TO.P,U1,3*%
%TO.N,Net-(U1-Pad3)*%
X41425000Y12870000D03*
%TO.P,U1,4*%
%TO.N,Net-(U1-Pad4)*%
X41425000Y11600000D03*
%TO.P,U1,5*%
%TO.N,GND*%
X41425000Y10330000D03*
%TO.P,U1,6*%
%TO.N,unconnected-(U1-Pad6)*%
X41425000Y9060000D03*
%TO.P,U1,7,GND*%
%TO.N,GND*%
X41425000Y7790000D03*
%TO.P,U1,8*%
%TO.N,unconnected-(U1-Pad8)*%
X46375000Y7790000D03*
%TO.P,U1,9*%
%TO.N,Net-(U1-Pad10)*%
X46375000Y9060000D03*
%TO.P,U1,10*%
X46375000Y10330000D03*
%TO.P,U1,11*%
%TO.N,Net-(U1-Pad12)*%
X46375000Y11600000D03*
%TO.P,U1,12*%
X46375000Y12870000D03*
%TO.P,U1,13*%
%TO.N,VCC*%
X46375000Y14140000D03*
%TO.P,U1,14,VCC*%
X46375000Y15410000D03*
%TD*%
D14*
%TO.P,R1,1*%
%TO.N,Net-(U1-Pad1)*%
X34800000Y19110000D03*
D15*
%TO.P,R1,2*%
%TO.N,Net-(U2-Pad3)*%
X34800000Y11490000D03*
%TD*%
D16*
%TO.P,J8,1,Pin_1*%
%TO.N,GND*%
X52200000Y18225000D03*
%TD*%
%TO.P,J7,1,Pin_1*%
%TO.N,VCC*%
X56500000Y18225000D03*
%TD*%
D17*
%TO.P,J6,1,Pin_1*%
%TO.N,Net-(U2-Pad8)*%
X2900000Y4175000D03*
%TD*%
D16*
%TO.P,J5,1,Pin_1*%
%TO.N,Net-(U2-Pad13)*%
X17200000Y18125000D03*
%TD*%
%TO.P,J4,1,Pin_1*%
%TO.N,Net-(U2-Pad12)*%
X7500000Y18125000D03*
%TD*%
%TO.P,J3,1,Pin_1*%
%TO.N,Net-(U2-Pad2)*%
X12200000Y18125000D03*
%TD*%
D17*
%TO.P,J2,1,Pin_1*%
%TO.N,GND*%
X66000000Y4175000D03*
%TD*%
%TO.P,J1,1,Pin_1*%
%TO.N,VCC*%
X61700000Y4175000D03*
%TD*%
D18*
%TO.P,C4,1*%
%TO.N,VCC*%
X46400000Y18000000D03*
%TO.P,C4,2*%
%TO.N,GND*%
X48300000Y18000000D03*
%TD*%
D19*
%TO.P,C3,1*%
%TO.N,Net-(U1-Pad3)*%
X42200000Y17950000D03*
%TO.P,C3,2*%
%TO.N,GND*%
X42200000Y19850000D03*
%TD*%
D18*
%TO.P,C2,1*%
%TO.N,Net-(U1-Pad1)*%
X35050000Y21900000D03*
%TO.P,C2,2*%
%TO.N,GND*%
X36950000Y21900000D03*
%TD*%
%TO.P,C1,1*%
%TO.N,VCC*%
X23350000Y22300000D03*
%TO.P,C1,2*%
%TO.N,GND*%
X25250000Y22300000D03*
%TD*%
D20*
%TO.N,Net-(U1-Pad10)*%
X46375000Y10330000D02*
X46375000Y9060000D01*
%TO.N,Net-(U1-Pad12)*%
X46375000Y12870000D02*
X46375000Y11600000D01*
%TO.N,VCC*%
X46375000Y15410000D02*
X46375000Y14140000D01*
%TO.N,Net-(U1-Pad1)*%
X34800000Y19110000D02*
X34800000Y21650000D01*
X34800000Y21650000D02*
X35050000Y21900000D01*
D21*
%TO.N,VCC*%
X61700000Y4175000D02*
X61700000Y8300000D01*
X61700000Y8300000D02*
X56500000Y13500000D01*
X56500000Y13500000D02*
X56500000Y18225000D01*
D20*
X46400000Y21600000D02*
X46400000Y21400000D01*
X46400000Y21400000D02*
X46400000Y18000000D01*
X56500000Y18225000D02*
X53325000Y21400000D01*
X53325000Y21400000D02*
X46400000Y21400000D01*
X23380000Y18925000D02*
X26425000Y18925000D01*
X26425000Y18925000D02*
X31500000Y24000000D01*
X31500000Y24000000D02*
X44000000Y24000000D01*
X44000000Y24000000D02*
X46400000Y21600000D01*
%TO.N,Net-(U2-Pad8)*%
X2900000Y4175000D02*
X4900001Y6175001D01*
X4900001Y6175001D02*
X20889999Y6175001D01*
X20889999Y6175001D02*
X23380000Y3685000D01*
%TO.N,Net-(U2-Pad12)*%
X7500000Y18125000D02*
X11780000Y13845000D01*
X11780000Y13845000D02*
X23380000Y13845000D01*
%TO.N,Net-(U2-Pad2)*%
X31000000Y16385000D02*
X29750000Y15135000D01*
X29750000Y15135000D02*
X15190000Y15135000D01*
X15190000Y15135000D02*
X12200000Y18125000D01*
%TO.N,Net-(U2-Pad13)*%
X17200000Y18125000D02*
X18940000Y16385000D01*
X18940000Y16385000D02*
X23380000Y16385000D01*
%TO.N,Net-(U1-Pad4)*%
X31000000Y8765000D02*
X37565000Y8765000D01*
X37565000Y8765000D02*
X40400000Y11600000D01*
X40400000Y11600000D02*
X41425000Y11600000D01*
%TO.N,Net-(U2-Pad9)*%
X23380000Y6225000D02*
X31000000Y6225000D01*
%TO.N,Net-(U1-Pad1)*%
X41425000Y15410000D02*
X38500000Y15410000D01*
X38500000Y15410000D02*
X34800000Y19110000D01*
%TO.N,Net-(U1-Pad3)*%
X41425000Y12870000D02*
X42770000Y12870000D01*
X42770000Y12870000D02*
X43200000Y13300000D01*
X43200000Y13300000D02*
X43200000Y16950000D01*
X43200000Y16950000D02*
X42200000Y17950000D01*
%TO.N,Net-(U2-Pad3)*%
X34800000Y11490000D02*
X31185000Y11490000D01*
X31185000Y11490000D02*
X31000000Y11305000D01*
X36987500Y12400000D02*
X35710000Y12400000D01*
X35710000Y12400000D02*
X34800000Y11490000D01*
%TO.N,Net-(U1-Pad3)*%
X41425000Y12870000D02*
X39282500Y12870000D01*
X39282500Y12870000D02*
X38812500Y12400000D01*
%TO.N,VCC*%
X46375000Y15410000D02*
X46375000Y17975000D01*
X46375000Y17975000D02*
X46400000Y18000000D01*
X23380000Y18925000D02*
X23380000Y22270000D01*
X23380000Y22270000D02*
X23350000Y22300000D01*
%TO.N,Net-(U2-Pad10)*%
X23380000Y11305000D02*
X23380000Y8765000D01*
%TO.N,Net-(U2-Pad1)*%
X31000000Y18925000D02*
X35785000Y14140000D01*
X35785000Y14140000D02*
X41425000Y14140000D01*
%TO.N,Net-(U2-Pad3)*%
X31000000Y11305000D02*
X31000000Y13845000D01*
%TD*%
%TA.AperFunction,Conductor*%
%TO.N,GND*%
G36*
X30753461Y24471498D02*
G01*
X30799954Y24417842D01*
X30810058Y24347568D01*
X30780564Y24282988D01*
X30774435Y24276405D01*
X26168435Y19670405D01*
X26106123Y19636379D01*
X26079340Y19633500D01*
X24546878Y19633500D01*
X24478757Y19653502D01*
X24443665Y19687229D01*
X24389357Y19764789D01*
X24389355Y19764792D01*
X24386198Y19769300D01*
X24224300Y19931198D01*
X24219792Y19934355D01*
X24219789Y19934357D01*
X24142229Y19988665D01*
X24097901Y20044122D01*
X24088500Y20091878D01*
X24088500Y21188572D01*
X24108502Y21256693D01*
X24125327Y21277590D01*
X24194132Y21346514D01*
X24194136Y21346519D01*
X24199305Y21351697D01*
X24202102Y21356235D01*
X24259353Y21396824D01*
X24330276Y21400054D01*
X24391687Y21364428D01*
X24399062Y21355932D01*
X24407098Y21345793D01*
X24521829Y21231261D01*
X24533240Y21222249D01*
X24671243Y21137184D01*
X24684424Y21131037D01*
X24838710Y21079862D01*
X24852086Y21076995D01*
X24946438Y21067328D01*
X24952854Y21067000D01*
X24977885Y21067000D01*
X24993124Y21071475D01*
X24994329Y21072865D01*
X24996000Y21080548D01*
X24996000Y21085116D01*
X25504000Y21085116D01*
X25508475Y21069877D01*
X25509865Y21068672D01*
X25517548Y21067001D01*
X25547095Y21067001D01*
X25553614Y21067338D01*
X25649206Y21077257D01*
X25662600Y21080149D01*
X25816784Y21131588D01*
X25829962Y21137761D01*
X25967807Y21223063D01*
X25979208Y21232099D01*
X26093739Y21346829D01*
X26102751Y21358240D01*
X26187816Y21496243D01*
X26193963Y21509424D01*
X26245138Y21663710D01*
X26248005Y21677086D01*
X26257672Y21771438D01*
X26258000Y21777854D01*
X26258000Y22027885D01*
X26253525Y22043124D01*
X26252135Y22044329D01*
X26244452Y22046000D01*
X25522115Y22046000D01*
X25506876Y22041525D01*
X25505671Y22040135D01*
X25504000Y22032452D01*
X25504000Y21085116D01*
X24996000Y21085116D01*
X24996000Y22572115D01*
X25504000Y22572115D01*
X25508475Y22556876D01*
X25509865Y22555671D01*
X25517548Y22554000D01*
X26239884Y22554000D01*
X26255123Y22558475D01*
X26256328Y22559865D01*
X26257999Y22567548D01*
X26257999Y22822095D01*
X26257662Y22828614D01*
X26247743Y22924206D01*
X26244851Y22937600D01*
X26193412Y23091784D01*
X26187239Y23104962D01*
X26101937Y23242807D01*
X26092901Y23254208D01*
X25978171Y23368739D01*
X25966760Y23377751D01*
X25828757Y23462816D01*
X25815576Y23468963D01*
X25661290Y23520138D01*
X25647914Y23523005D01*
X25553562Y23532672D01*
X25547145Y23533000D01*
X25522115Y23533000D01*
X25506876Y23528525D01*
X25505671Y23527135D01*
X25504000Y23519452D01*
X25504000Y22572115D01*
X24996000Y22572115D01*
X24996000Y23514884D01*
X24991525Y23530123D01*
X24990135Y23531328D01*
X24982452Y23532999D01*
X24952905Y23532999D01*
X24946386Y23532662D01*
X24850794Y23522743D01*
X24837400Y23519851D01*
X24683216Y23468412D01*
X24670038Y23462239D01*
X24532193Y23376937D01*
X24520792Y23367901D01*
X24406262Y23253172D01*
X24399206Y23244238D01*
X24341288Y23203177D01*
X24270365Y23199947D01*
X24208954Y23235574D01*
X24202154Y23243407D01*
X24198478Y23249348D01*
X24073303Y23374305D01*
X24067072Y23378146D01*
X23928968Y23463275D01*
X23928966Y23463276D01*
X23922738Y23467115D01*
X23842995Y23493564D01*
X23761389Y23520632D01*
X23761387Y23520632D01*
X23754861Y23522797D01*
X23748025Y23523497D01*
X23748022Y23523498D01*
X23704969Y23527909D01*
X23650400Y23533500D01*
X23049600Y23533500D01*
X23046354Y23533163D01*
X23046350Y23533163D01*
X22950692Y23523238D01*
X22950688Y23523237D01*
X22943834Y23522526D01*
X22937298Y23520345D01*
X22937296Y23520345D01*
X22920928Y23514884D01*
X22776054Y23466550D01*
X22625652Y23373478D01*
X22500695Y23248303D01*
X22496855Y23242073D01*
X22496854Y23242072D01*
X22423165Y23122526D01*
X22407885Y23097738D01*
X22352203Y22929861D01*
X22341500Y22825400D01*
X22341500Y21774600D01*
X22341837Y21771354D01*
X22341837Y21771350D01*
X22351618Y21677086D01*
X22352474Y21668834D01*
X22354655Y21662298D01*
X22354655Y21662296D01*
X22361585Y21641525D01*
X22408450Y21501054D01*
X22501522Y21350652D01*
X22624645Y21227743D01*
X22624646Y21227742D01*
X22626697Y21225695D01*
X22626347Y21225344D01*
X22664656Y21171307D01*
X22671500Y21130345D01*
X22671500Y20091878D01*
X22651498Y20023757D01*
X22617771Y19988665D01*
X22540211Y19934357D01*
X22540208Y19934355D01*
X22535700Y19931198D01*
X22373802Y19769300D01*
X22370645Y19764792D01*
X22370643Y19764789D01*
X22331234Y19708507D01*
X22242477Y19581749D01*
X22240154Y19576767D01*
X22240151Y19576762D01*
X22160029Y19404937D01*
X22145716Y19374243D01*
X22144294Y19368935D01*
X22144293Y19368933D01*
X22091563Y19172144D01*
X22086457Y19153087D01*
X22066502Y18925000D01*
X22086457Y18696913D01*
X22087881Y18691600D01*
X22087881Y18691598D01*
X22143276Y18484865D01*
X22145716Y18475757D01*
X22148039Y18470776D01*
X22148039Y18470775D01*
X22240151Y18273238D01*
X22240154Y18273233D01*
X22242477Y18268251D01*
X22373802Y18080700D01*
X22535700Y17918802D01*
X22540208Y17915645D01*
X22540211Y17915643D01*
X22566318Y17897363D01*
X22723251Y17787477D01*
X22728233Y17785154D01*
X22728238Y17785151D01*
X22762457Y17769195D01*
X22815742Y17722278D01*
X22835203Y17654001D01*
X22814661Y17586041D01*
X22762457Y17540805D01*
X22728238Y17524849D01*
X22728233Y17524846D01*
X22723251Y17522523D01*
X22638855Y17463428D01*
X22540211Y17394357D01*
X22540208Y17394355D01*
X22535700Y17391198D01*
X22373802Y17229300D01*
X22370645Y17224792D01*
X22370643Y17224789D01*
X22316335Y17147229D01*
X22260878Y17102901D01*
X22213122Y17093500D01*
X19285661Y17093500D01*
X19217540Y17113502D01*
X19196566Y17130405D01*
X18895405Y17431566D01*
X18861379Y17493878D01*
X18858500Y17520661D01*
X18858500Y19075400D01*
X18854910Y19110000D01*
X18848238Y19174307D01*
X18848237Y19174311D01*
X18847526Y19181165D01*
X18837856Y19210151D01*
X18793868Y19341997D01*
X18791550Y19348945D01*
X18698478Y19499348D01*
X18573303Y19624305D01*
X18558386Y19633500D01*
X18428968Y19713275D01*
X18428966Y19713276D01*
X18422738Y19717115D01*
X18279005Y19764789D01*
X18261389Y19770632D01*
X18261387Y19770632D01*
X18254861Y19772797D01*
X18248025Y19773497D01*
X18248022Y19773498D01*
X18204969Y19777909D01*
X18150400Y19783500D01*
X16249600Y19783500D01*
X16246354Y19783163D01*
X16246350Y19783163D01*
X16150693Y19773238D01*
X16150689Y19773237D01*
X16143835Y19772526D01*
X16137299Y19770345D01*
X16137297Y19770345D01*
X16062786Y19745486D01*
X15976055Y19716550D01*
X15825652Y19623478D01*
X15700695Y19498303D01*
X15696855Y19492073D01*
X15696854Y19492072D01*
X15645158Y19408205D01*
X15607885Y19347738D01*
X15587972Y19287703D01*
X15563334Y19213419D01*
X15552203Y19179861D01*
X15551503Y19173025D01*
X15551502Y19173022D01*
X15548256Y19141338D01*
X15541500Y19075400D01*
X15541500Y17174600D01*
X15541837Y17171354D01*
X15541837Y17171350D01*
X15549915Y17093500D01*
X15552474Y17068835D01*
X15554655Y17062299D01*
X15554655Y17062297D01*
X15594847Y16941828D01*
X15608450Y16901055D01*
X15701522Y16750652D01*
X15706704Y16745479D01*
X15725694Y16726522D01*
X15826697Y16625695D01*
X15832927Y16621855D01*
X15832928Y16621854D01*
X15957506Y16545063D01*
X15977262Y16532885D01*
X16026146Y16516671D01*
X16138611Y16479368D01*
X16138613Y16479368D01*
X16145139Y16477203D01*
X16151975Y16476503D01*
X16151978Y16476502D01*
X16195031Y16472091D01*
X16249600Y16466500D01*
X17804340Y16466500D01*
X17872461Y16446498D01*
X17893435Y16429595D01*
X18264435Y16058595D01*
X18298461Y15996283D01*
X18293396Y15925468D01*
X18250849Y15868632D01*
X18184329Y15843821D01*
X18175340Y15843500D01*
X15535661Y15843500D01*
X15467540Y15863502D01*
X15446566Y15880405D01*
X13895405Y17431565D01*
X13861380Y17493877D01*
X13858500Y17520660D01*
X13858500Y19075400D01*
X13854910Y19110000D01*
X13848238Y19174307D01*
X13848237Y19174311D01*
X13847526Y19181165D01*
X13837856Y19210151D01*
X13793868Y19341997D01*
X13791550Y19348945D01*
X13698478Y19499348D01*
X13573303Y19624305D01*
X13558386Y19633500D01*
X13428968Y19713275D01*
X13428966Y19713276D01*
X13422738Y19717115D01*
X13279005Y19764789D01*
X13261389Y19770632D01*
X13261387Y19770632D01*
X13254861Y19772797D01*
X13248025Y19773497D01*
X13248022Y19773498D01*
X13204969Y19777909D01*
X13150400Y19783500D01*
X11249600Y19783500D01*
X11246354Y19783163D01*
X11246350Y19783163D01*
X11150693Y19773238D01*
X11150689Y19773237D01*
X11143835Y19772526D01*
X11137299Y19770345D01*
X11137297Y19770345D01*
X11062786Y19745486D01*
X10976055Y19716550D01*
X10825652Y19623478D01*
X10700695Y19498303D01*
X10696855Y19492073D01*
X10696854Y19492072D01*
X10645158Y19408205D01*
X10607885Y19347738D01*
X10587972Y19287703D01*
X10563334Y19213419D01*
X10552203Y19179861D01*
X10551503Y19173025D01*
X10551502Y19173022D01*
X10548256Y19141338D01*
X10541500Y19075400D01*
X10541500Y17174600D01*
X10541837Y17171354D01*
X10541837Y17171350D01*
X10549915Y17093500D01*
X10552474Y17068835D01*
X10554655Y17062299D01*
X10554655Y17062297D01*
X10594847Y16941828D01*
X10608450Y16901055D01*
X10701522Y16750652D01*
X10706704Y16745479D01*
X10725694Y16726522D01*
X10826697Y16625695D01*
X10832927Y16621855D01*
X10832928Y16621854D01*
X10957506Y16545063D01*
X10977262Y16532885D01*
X11026146Y16516671D01*
X11138611Y16479368D01*
X11138613Y16479368D01*
X11145139Y16477203D01*
X11151975Y16476503D01*
X11151978Y16476502D01*
X11195031Y16472091D01*
X11249600Y16466500D01*
X12804340Y16466500D01*
X12872461Y16446498D01*
X12893435Y16429595D01*
X14554435Y14768595D01*
X14588461Y14706283D01*
X14583396Y14635468D01*
X14540849Y14578632D01*
X14474329Y14553821D01*
X14465340Y14553500D01*
X12125660Y14553500D01*
X12057539Y14573502D01*
X12036565Y14590405D01*
X9195405Y17431565D01*
X9161379Y17493877D01*
X9158500Y17520660D01*
X9158500Y19075400D01*
X9154910Y19110000D01*
X9148238Y19174307D01*
X9148237Y19174311D01*
X9147526Y19181165D01*
X9137856Y19210151D01*
X9093868Y19341997D01*
X9091550Y19348945D01*
X8998478Y19499348D01*
X8873303Y19624305D01*
X8858386Y19633500D01*
X8728968Y19713275D01*
X8728966Y19713276D01*
X8722738Y19717115D01*
X8579005Y19764789D01*
X8561389Y19770632D01*
X8561387Y19770632D01*
X8554861Y19772797D01*
X8548025Y19773497D01*
X8548022Y19773498D01*
X8504969Y19777909D01*
X8450400Y19783500D01*
X6549600Y19783500D01*
X6546354Y19783163D01*
X6546350Y19783163D01*
X6450693Y19773238D01*
X6450689Y19773237D01*
X6443835Y19772526D01*
X6437299Y19770345D01*
X6437297Y19770345D01*
X6362786Y19745486D01*
X6276055Y19716550D01*
X6125652Y19623478D01*
X6000695Y19498303D01*
X5996855Y19492073D01*
X5996854Y19492072D01*
X5945158Y19408205D01*
X5907885Y19347738D01*
X5887972Y19287703D01*
X5863334Y19213419D01*
X5852203Y19179861D01*
X5851503Y19173025D01*
X5851502Y19173022D01*
X5848256Y19141338D01*
X5841500Y19075400D01*
X5841500Y17174600D01*
X5841837Y17171354D01*
X5841837Y17171350D01*
X5849915Y17093500D01*
X5852474Y17068835D01*
X5854655Y17062299D01*
X5854655Y17062297D01*
X5894847Y16941828D01*
X5908450Y16901055D01*
X6001522Y16750652D01*
X6006704Y16745479D01*
X6025694Y16726522D01*
X6126697Y16625695D01*
X6132927Y16621855D01*
X6132928Y16621854D01*
X6257506Y16545063D01*
X6277262Y16532885D01*
X6326146Y16516671D01*
X6438611Y16479368D01*
X6438613Y16479368D01*
X6445139Y16477203D01*
X6451975Y16476503D01*
X6451978Y16476502D01*
X6495031Y16472091D01*
X6549600Y16466500D01*
X8104340Y16466500D01*
X8172461Y16446498D01*
X8193435Y16429595D01*
X11258550Y13364480D01*
X11264404Y13358215D01*
X11302439Y13314615D01*
X11354719Y13277872D01*
X11360014Y13273939D01*
X11410282Y13234524D01*
X11417198Y13231401D01*
X11419484Y13230017D01*
X11434165Y13221643D01*
X11436525Y13220378D01*
X11442739Y13216010D01*
X11449818Y13213250D01*
X11449820Y13213249D01*
X11502275Y13192798D01*
X11508344Y13190247D01*
X11566573Y13163955D01*
X11574046Y13162570D01*
X11576612Y13161766D01*
X11592835Y13157145D01*
X11595427Y13156480D01*
X11602509Y13153718D01*
X11610044Y13152726D01*
X11665861Y13145378D01*
X11672377Y13144346D01*
X11685974Y13141826D01*
X11735186Y13132705D01*
X11742766Y13133142D01*
X11742767Y13133142D01*
X11797380Y13136291D01*
X11804633Y13136500D01*
X22213122Y13136500D01*
X22281243Y13116498D01*
X22316335Y13082771D01*
X22370643Y13005211D01*
X22373802Y13000700D01*
X22535700Y12838802D01*
X22540208Y12835645D01*
X22540211Y12835643D01*
X22572749Y12812860D01*
X22723251Y12707477D01*
X22728233Y12705154D01*
X22728238Y12705151D01*
X22762457Y12689195D01*
X22815742Y12642278D01*
X22835203Y12574001D01*
X22814661Y12506041D01*
X22762457Y12460805D01*
X22728238Y12444849D01*
X22728233Y12444846D01*
X22723251Y12442523D01*
X22667888Y12403757D01*
X22540211Y12314357D01*
X22540208Y12314355D01*
X22535700Y12311198D01*
X22373802Y12149300D01*
X22370645Y12144792D01*
X22370643Y12144789D01*
X22323481Y12077434D01*
X22242477Y11961749D01*
X22240154Y11956767D01*
X22240151Y11956762D01*
X22173596Y11814032D01*
X22145716Y11754243D01*
X22144294Y11748935D01*
X22144293Y11748933D01*
X22093380Y11558925D01*
X22086457Y11533087D01*
X22066502Y11305000D01*
X22086457Y11076913D01*
X22087881Y11071600D01*
X22087881Y11071598D01*
X22139307Y10879677D01*
X22145716Y10855757D01*
X22148039Y10850776D01*
X22148039Y10850775D01*
X22240151Y10653238D01*
X22240154Y10653233D01*
X22242477Y10648251D01*
X22373802Y10460700D01*
X22535700Y10298802D01*
X22540208Y10295645D01*
X22540211Y10295643D01*
X22617771Y10241335D01*
X22662099Y10185878D01*
X22671500Y10138122D01*
X22671500Y9931878D01*
X22651498Y9863757D01*
X22617771Y9828665D01*
X22540211Y9774357D01*
X22540208Y9774355D01*
X22535700Y9771198D01*
X22373802Y9609300D01*
X22242477Y9421749D01*
X22240154Y9416767D01*
X22240151Y9416762D01*
X22173596Y9274032D01*
X22145716Y9214243D01*
X22086457Y8993087D01*
X22066502Y8765000D01*
X22086457Y8536913D01*
X22087881Y8531600D01*
X22087881Y8531598D01*
X22142684Y8327074D01*
X22145716Y8315757D01*
X22148039Y8310776D01*
X22148039Y8310775D01*
X22240151Y8113238D01*
X22240154Y8113233D01*
X22242477Y8108251D01*
X22373802Y7920700D01*
X22535700Y7758802D01*
X22540208Y7755645D01*
X22540211Y7755643D01*
X22618389Y7700902D01*
X22723251Y7627477D01*
X22728233Y7625154D01*
X22728238Y7625151D01*
X22762457Y7609195D01*
X22815742Y7562278D01*
X22835203Y7494001D01*
X22814661Y7426041D01*
X22762457Y7380805D01*
X22728238Y7364849D01*
X22728233Y7364846D01*
X22723251Y7362523D01*
X22618389Y7289098D01*
X22540211Y7234357D01*
X22540208Y7234355D01*
X22535700Y7231198D01*
X22373802Y7069300D01*
X22370645Y7064792D01*
X22370643Y7064789D01*
X22325359Y7000116D01*
X22242477Y6881749D01*
X22240154Y6876767D01*
X22240151Y6876762D01*
X22162274Y6709753D01*
X22145716Y6674243D01*
X22086457Y6453087D01*
X22085978Y6447607D01*
X22071988Y6287711D01*
X22046124Y6221593D01*
X21988621Y6179953D01*
X21917733Y6176013D01*
X21857372Y6209598D01*
X21411449Y6655521D01*
X21405595Y6661786D01*
X21390382Y6679225D01*
X21367560Y6705386D01*
X21315279Y6742130D01*
X21309985Y6746062D01*
X21265692Y6780792D01*
X21259717Y6785477D01*
X21252801Y6788600D01*
X21250515Y6789984D01*
X21235834Y6798358D01*
X21233474Y6799623D01*
X21227260Y6803991D01*
X21220181Y6806751D01*
X21220179Y6806752D01*
X21167724Y6827203D01*
X21161655Y6829754D01*
X21103426Y6856046D01*
X21095959Y6857430D01*
X21093404Y6858231D01*
X21077151Y6862860D01*
X21074571Y6863523D01*
X21067490Y6866283D01*
X21059959Y6867274D01*
X21059957Y6867275D01*
X21030338Y6871174D01*
X21004138Y6874623D01*
X20997640Y6875653D01*
X20934813Y6887297D01*
X20927233Y6886860D01*
X20927232Y6886860D01*
X20872607Y6883710D01*
X20865353Y6883501D01*
X4928928Y6883501D01*
X4920359Y6883793D01*
X4870226Y6887211D01*
X4870222Y6887211D01*
X4862649Y6887727D01*
X4799682Y6876737D01*
X4793170Y6875777D01*
X4729759Y6868103D01*
X4722658Y6865420D01*
X4720049Y6864779D01*
X4703729Y6860314D01*
X4701196Y6859549D01*
X4693718Y6858244D01*
X4635191Y6832553D01*
X4629109Y6830071D01*
X4608754Y6822379D01*
X4576450Y6810173D01*
X4576448Y6810172D01*
X4569345Y6807488D01*
X4563086Y6803187D01*
X4560721Y6801950D01*
X4545949Y6793728D01*
X4543657Y6792373D01*
X4536696Y6789317D01*
X4530669Y6784692D01*
X4530665Y6784690D01*
X4485988Y6750408D01*
X4480663Y6746539D01*
X4428020Y6710358D01*
X4386555Y6663818D01*
X4381595Y6658566D01*
X3593434Y5870405D01*
X3531122Y5836379D01*
X3504339Y5833500D01*
X1949600Y5833500D01*
X1946354Y5833163D01*
X1946350Y5833163D01*
X1850693Y5823238D01*
X1850689Y5823237D01*
X1843835Y5822526D01*
X1837299Y5820345D01*
X1837297Y5820345D01*
X1820932Y5814885D01*
X1676055Y5766550D01*
X1525652Y5673478D01*
X1520479Y5668296D01*
X1512348Y5660151D01*
X1400695Y5548303D01*
X1396855Y5542073D01*
X1396854Y5542072D01*
X1327523Y5429596D01*
X1307885Y5397738D01*
X1305581Y5390791D01*
X1254771Y5237602D01*
X1252203Y5229861D01*
X1251503Y5223025D01*
X1251502Y5223022D01*
X1251469Y5222699D01*
X1241500Y5125400D01*
X1241500Y3224600D01*
X1241837Y3221354D01*
X1241837Y3221350D01*
X1251752Y3125797D01*
X1252474Y3118835D01*
X1254655Y3112299D01*
X1254655Y3112297D01*
X1282651Y3028384D01*
X1308450Y2951055D01*
X1401522Y2800652D01*
X1526697Y2675695D01*
X1532927Y2671855D01*
X1532928Y2671854D01*
X1670090Y2587306D01*
X1677262Y2582885D01*
X1756669Y2556547D01*
X1838611Y2529368D01*
X1838613Y2529368D01*
X1845139Y2527203D01*
X1851975Y2526503D01*
X1851978Y2526502D01*
X1895031Y2522091D01*
X1949600Y2516500D01*
X3850400Y2516500D01*
X3853646Y2516837D01*
X3853650Y2516837D01*
X3949307Y2526762D01*
X3949311Y2526763D01*
X3956165Y2527474D01*
X3962701Y2529655D01*
X3962703Y2529655D01*
X4094805Y2573728D01*
X4123945Y2583450D01*
X4274348Y2676522D01*
X4399305Y2801697D01*
X4411540Y2821546D01*
X4488275Y2946032D01*
X4488276Y2946034D01*
X4492115Y2952262D01*
X4519057Y3033489D01*
X4545632Y3113611D01*
X4545632Y3113613D01*
X4547797Y3120139D01*
X4548509Y3127081D01*
X4552909Y3170031D01*
X4558500Y3224600D01*
X4558500Y4779340D01*
X4578502Y4847461D01*
X4595405Y4868435D01*
X5156566Y5429596D01*
X5218878Y5463622D01*
X5245661Y5466501D01*
X5735280Y5466501D01*
X5803401Y5446499D01*
X5849894Y5392843D01*
X5859998Y5322569D01*
X5846788Y5281834D01*
X5748570Y5095153D01*
X5748564Y5095140D01*
X5746444Y5091110D01*
X5744926Y5086812D01*
X5744924Y5086807D01*
X5682037Y4908725D01*
X5654218Y4829949D01*
X5600659Y4558210D01*
X5600432Y4553653D01*
X5600432Y4553652D01*
X5589635Y4336762D01*
X5586888Y4281585D01*
X5613193Y4005870D01*
X5614278Y4001436D01*
X5614279Y4001430D01*
X5677939Y3741275D01*
X5679024Y3736841D01*
X5680736Y3732615D01*
X5680737Y3732611D01*
X5740785Y3584361D01*
X5783002Y3480132D01*
X5922948Y3241122D01*
X6015176Y3125797D01*
X6088997Y3033489D01*
X6095931Y3024818D01*
X6298327Y2835750D01*
X6525896Y2677880D01*
X6575722Y2653092D01*
X6769784Y2556547D01*
X6769787Y2556546D01*
X6773871Y2554514D01*
X6778210Y2553092D01*
X6778209Y2553092D01*
X7032724Y2469657D01*
X7032730Y2469656D01*
X7037057Y2468237D01*
X7041548Y2467457D01*
X7041549Y2467457D01*
X7306160Y2421513D01*
X7306168Y2421512D01*
X7309941Y2420857D01*
X7313778Y2420666D01*
X7395887Y2416578D01*
X7395895Y2416578D01*
X7397458Y2416500D01*
X7570356Y2416500D01*
X7572624Y2416665D01*
X7572636Y2416665D01*
X7691791Y2425311D01*
X7776241Y2431439D01*
X7949348Y2469657D01*
X8042235Y2490164D01*
X8042239Y2490165D01*
X8046695Y2491149D01*
X8195370Y2547477D01*
X8301426Y2587658D01*
X8301429Y2587659D01*
X8305696Y2589276D01*
X8547820Y2723764D01*
X8701043Y2840700D01*
X8764361Y2889023D01*
X8764362Y2889024D01*
X8767993Y2891795D01*
X8808417Y2933146D01*
X8958409Y3086581D01*
X8961604Y3089849D01*
X9124596Y3313778D01*
X9253556Y3558890D01*
X9259667Y3576193D01*
X9344261Y3815744D01*
X9345782Y3820051D01*
X9399341Y4091790D01*
X9400269Y4110422D01*
X9412885Y4363846D01*
X9412885Y4363852D01*
X9413112Y4368415D01*
X9386807Y4644130D01*
X9376338Y4686916D01*
X9322061Y4908725D01*
X9320976Y4913159D01*
X9314176Y4929949D01*
X9218711Y5165639D01*
X9218711Y5165640D01*
X9216998Y5169868D01*
X9158446Y5269868D01*
X9154366Y5276836D01*
X9137206Y5345728D01*
X9160017Y5412960D01*
X9215555Y5457187D01*
X9263098Y5466501D01*
X10435280Y5466501D01*
X10503401Y5446499D01*
X10549894Y5392843D01*
X10559998Y5322569D01*
X10546788Y5281834D01*
X10448570Y5095153D01*
X10448564Y5095140D01*
X10446444Y5091110D01*
X10444926Y5086812D01*
X10444924Y5086807D01*
X10382037Y4908725D01*
X10354218Y4829949D01*
X10300659Y4558210D01*
X10300432Y4553653D01*
X10300432Y4553652D01*
X10289635Y4336762D01*
X10286888Y4281585D01*
X10313193Y4005870D01*
X10314278Y4001436D01*
X10314279Y4001430D01*
X10377939Y3741275D01*
X10379024Y3736841D01*
X10380736Y3732615D01*
X10380737Y3732611D01*
X10440785Y3584361D01*
X10483002Y3480132D01*
X10622948Y3241122D01*
X10715176Y3125797D01*
X10788997Y3033489D01*
X10795931Y3024818D01*
X10998327Y2835750D01*
X11225896Y2677880D01*
X11275722Y2653092D01*
X11469784Y2556547D01*
X11469787Y2556546D01*
X11473871Y2554514D01*
X11478210Y2553092D01*
X11478209Y2553092D01*
X11732724Y2469657D01*
X11732730Y2469656D01*
X11737057Y2468237D01*
X11741548Y2467457D01*
X11741549Y2467457D01*
X12006160Y2421513D01*
X12006168Y2421512D01*
X12009941Y2420857D01*
X12013778Y2420666D01*
X12095887Y2416578D01*
X12095895Y2416578D01*
X12097458Y2416500D01*
X12270356Y2416500D01*
X12272624Y2416665D01*
X12272636Y2416665D01*
X12391791Y2425311D01*
X12476241Y2431439D01*
X12649348Y2469657D01*
X12742235Y2490164D01*
X12742239Y2490165D01*
X12746695Y2491149D01*
X12895370Y2547477D01*
X13001426Y2587658D01*
X13001429Y2587659D01*
X13005696Y2589276D01*
X13247820Y2723764D01*
X13401043Y2840700D01*
X13464361Y2889023D01*
X13464362Y2889024D01*
X13467993Y2891795D01*
X13508417Y2933146D01*
X13658409Y3086581D01*
X13661604Y3089849D01*
X13824596Y3313778D01*
X13953556Y3558890D01*
X13959667Y3576193D01*
X14044261Y3815744D01*
X14045782Y3820051D01*
X14099341Y4091790D01*
X14100269Y4110422D01*
X14112885Y4363846D01*
X14112885Y4363852D01*
X14113112Y4368415D01*
X14086807Y4644130D01*
X14076338Y4686916D01*
X14022061Y4908725D01*
X14020976Y4913159D01*
X14014176Y4929949D01*
X13918711Y5165639D01*
X13918711Y5165640D01*
X13916998Y5169868D01*
X13858446Y5269868D01*
X13854366Y5276836D01*
X13837206Y5345728D01*
X13860017Y5412960D01*
X13915555Y5457187D01*
X13963098Y5466501D01*
X15435280Y5466501D01*
X15503401Y5446499D01*
X15549894Y5392843D01*
X15559998Y5322569D01*
X15546788Y5281834D01*
X15448570Y5095153D01*
X15448564Y5095140D01*
X15446444Y5091110D01*
X15444926Y5086812D01*
X15444924Y5086807D01*
X15382037Y4908725D01*
X15354218Y4829949D01*
X15300659Y4558210D01*
X15300432Y4553653D01*
X15300432Y4553652D01*
X15289635Y4336762D01*
X15286888Y4281585D01*
X15313193Y4005870D01*
X15314278Y4001436D01*
X15314279Y4001430D01*
X15377939Y3741275D01*
X15379024Y3736841D01*
X15380736Y3732615D01*
X15380737Y3732611D01*
X15440785Y3584361D01*
X15483002Y3480132D01*
X15622948Y3241122D01*
X15715176Y3125797D01*
X15788997Y3033489D01*
X15795931Y3024818D01*
X15998327Y2835750D01*
X16225896Y2677880D01*
X16275722Y2653092D01*
X16469784Y2556547D01*
X16469787Y2556546D01*
X16473871Y2554514D01*
X16478210Y2553092D01*
X16478209Y2553092D01*
X16732724Y2469657D01*
X16732730Y2469656D01*
X16737057Y2468237D01*
X16741548Y2467457D01*
X16741549Y2467457D01*
X17006160Y2421513D01*
X17006168Y2421512D01*
X17009941Y2420857D01*
X17013778Y2420666D01*
X17095887Y2416578D01*
X17095895Y2416578D01*
X17097458Y2416500D01*
X17270356Y2416500D01*
X17272624Y2416665D01*
X17272636Y2416665D01*
X17391791Y2425311D01*
X17476241Y2431439D01*
X17649348Y2469657D01*
X17742235Y2490164D01*
X17742239Y2490165D01*
X17746695Y2491149D01*
X17895370Y2547477D01*
X18001426Y2587658D01*
X18001429Y2587659D01*
X18005696Y2589276D01*
X18247820Y2723764D01*
X18401043Y2840700D01*
X18464361Y2889023D01*
X18464362Y2889024D01*
X18467993Y2891795D01*
X18508417Y2933146D01*
X18658409Y3086581D01*
X18661604Y3089849D01*
X18824596Y3313778D01*
X18953556Y3558890D01*
X18959667Y3576193D01*
X19044261Y3815744D01*
X19045782Y3820051D01*
X19099341Y4091790D01*
X19100269Y4110422D01*
X19112885Y4363846D01*
X19112885Y4363852D01*
X19113112Y4368415D01*
X19086807Y4644130D01*
X19076338Y4686916D01*
X19022061Y4908725D01*
X19020976Y4913159D01*
X19014176Y4929949D01*
X18918711Y5165639D01*
X18918711Y5165640D01*
X18916998Y5169868D01*
X18858446Y5269868D01*
X18854366Y5276836D01*
X18837206Y5345728D01*
X18860017Y5412960D01*
X18915555Y5457187D01*
X18963098Y5466501D01*
X20544339Y5466501D01*
X20612460Y5446499D01*
X20633434Y5429596D01*
X22050018Y4013011D01*
X22084044Y3950699D01*
X22086444Y3912937D01*
X22066502Y3685000D01*
X22086457Y3456913D01*
X22087881Y3451600D01*
X22087881Y3451598D01*
X22097031Y3417452D01*
X22145716Y3235757D01*
X22148039Y3230776D01*
X22148039Y3230775D01*
X22240151Y3033238D01*
X22240154Y3033233D01*
X22242477Y3028251D01*
X22299898Y2946245D01*
X22335737Y2895063D01*
X22373802Y2840700D01*
X22535700Y2678802D01*
X22540208Y2675645D01*
X22540211Y2675643D01*
X22618389Y2620902D01*
X22723251Y2547477D01*
X22728233Y2545154D01*
X22728238Y2545151D01*
X22924765Y2453510D01*
X22930757Y2450716D01*
X22936065Y2449294D01*
X22936067Y2449293D01*
X23146598Y2392881D01*
X23146600Y2392881D01*
X23151913Y2391457D01*
X23380000Y2371502D01*
X23608087Y2391457D01*
X23613400Y2392881D01*
X23613402Y2392881D01*
X23823933Y2449293D01*
X23823935Y2449294D01*
X23829243Y2450716D01*
X23835235Y2453510D01*
X24031762Y2545151D01*
X24031767Y2545154D01*
X24036749Y2547477D01*
X24141611Y2620902D01*
X24219789Y2675643D01*
X24219792Y2675645D01*
X24224300Y2678802D01*
X24386198Y2840700D01*
X24424264Y2895063D01*
X24460102Y2946245D01*
X24517523Y3028251D01*
X24519846Y3033233D01*
X24519849Y3033238D01*
X24611961Y3230775D01*
X24611961Y3230776D01*
X24614284Y3235757D01*
X24662970Y3417452D01*
X24663245Y3418478D01*
X29717273Y3418478D01*
X29764764Y3241239D01*
X29768510Y3230947D01*
X29860586Y3033489D01*
X29866069Y3023993D01*
X29991028Y2845533D01*
X29998084Y2837125D01*
X30152125Y2683084D01*
X30160533Y2676028D01*
X30338993Y2551069D01*
X30348489Y2545586D01*
X30545947Y2453510D01*
X30556239Y2449764D01*
X30728503Y2403606D01*
X30742599Y2403942D01*
X30746000Y2411884D01*
X30746000Y2417033D01*
X31254000Y2417033D01*
X31257973Y2403502D01*
X31266522Y2402273D01*
X31443761Y2449764D01*
X31454053Y2453510D01*
X31651511Y2545586D01*
X31661007Y2551069D01*
X31839467Y2676028D01*
X31847875Y2683084D01*
X32001916Y2837125D01*
X32008972Y2845533D01*
X32133931Y3023993D01*
X32139414Y3033489D01*
X32231490Y3230947D01*
X32235236Y3241239D01*
X32281394Y3413503D01*
X32281058Y3427599D01*
X32273116Y3431000D01*
X31272115Y3431000D01*
X31256876Y3426525D01*
X31255671Y3425135D01*
X31254000Y3417452D01*
X31254000Y2417033D01*
X30746000Y2417033D01*
X30746000Y3412885D01*
X30741525Y3428124D01*
X30740135Y3429329D01*
X30732452Y3431000D01*
X29732033Y3431000D01*
X29718502Y3427027D01*
X29717273Y3418478D01*
X24663245Y3418478D01*
X24672119Y3451598D01*
X24672119Y3451600D01*
X24673543Y3456913D01*
X24693498Y3685000D01*
X24673543Y3913087D01*
X24672119Y3918402D01*
X24615707Y4128933D01*
X24615706Y4128935D01*
X24614284Y4134243D01*
X24611961Y4139225D01*
X24519849Y4336762D01*
X24519846Y4336767D01*
X24517523Y4341749D01*
X24386198Y4529300D01*
X24224300Y4691198D01*
X24219792Y4694355D01*
X24219789Y4694357D01*
X24141611Y4749098D01*
X24036749Y4822523D01*
X24031767Y4824846D01*
X24031762Y4824849D01*
X23997543Y4840805D01*
X23944258Y4887722D01*
X23924797Y4955999D01*
X23945339Y5023959D01*
X23997543Y5069195D01*
X24031762Y5085151D01*
X24031767Y5085154D01*
X24036749Y5087477D01*
X24184752Y5191110D01*
X24219789Y5215643D01*
X24219792Y5215645D01*
X24224300Y5218802D01*
X24386198Y5380700D01*
X24393264Y5390791D01*
X24443665Y5462771D01*
X24499122Y5507099D01*
X24546878Y5516500D01*
X29833122Y5516500D01*
X29901243Y5496498D01*
X29936335Y5462771D01*
X29986736Y5390791D01*
X29993802Y5380700D01*
X30155700Y5218802D01*
X30160208Y5215645D01*
X30160211Y5215643D01*
X30195248Y5191110D01*
X30343251Y5087477D01*
X30348233Y5085154D01*
X30348238Y5085151D01*
X30383049Y5068919D01*
X30436334Y5022002D01*
X30455795Y4953725D01*
X30435253Y4885765D01*
X30383049Y4840529D01*
X30348489Y4824414D01*
X30338993Y4818931D01*
X30160533Y4693972D01*
X30152125Y4686916D01*
X29998084Y4532875D01*
X29991028Y4524467D01*
X29866069Y4346007D01*
X29860586Y4336511D01*
X29768510Y4139053D01*
X29764764Y4128761D01*
X29718606Y3956497D01*
X29718942Y3942401D01*
X29726884Y3939000D01*
X32267967Y3939000D01*
X32281498Y3942973D01*
X32282727Y3951522D01*
X32235236Y4128761D01*
X32231490Y4139053D01*
X32139414Y4336511D01*
X32133931Y4346007D01*
X32109019Y4381585D01*
X50286888Y4381585D01*
X50313193Y4105870D01*
X50314278Y4101436D01*
X50314279Y4101430D01*
X50362863Y3902885D01*
X50379024Y3836841D01*
X50380736Y3832615D01*
X50380737Y3832611D01*
X50449359Y3663193D01*
X50483002Y3580132D01*
X50622948Y3341122D01*
X50795931Y3124818D01*
X50998327Y2935750D01*
X51225896Y2777880D01*
X51329101Y2726536D01*
X51469784Y2656547D01*
X51469787Y2656546D01*
X51473871Y2654514D01*
X51478210Y2653092D01*
X51478209Y2653092D01*
X51732724Y2569657D01*
X51732730Y2569656D01*
X51737057Y2568237D01*
X51741548Y2567457D01*
X51741549Y2567457D01*
X52006160Y2521513D01*
X52006168Y2521512D01*
X52009941Y2520857D01*
X52013778Y2520666D01*
X52095887Y2516578D01*
X52095895Y2516578D01*
X52097458Y2516500D01*
X52270356Y2516500D01*
X52272624Y2516665D01*
X52272636Y2516665D01*
X52391791Y2525311D01*
X52476241Y2531439D01*
X52649348Y2569657D01*
X52742235Y2590164D01*
X52742239Y2590165D01*
X52746695Y2591149D01*
X52959712Y2671854D01*
X53001426Y2687658D01*
X53001429Y2687659D01*
X53005696Y2689276D01*
X53247820Y2823764D01*
X53414611Y2951055D01*
X53464361Y2989023D01*
X53464362Y2989024D01*
X53467993Y2991795D01*
X53499225Y3023743D01*
X53658409Y3186581D01*
X53661604Y3189849D01*
X53824596Y3413778D01*
X53953556Y3658890D01*
X53962777Y3685000D01*
X54044261Y3915744D01*
X54045782Y3920051D01*
X54099341Y4191790D01*
X54099568Y4196348D01*
X54108790Y4381585D01*
X54586888Y4381585D01*
X54613193Y4105870D01*
X54614278Y4101436D01*
X54614279Y4101430D01*
X54662863Y3902885D01*
X54679024Y3836841D01*
X54680736Y3832615D01*
X54680737Y3832611D01*
X54749359Y3663193D01*
X54783002Y3580132D01*
X54922948Y3341122D01*
X55095931Y3124818D01*
X55298327Y2935750D01*
X55525896Y2777880D01*
X55629101Y2726536D01*
X55769784Y2656547D01*
X55769787Y2656546D01*
X55773871Y2654514D01*
X55778210Y2653092D01*
X55778209Y2653092D01*
X56032724Y2569657D01*
X56032730Y2569656D01*
X56037057Y2568237D01*
X56041548Y2567457D01*
X56041549Y2567457D01*
X56306160Y2521513D01*
X56306168Y2521512D01*
X56309941Y2520857D01*
X56313778Y2520666D01*
X56395887Y2516578D01*
X56395895Y2516578D01*
X56397458Y2516500D01*
X56570356Y2516500D01*
X56572624Y2516665D01*
X56572636Y2516665D01*
X56691791Y2525311D01*
X56776241Y2531439D01*
X56949348Y2569657D01*
X57042235Y2590164D01*
X57042239Y2590165D01*
X57046695Y2591149D01*
X57259712Y2671854D01*
X57301426Y2687658D01*
X57301429Y2687659D01*
X57305696Y2689276D01*
X57547820Y2823764D01*
X57714611Y2951055D01*
X57764361Y2989023D01*
X57764362Y2989024D01*
X57767993Y2991795D01*
X57799225Y3023743D01*
X57958409Y3186581D01*
X57961604Y3189849D01*
X58124596Y3413778D01*
X58253556Y3658890D01*
X58262777Y3685000D01*
X58344261Y3915744D01*
X58345782Y3920051D01*
X58399341Y4191790D01*
X58399568Y4196348D01*
X58412885Y4463846D01*
X58412885Y4463852D01*
X58413112Y4468415D01*
X58386807Y4744130D01*
X58378192Y4779340D01*
X58322061Y5008725D01*
X58320976Y5013159D01*
X58317395Y5022002D01*
X58218711Y5265639D01*
X58218711Y5265640D01*
X58216998Y5269868D01*
X58077052Y5508878D01*
X57945418Y5673478D01*
X57906921Y5721616D01*
X57906920Y5721618D01*
X57904069Y5725182D01*
X57701673Y5914250D01*
X57474104Y6072120D01*
X57292751Y6162342D01*
X57230216Y6193453D01*
X57230213Y6193454D01*
X57226129Y6195486D01*
X57146490Y6221593D01*
X56967276Y6280343D01*
X56967270Y6280344D01*
X56962943Y6281763D01*
X56928686Y6287711D01*
X56693840Y6328487D01*
X56693832Y6328488D01*
X56690059Y6329143D01*
X56677996Y6329744D01*
X56604113Y6333422D01*
X56604105Y6333422D01*
X56602542Y6333500D01*
X56429644Y6333500D01*
X56427376Y6333335D01*
X56427364Y6333335D01*
X56308209Y6324689D01*
X56223759Y6318561D01*
X56088532Y6288706D01*
X55957765Y6259836D01*
X55957761Y6259835D01*
X55953305Y6258851D01*
X55849506Y6219525D01*
X55698574Y6162342D01*
X55698571Y6162341D01*
X55694304Y6160724D01*
X55452180Y6026236D01*
X55232007Y5858205D01*
X55228814Y5854939D01*
X55228812Y5854937D01*
X55197128Y5822526D01*
X55038396Y5660151D01*
X54875404Y5436222D01*
X54746444Y5191110D01*
X54744926Y5186812D01*
X54744924Y5186807D01*
X54687319Y5023683D01*
X54654218Y4929949D01*
X54600659Y4658210D01*
X54600432Y4653653D01*
X54600432Y4653652D01*
X54589332Y4430671D01*
X54586888Y4381585D01*
X54108790Y4381585D01*
X54112885Y4463846D01*
X54112885Y4463852D01*
X54113112Y4468415D01*
X54086807Y4744130D01*
X54078192Y4779340D01*
X54022061Y5008725D01*
X54020976Y5013159D01*
X54017395Y5022002D01*
X53918711Y5265639D01*
X53918711Y5265640D01*
X53916998Y5269868D01*
X53777052Y5508878D01*
X53645418Y5673478D01*
X53606921Y5721616D01*
X53606920Y5721618D01*
X53604069Y5725182D01*
X53401673Y5914250D01*
X53174104Y6072120D01*
X52992751Y6162342D01*
X52930216Y6193453D01*
X52930213Y6193454D01*
X52926129Y6195486D01*
X52846490Y6221593D01*
X52667276Y6280343D01*
X52667270Y6280344D01*
X52662943Y6281763D01*
X52628686Y6287711D01*
X52393840Y6328487D01*
X52393832Y6328488D01*
X52390059Y6329143D01*
X52377996Y6329744D01*
X52304113Y6333422D01*
X52304105Y6333422D01*
X52302542Y6333500D01*
X52129644Y6333500D01*
X52127376Y6333335D01*
X52127364Y6333335D01*
X52008209Y6324689D01*
X51923759Y6318561D01*
X51788532Y6288706D01*
X51657765Y6259836D01*
X51657761Y6259835D01*
X51653305Y6258851D01*
X51549506Y6219525D01*
X51398574Y6162342D01*
X51398571Y6162341D01*
X51394304Y6160724D01*
X51152180Y6026236D01*
X50932007Y5858205D01*
X50928814Y5854939D01*
X50928812Y5854937D01*
X50897128Y5822526D01*
X50738396Y5660151D01*
X50575404Y5436222D01*
X50446444Y5191110D01*
X50444926Y5186812D01*
X50444924Y5186807D01*
X50387319Y5023683D01*
X50354218Y4929949D01*
X50300659Y4658210D01*
X50300432Y4653653D01*
X50300432Y4653652D01*
X50289332Y4430671D01*
X50286888Y4381585D01*
X32109019Y4381585D01*
X32008972Y4524467D01*
X32001916Y4532875D01*
X31847875Y4686916D01*
X31839467Y4693972D01*
X31661007Y4818931D01*
X31651511Y4824414D01*
X31616951Y4840529D01*
X31563666Y4887446D01*
X31544205Y4955723D01*
X31564747Y5023683D01*
X31616951Y5068919D01*
X31651762Y5085151D01*
X31651767Y5085154D01*
X31656749Y5087477D01*
X31804752Y5191110D01*
X31839789Y5215643D01*
X31839792Y5215645D01*
X31844300Y5218802D01*
X32006198Y5380700D01*
X32013959Y5391783D01*
X32134366Y5563743D01*
X32137523Y5568251D01*
X32139846Y5573233D01*
X32139849Y5573238D01*
X32231961Y5770775D01*
X32231961Y5770776D01*
X32234284Y5775757D01*
X32244769Y5814885D01*
X32292119Y5991598D01*
X32292119Y5991600D01*
X32293543Y5996913D01*
X32313498Y6225000D01*
X32293543Y6453087D01*
X32234284Y6674243D01*
X32217726Y6709753D01*
X32139849Y6876762D01*
X32139846Y6876767D01*
X32137523Y6881749D01*
X32054641Y7000116D01*
X32009357Y7064789D01*
X32009355Y7064792D01*
X32006198Y7069300D01*
X31844300Y7231198D01*
X31839792Y7234355D01*
X31839789Y7234357D01*
X31761611Y7289098D01*
X31656749Y7362523D01*
X31651767Y7364846D01*
X31651762Y7364849D01*
X31617543Y7380805D01*
X31564258Y7427722D01*
X31544797Y7495999D01*
X31553300Y7524129D01*
X39948456Y7524129D01*
X39989107Y7384210D01*
X39995352Y7369779D01*
X40071911Y7240322D01*
X40081551Y7227896D01*
X40187896Y7121551D01*
X40200322Y7111911D01*
X40329779Y7035352D01*
X40344210Y7029107D01*
X40490065Y6986731D01*
X40502667Y6984430D01*
X40531084Y6982193D01*
X40536014Y6982000D01*
X41152885Y6982000D01*
X41168124Y6986475D01*
X41169329Y6987865D01*
X41171000Y6995548D01*
X41171000Y7000116D01*
X41679000Y7000116D01*
X41683475Y6984877D01*
X41684865Y6983672D01*
X41692548Y6982001D01*
X42313984Y6982001D01*
X42318920Y6982195D01*
X42347336Y6984430D01*
X42359931Y6986730D01*
X42505790Y7029107D01*
X42520221Y7035352D01*
X42649678Y7111911D01*
X42662104Y7121551D01*
X42768449Y7227896D01*
X42778089Y7240322D01*
X42854648Y7369779D01*
X42860893Y7384210D01*
X42899939Y7518605D01*
X42899899Y7532706D01*
X42892630Y7536000D01*
X41697115Y7536000D01*
X41681876Y7531525D01*
X41680671Y7530135D01*
X41679000Y7522452D01*
X41679000Y7000116D01*
X41171000Y7000116D01*
X41171000Y7517885D01*
X41166525Y7533124D01*
X41165135Y7534329D01*
X41157452Y7536000D01*
X39963122Y7536000D01*
X39949591Y7532027D01*
X39948456Y7524129D01*
X31553300Y7524129D01*
X31565339Y7563959D01*
X31617543Y7609195D01*
X31651762Y7625151D01*
X31651767Y7625154D01*
X31656749Y7627477D01*
X31761611Y7700902D01*
X31839789Y7755643D01*
X31839792Y7755645D01*
X31844300Y7758802D01*
X32006198Y7920700D01*
X32063665Y8002771D01*
X32119122Y8047099D01*
X32166878Y8056500D01*
X37536088Y8056500D01*
X37544658Y8056208D01*
X37594776Y8052791D01*
X37594780Y8052791D01*
X37602352Y8052275D01*
X37609829Y8053580D01*
X37609830Y8053580D01*
X37636308Y8058201D01*
X37665303Y8063262D01*
X37671821Y8064223D01*
X37735242Y8071898D01*
X37742343Y8074581D01*
X37744952Y8075222D01*
X37761262Y8079685D01*
X37763798Y8080450D01*
X37771284Y8081757D01*
X37829800Y8107444D01*
X37835904Y8109935D01*
X37844646Y8113238D01*
X37895656Y8132513D01*
X37901919Y8136817D01*
X37904285Y8138054D01*
X37919097Y8146299D01*
X37921351Y8147632D01*
X37928305Y8150685D01*
X37979002Y8189587D01*
X37984332Y8193459D01*
X38030720Y8225339D01*
X38030725Y8225344D01*
X38036981Y8229643D01*
X38078436Y8276171D01*
X38083416Y8281446D01*
X39779264Y9977293D01*
X39841576Y10011319D01*
X39912392Y10006254D01*
X39969227Y9963707D01*
X39985416Y9931252D01*
X39985958Y9931487D01*
X39995352Y9909779D01*
X40071911Y9780323D01*
X40077871Y9772640D01*
X40103820Y9706556D01*
X40089922Y9636933D01*
X40079579Y9620839D01*
X40075547Y9616807D01*
X39990855Y9473601D01*
X39944438Y9313831D01*
X39941500Y9276502D01*
X39941500Y8843498D01*
X39941693Y8841050D01*
X39941693Y8841042D01*
X39943651Y8816173D01*
X39944438Y8806169D01*
X39990855Y8646399D01*
X40075547Y8503193D01*
X40078487Y8500253D01*
X40103820Y8435734D01*
X40089921Y8366111D01*
X40077874Y8347364D01*
X40071910Y8339676D01*
X39995352Y8210221D01*
X39989107Y8195790D01*
X39950061Y8061395D01*
X39950101Y8047294D01*
X39957370Y8044000D01*
X42886878Y8044000D01*
X42900409Y8047973D01*
X42901544Y8055871D01*
X42860893Y8195790D01*
X42854648Y8210221D01*
X42778089Y8339677D01*
X42772129Y8347360D01*
X42746180Y8413444D01*
X42760078Y8483067D01*
X42770421Y8499161D01*
X42774453Y8503193D01*
X42859145Y8646399D01*
X42905562Y8806169D01*
X42906350Y8816173D01*
X42908307Y8841042D01*
X42908307Y8841050D01*
X42908500Y8843498D01*
X42908500Y9276502D01*
X42905562Y9313831D01*
X42859145Y9473601D01*
X42823314Y9534188D01*
X42778493Y9609976D01*
X42778492Y9609977D01*
X42774453Y9616807D01*
X42771513Y9619747D01*
X42746180Y9684266D01*
X42760079Y9753889D01*
X42772126Y9772636D01*
X42778090Y9780324D01*
X42854648Y9909779D01*
X42860893Y9924210D01*
X42899939Y10058605D01*
X42899899Y10072706D01*
X42892630Y10076000D01*
X41297000Y10076000D01*
X41228879Y10096002D01*
X41182386Y10149658D01*
X41171000Y10202000D01*
X41171000Y10458000D01*
X41191002Y10526121D01*
X41244658Y10572614D01*
X41297000Y10584000D01*
X42886878Y10584000D01*
X42900409Y10587973D01*
X42901544Y10595871D01*
X42860893Y10735790D01*
X42854648Y10750221D01*
X42778089Y10879677D01*
X42772129Y10887360D01*
X42746180Y10953444D01*
X42760078Y11023067D01*
X42770421Y11039161D01*
X42774453Y11043193D01*
X42859145Y11186399D01*
X42863609Y11201762D01*
X42879913Y11257885D01*
X42905562Y11346169D01*
X42906326Y11355866D01*
X42908307Y11381042D01*
X42908307Y11381050D01*
X42908500Y11383498D01*
X42908500Y11816502D01*
X42905562Y11853831D01*
X42859145Y12013601D01*
X42860079Y12013872D01*
X42852233Y12077434D01*
X42883010Y12141413D01*
X42940630Y12175860D01*
X42940238Y12176896D01*
X42946014Y12179079D01*
X42947349Y12179584D01*
X42949973Y12180228D01*
X42966262Y12184685D01*
X42968798Y12185450D01*
X42976284Y12186757D01*
X43034800Y12212444D01*
X43040904Y12214935D01*
X43093548Y12234827D01*
X43093549Y12234828D01*
X43100656Y12237513D01*
X43106919Y12241817D01*
X43109285Y12243054D01*
X43124097Y12251299D01*
X43126351Y12252632D01*
X43133305Y12255685D01*
X43184002Y12294587D01*
X43189332Y12298459D01*
X43235720Y12330339D01*
X43235725Y12330344D01*
X43241981Y12334643D01*
X43272294Y12368665D01*
X43283435Y12381170D01*
X43288416Y12386446D01*
X43680520Y12778550D01*
X43686785Y12784404D01*
X43724660Y12817445D01*
X43730385Y12822439D01*
X43767114Y12874700D01*
X43771046Y12879995D01*
X43781889Y12893823D01*
X43810477Y12930282D01*
X43813602Y12937204D01*
X43814964Y12939452D01*
X43823368Y12954185D01*
X43824622Y12956524D01*
X43828990Y12962739D01*
X43831749Y12969815D01*
X43831751Y12969819D01*
X43852200Y13022269D01*
X43854749Y13028334D01*
X43881045Y13086573D01*
X43882429Y13094038D01*
X43883226Y13096582D01*
X43887859Y13112848D01*
X43888521Y13115428D01*
X43891282Y13122509D01*
X43892807Y13134089D01*
X43899621Y13185853D01*
X43900653Y13192371D01*
X43912296Y13255187D01*
X43908709Y13317393D01*
X43908500Y13324647D01*
X43908500Y16921073D01*
X43908792Y16929642D01*
X43912210Y16979775D01*
X43912210Y16979779D01*
X43912726Y16987352D01*
X43901736Y17050319D01*
X43900775Y17056835D01*
X43895200Y17102901D01*
X43893102Y17120242D01*
X43890419Y17127343D01*
X43889778Y17129952D01*
X43885313Y17146272D01*
X43884548Y17148805D01*
X43883243Y17156283D01*
X43857552Y17214810D01*
X43855067Y17220898D01*
X43850918Y17231880D01*
X43847378Y17241247D01*
X43835172Y17273551D01*
X43835171Y17273553D01*
X43832487Y17280656D01*
X43828186Y17286915D01*
X43826949Y17289280D01*
X43818727Y17304052D01*
X43817372Y17306344D01*
X43814316Y17313305D01*
X43809691Y17319332D01*
X43809689Y17319336D01*
X43775407Y17364013D01*
X43771529Y17369350D01*
X43771204Y17369824D01*
X43735357Y17421981D01*
X43688837Y17463429D01*
X43683562Y17468409D01*
X43470405Y17681566D01*
X43436379Y17743878D01*
X43433500Y17770661D01*
X43433500Y18250400D01*
X43433163Y18253650D01*
X43423238Y18349308D01*
X43423237Y18349312D01*
X43422526Y18356166D01*
X43395835Y18436170D01*
X43368868Y18516998D01*
X43366550Y18523946D01*
X43273478Y18674348D01*
X43148303Y18799305D01*
X43143765Y18802102D01*
X43103176Y18859353D01*
X43099946Y18930276D01*
X43135572Y18991687D01*
X43144068Y18999062D01*
X43154207Y19007098D01*
X43268739Y19121829D01*
X43277751Y19133240D01*
X43362816Y19271243D01*
X43368963Y19284424D01*
X43420138Y19438710D01*
X43423005Y19452086D01*
X43432672Y19546438D01*
X43433000Y19552854D01*
X43433000Y19577885D01*
X43428525Y19593124D01*
X43427135Y19594329D01*
X43419452Y19596000D01*
X40985116Y19596000D01*
X40969877Y19591525D01*
X40968672Y19590135D01*
X40967001Y19582452D01*
X40967001Y19552905D01*
X40967338Y19546386D01*
X40977257Y19450794D01*
X40980149Y19437400D01*
X41031588Y19283216D01*
X41037761Y19270038D01*
X41123063Y19132193D01*
X41132099Y19120792D01*
X41246828Y19006262D01*
X41255762Y18999206D01*
X41296823Y18941288D01*
X41300053Y18870365D01*
X41264426Y18808954D01*
X41256593Y18802154D01*
X41250652Y18798478D01*
X41125695Y18673303D01*
X41121855Y18667073D01*
X41121854Y18667072D01*
X41069147Y18581565D01*
X41032885Y18522738D01*
X41018932Y18480671D01*
X40988740Y18389643D01*
X40977203Y18354861D01*
X40976503Y18348025D01*
X40976502Y18348022D01*
X40973150Y18315307D01*
X40966500Y18250400D01*
X40966500Y17649600D01*
X40966837Y17646354D01*
X40966837Y17646350D01*
X40973095Y17586041D01*
X40977474Y17543834D01*
X41033450Y17376054D01*
X41126522Y17225652D01*
X41251697Y17100695D01*
X41257927Y17096855D01*
X41257928Y17096854D01*
X41347325Y17041749D01*
X41402262Y17007885D01*
X41482005Y16981436D01*
X41563611Y16954368D01*
X41563613Y16954368D01*
X41570139Y16952203D01*
X41576975Y16951503D01*
X41576978Y16951502D01*
X41620031Y16947091D01*
X41674600Y16941500D01*
X42154340Y16941500D01*
X42222461Y16921498D01*
X42243435Y16904595D01*
X42454595Y16693435D01*
X42488621Y16631123D01*
X42491500Y16604340D01*
X42491500Y16340848D01*
X42471498Y16272727D01*
X42417842Y16226234D01*
X42354046Y16218297D01*
X42353831Y16215562D01*
X42318958Y16218307D01*
X42318950Y16218307D01*
X42316502Y16218500D01*
X40533498Y16218500D01*
X40531050Y16218307D01*
X40531042Y16218307D01*
X40502579Y16216067D01*
X40502574Y16216066D01*
X40496169Y16215562D01*
X40453247Y16203092D01*
X40344012Y16171357D01*
X40344010Y16171356D01*
X40336399Y16169145D01*
X40280431Y16136045D01*
X40216294Y16118500D01*
X38845660Y16118500D01*
X38777539Y16138502D01*
X38756565Y16155405D01*
X36037676Y18874294D01*
X36003650Y18936606D01*
X36001250Y18974371D01*
X36012637Y19104525D01*
X36013116Y19110000D01*
X35994686Y19320655D01*
X35989291Y19340791D01*
X35941379Y19519600D01*
X35941378Y19519602D01*
X35939956Y19524910D01*
X35929917Y19546438D01*
X35852912Y19711577D01*
X35852910Y19711580D01*
X35850589Y19716558D01*
X35729301Y19889776D01*
X35579776Y20039301D01*
X35572891Y20044122D01*
X35562228Y20051589D01*
X35517900Y20107047D01*
X35514934Y20122115D01*
X40967000Y20122115D01*
X40971475Y20106876D01*
X40972865Y20105671D01*
X40980548Y20104000D01*
X41927885Y20104000D01*
X41943124Y20108475D01*
X41944329Y20109865D01*
X41946000Y20117548D01*
X41946000Y20122115D01*
X42454000Y20122115D01*
X42458475Y20106876D01*
X42459865Y20105671D01*
X42467548Y20104000D01*
X43414884Y20104000D01*
X43430123Y20108475D01*
X43431328Y20109865D01*
X43432999Y20117548D01*
X43432999Y20147095D01*
X43432662Y20153614D01*
X43422743Y20249206D01*
X43419851Y20262600D01*
X43368412Y20416784D01*
X43362239Y20429962D01*
X43276937Y20567807D01*
X43267901Y20579208D01*
X43153171Y20693739D01*
X43141760Y20702751D01*
X43003757Y20787816D01*
X42990576Y20793963D01*
X42836290Y20845138D01*
X42822914Y20848005D01*
X42728562Y20857672D01*
X42722145Y20858000D01*
X42472115Y20858000D01*
X42456876Y20853525D01*
X42455671Y20852135D01*
X42454000Y20844452D01*
X42454000Y20122115D01*
X41946000Y20122115D01*
X41946000Y20839884D01*
X41941525Y20855123D01*
X41940135Y20856328D01*
X41932452Y20857999D01*
X41677905Y20857999D01*
X41671386Y20857662D01*
X41575794Y20847743D01*
X41562400Y20844851D01*
X41408216Y20793412D01*
X41395038Y20787239D01*
X41257193Y20701937D01*
X41245792Y20692901D01*
X41131261Y20578171D01*
X41122249Y20566760D01*
X41037184Y20428757D01*
X41031037Y20415576D01*
X40979862Y20261290D01*
X40976995Y20247914D01*
X40967328Y20153562D01*
X40967000Y20147145D01*
X40967000Y20122115D01*
X35514934Y20122115D01*
X35508500Y20154801D01*
X35508500Y20604143D01*
X35528502Y20672264D01*
X35582158Y20718757D01*
X35594622Y20723666D01*
X35616995Y20731130D01*
X35617002Y20731133D01*
X35623946Y20733450D01*
X35774348Y20826522D01*
X35899305Y20951697D01*
X35902102Y20956235D01*
X35959353Y20996824D01*
X36030276Y21000054D01*
X36091687Y20964428D01*
X36099062Y20955932D01*
X36107098Y20945793D01*
X36221829Y20831261D01*
X36233240Y20822249D01*
X36371243Y20737184D01*
X36384424Y20731037D01*
X36538710Y20679862D01*
X36552086Y20676995D01*
X36646438Y20667328D01*
X36652854Y20667000D01*
X36677885Y20667000D01*
X36693124Y20671475D01*
X36694329Y20672865D01*
X36696000Y20680548D01*
X36696000Y20685116D01*
X37204000Y20685116D01*
X37208475Y20669877D01*
X37209865Y20668672D01*
X37217548Y20667001D01*
X37247095Y20667001D01*
X37253614Y20667338D01*
X37349206Y20677257D01*
X37362600Y20680149D01*
X37516784Y20731588D01*
X37529962Y20737761D01*
X37667807Y20823063D01*
X37679208Y20832099D01*
X37793739Y20946829D01*
X37802751Y20958240D01*
X37887816Y21096243D01*
X37893963Y21109424D01*
X37945138Y21263710D01*
X37948005Y21277086D01*
X37957672Y21371438D01*
X37958000Y21377854D01*
X37958000Y21627885D01*
X37953525Y21643124D01*
X37952135Y21644329D01*
X37944452Y21646000D01*
X37222115Y21646000D01*
X37206876Y21641525D01*
X37205671Y21640135D01*
X37204000Y21632452D01*
X37204000Y20685116D01*
X36696000Y20685116D01*
X36696000Y22028000D01*
X36716002Y22096121D01*
X36769658Y22142614D01*
X36822000Y22154000D01*
X37939884Y22154000D01*
X37955123Y22158475D01*
X37956328Y22159865D01*
X37957999Y22167548D01*
X37957999Y22422095D01*
X37957662Y22428614D01*
X37947743Y22524206D01*
X37944851Y22537600D01*
X37893412Y22691784D01*
X37887239Y22704962D01*
X37801937Y22842807D01*
X37792901Y22854208D01*
X37678171Y22968739D01*
X37666760Y22977751D01*
X37536182Y23058240D01*
X37488689Y23111012D01*
X37477265Y23181084D01*
X37505539Y23246208D01*
X37564533Y23285707D01*
X37602298Y23291500D01*
X43654340Y23291500D01*
X43722461Y23271498D01*
X43743435Y23254595D01*
X45654595Y21343435D01*
X45688621Y21281123D01*
X45691500Y21254340D01*
X45691500Y19141480D01*
X45671498Y19073359D01*
X45654675Y19052464D01*
X45550695Y18948303D01*
X45546855Y18942073D01*
X45546854Y18942072D01*
X45464799Y18808954D01*
X45457885Y18797738D01*
X45437675Y18736807D01*
X45416959Y18674348D01*
X45402203Y18629861D01*
X45391500Y18525400D01*
X45391500Y17474600D01*
X45391837Y17471354D01*
X45391837Y17471350D01*
X45401725Y17376054D01*
X45402474Y17368834D01*
X45404655Y17362298D01*
X45404655Y17362296D01*
X45432811Y17277904D01*
X45458450Y17201054D01*
X45551522Y17050652D01*
X45614933Y16987352D01*
X45629518Y16972792D01*
X45663597Y16910510D01*
X45666500Y16883619D01*
X45666500Y16344500D01*
X45646498Y16276379D01*
X45592842Y16229886D01*
X45540500Y16218500D01*
X45483498Y16218500D01*
X45481050Y16218307D01*
X45481042Y16218307D01*
X45452579Y16216067D01*
X45452574Y16216066D01*
X45446169Y16215562D01*
X45403247Y16203092D01*
X45294012Y16171357D01*
X45294010Y16171356D01*
X45286399Y16169145D01*
X45279572Y16165108D01*
X45279573Y16165108D01*
X45150020Y16088491D01*
X45150017Y16088489D01*
X45143193Y16084453D01*
X45025547Y15966807D01*
X45021511Y15959983D01*
X45021509Y15959980D01*
X44986886Y15901435D01*
X44940855Y15823601D01*
X44894438Y15663831D01*
X44891500Y15626502D01*
X44891500Y15193498D01*
X44891693Y15191050D01*
X44891693Y15191042D01*
X44892251Y15183959D01*
X44894438Y15156169D01*
X44940855Y14996399D01*
X45025547Y14853193D01*
X45028229Y14850511D01*
X45053502Y14786139D01*
X45039600Y14716516D01*
X45029428Y14700688D01*
X45025547Y14696807D01*
X44940855Y14553601D01*
X44894438Y14393831D01*
X44891500Y14356502D01*
X44891500Y13923498D01*
X44894438Y13886169D01*
X44940855Y13726399D01*
X45025547Y13583193D01*
X45028229Y13580511D01*
X45053502Y13516139D01*
X45039600Y13446516D01*
X45029428Y13430688D01*
X45025547Y13426807D01*
X44940855Y13283601D01*
X44938644Y13275990D01*
X44938643Y13275988D01*
X44928732Y13241874D01*
X44894438Y13123831D01*
X44893934Y13117426D01*
X44893933Y13117421D01*
X44892293Y13096582D01*
X44891500Y13086502D01*
X44891500Y12653498D01*
X44891693Y12651050D01*
X44891693Y12651042D01*
X44893536Y12627633D01*
X44894438Y12616169D01*
X44940855Y12456399D01*
X45025547Y12313193D01*
X45028229Y12310511D01*
X45053502Y12246139D01*
X45039600Y12176516D01*
X45029428Y12160688D01*
X45025547Y12156807D01*
X44940855Y12013601D01*
X44894438Y11853831D01*
X44891500Y11816502D01*
X44891500Y11383498D01*
X44891693Y11381050D01*
X44891693Y11381042D01*
X44893675Y11355866D01*
X44894438Y11346169D01*
X44920087Y11257885D01*
X44936392Y11201762D01*
X44940855Y11186399D01*
X45025547Y11043193D01*
X45028229Y11040511D01*
X45053502Y10976139D01*
X45039600Y10906516D01*
X45029428Y10890688D01*
X45025547Y10886807D01*
X44940855Y10743601D01*
X44938644Y10735990D01*
X44938643Y10735988D01*
X44930026Y10706327D01*
X44894438Y10583831D01*
X44893934Y10577426D01*
X44893933Y10577421D01*
X44891693Y10548958D01*
X44891500Y10546502D01*
X44891500Y10113498D01*
X44891693Y10111050D01*
X44891693Y10111042D01*
X44892251Y10103959D01*
X44894438Y10076169D01*
X44914750Y10006254D01*
X44938586Y9924210D01*
X44940855Y9916399D01*
X45025547Y9773193D01*
X45028229Y9770511D01*
X45053502Y9706139D01*
X45039600Y9636516D01*
X45029428Y9620688D01*
X45025547Y9616807D01*
X44940855Y9473601D01*
X44894438Y9313831D01*
X44891500Y9276502D01*
X44891500Y8843498D01*
X44891693Y8841050D01*
X44891693Y8841042D01*
X44893651Y8816173D01*
X44894438Y8806169D01*
X44940855Y8646399D01*
X45025547Y8503193D01*
X45028229Y8500511D01*
X45053502Y8436139D01*
X45039600Y8366516D01*
X45029428Y8350688D01*
X45025547Y8346807D01*
X44940855Y8203601D01*
X44938644Y8195990D01*
X44938643Y8195988D01*
X44937365Y8191589D01*
X44894438Y8043831D01*
X44891500Y8006502D01*
X44891500Y7573498D01*
X44891693Y7571050D01*
X44891693Y7571042D01*
X44892251Y7563959D01*
X44894438Y7536169D01*
X44906399Y7495000D01*
X44938586Y7384210D01*
X44940855Y7376399D01*
X44944892Y7369573D01*
X45021509Y7240020D01*
X45021511Y7240017D01*
X45025547Y7233193D01*
X45143193Y7115547D01*
X45150017Y7111511D01*
X45150020Y7111509D01*
X45221392Y7069300D01*
X45286399Y7030855D01*
X45294010Y7028644D01*
X45294012Y7028643D01*
X45346231Y7013472D01*
X45446169Y6984438D01*
X45452574Y6983934D01*
X45452579Y6983933D01*
X45481042Y6981693D01*
X45481050Y6981693D01*
X45483498Y6981500D01*
X47266502Y6981500D01*
X47268950Y6981693D01*
X47268958Y6981693D01*
X47297421Y6983933D01*
X47297426Y6983934D01*
X47303831Y6984438D01*
X47403769Y7013472D01*
X47455988Y7028643D01*
X47455990Y7028644D01*
X47463601Y7030855D01*
X47528608Y7069300D01*
X47599980Y7111509D01*
X47599983Y7111511D01*
X47606807Y7115547D01*
X47724453Y7233193D01*
X47728489Y7240017D01*
X47728491Y7240020D01*
X47805108Y7369573D01*
X47809145Y7376399D01*
X47811415Y7384210D01*
X47843601Y7495000D01*
X47855562Y7536169D01*
X47857750Y7563959D01*
X47858307Y7571042D01*
X47858307Y7571050D01*
X47858500Y7573498D01*
X47858500Y8006502D01*
X47855562Y8043831D01*
X47812635Y8191589D01*
X47811357Y8195988D01*
X47811356Y8195990D01*
X47809145Y8203601D01*
X47724453Y8346807D01*
X47721771Y8349489D01*
X47696498Y8413861D01*
X47710400Y8483484D01*
X47720572Y8499312D01*
X47724453Y8503193D01*
X47809145Y8646399D01*
X47855562Y8806169D01*
X47856350Y8816173D01*
X47858307Y8841042D01*
X47858307Y8841050D01*
X47858500Y8843498D01*
X47858500Y9276502D01*
X47855562Y9313831D01*
X47809145Y9473601D01*
X47724453Y9616807D01*
X47721771Y9619489D01*
X47696498Y9683861D01*
X47710400Y9753484D01*
X47720572Y9769312D01*
X47724453Y9773193D01*
X47809145Y9916399D01*
X47811415Y9924210D01*
X47835250Y10006254D01*
X47855562Y10076169D01*
X47857750Y10103959D01*
X47858307Y10111042D01*
X47858307Y10111050D01*
X47858500Y10113498D01*
X47858500Y10546502D01*
X47858307Y10548958D01*
X47856067Y10577421D01*
X47856066Y10577426D01*
X47855562Y10583831D01*
X47819974Y10706327D01*
X47811357Y10735988D01*
X47811356Y10735990D01*
X47809145Y10743601D01*
X47724453Y10886807D01*
X47721771Y10889489D01*
X47696498Y10953861D01*
X47710400Y11023484D01*
X47720572Y11039312D01*
X47724453Y11043193D01*
X47809145Y11186399D01*
X47813609Y11201762D01*
X47829913Y11257885D01*
X47855562Y11346169D01*
X47856326Y11355866D01*
X47858307Y11381042D01*
X47858307Y11381050D01*
X47858500Y11383498D01*
X47858500Y11816502D01*
X47855562Y11853831D01*
X47809145Y12013601D01*
X47724453Y12156807D01*
X47721771Y12159489D01*
X47696498Y12223861D01*
X47710400Y12293484D01*
X47720572Y12309312D01*
X47724453Y12313193D01*
X47809145Y12456399D01*
X47855562Y12616169D01*
X47856465Y12627633D01*
X47858307Y12651042D01*
X47858307Y12651050D01*
X47858500Y12653498D01*
X47858500Y13086502D01*
X47857707Y13096582D01*
X47856067Y13117421D01*
X47856066Y13117426D01*
X47855562Y13123831D01*
X47821268Y13241874D01*
X47811357Y13275988D01*
X47811356Y13275990D01*
X47809145Y13283601D01*
X47724453Y13426807D01*
X47721771Y13429489D01*
X47696498Y13493861D01*
X47710400Y13563484D01*
X47720572Y13579312D01*
X47724453Y13583193D01*
X47809145Y13726399D01*
X47855562Y13886169D01*
X47858500Y13923498D01*
X47858500Y14356502D01*
X47855562Y14393831D01*
X47809145Y14553601D01*
X47724453Y14696807D01*
X47721771Y14699489D01*
X47696498Y14763861D01*
X47710400Y14833484D01*
X47720572Y14849312D01*
X47724453Y14853193D01*
X47809145Y14996399D01*
X47855562Y15156169D01*
X47857750Y15183959D01*
X47858307Y15191042D01*
X47858307Y15191050D01*
X47858500Y15193498D01*
X47858500Y15626502D01*
X47855562Y15663831D01*
X47809145Y15823601D01*
X47763114Y15901435D01*
X47728491Y15959980D01*
X47728489Y15959983D01*
X47724453Y15966807D01*
X47606807Y16084453D01*
X47599983Y16088489D01*
X47599980Y16088491D01*
X47470427Y16165108D01*
X47470428Y16165108D01*
X47463601Y16169145D01*
X47455990Y16171356D01*
X47455988Y16171357D01*
X47346753Y16203092D01*
X47303831Y16215562D01*
X47297426Y16216066D01*
X47297421Y16216067D01*
X47268958Y16218307D01*
X47268950Y16218307D01*
X47266502Y16218500D01*
X47209500Y16218500D01*
X47141379Y16238502D01*
X47094886Y16292158D01*
X47083500Y16344500D01*
X47083500Y16834317D01*
X47103502Y16902438D01*
X47124855Y16926016D01*
X47124348Y16926522D01*
X47149984Y16952203D01*
X47249305Y17051697D01*
X47252102Y17056235D01*
X47309353Y17096824D01*
X47380276Y17100054D01*
X47441687Y17064428D01*
X47449062Y17055932D01*
X47457098Y17045793D01*
X47571829Y16931261D01*
X47583240Y16922249D01*
X47721243Y16837184D01*
X47734424Y16831037D01*
X47888710Y16779862D01*
X47902086Y16776995D01*
X47996438Y16767328D01*
X48002854Y16767000D01*
X48027885Y16767000D01*
X48043124Y16771475D01*
X48044329Y16772865D01*
X48046000Y16780548D01*
X48046000Y16785116D01*
X48554000Y16785116D01*
X48558475Y16769877D01*
X48559865Y16768672D01*
X48567548Y16767001D01*
X48597095Y16767001D01*
X48603614Y16767338D01*
X48699206Y16777257D01*
X48712600Y16780149D01*
X48866784Y16831588D01*
X48879962Y16837761D01*
X49017807Y16923063D01*
X49029208Y16932099D01*
X49143739Y17046829D01*
X49152751Y17058240D01*
X49237816Y17196243D01*
X49243963Y17209424D01*
X49266677Y17277904D01*
X50542000Y17277904D01*
X50542337Y17271389D01*
X50552256Y17175797D01*
X50555150Y17162398D01*
X50606588Y17008217D01*
X50612762Y16995038D01*
X50698063Y16857193D01*
X50707099Y16845792D01*
X50821830Y16731261D01*
X50833241Y16722249D01*
X50971245Y16637182D01*
X50984423Y16631038D01*
X51138716Y16579861D01*
X51152081Y16576995D01*
X51246439Y16567328D01*
X51252855Y16567000D01*
X51927885Y16567000D01*
X51943124Y16571475D01*
X51944329Y16572865D01*
X51946000Y16580548D01*
X51946000Y16585115D01*
X52454000Y16585115D01*
X52458475Y16569876D01*
X52459865Y16568671D01*
X52467548Y16567000D01*
X53147096Y16567000D01*
X53153611Y16567337D01*
X53249203Y16577256D01*
X53262602Y16580150D01*
X53416783Y16631588D01*
X53429962Y16637762D01*
X53567807Y16723063D01*
X53579208Y16732099D01*
X53693739Y16846830D01*
X53702751Y16858241D01*
X53787818Y16996245D01*
X53793962Y17009423D01*
X53845139Y17163716D01*
X53848005Y17177081D01*
X53857672Y17271439D01*
X53858000Y17277855D01*
X53858000Y17952885D01*
X53853525Y17968124D01*
X53852135Y17969329D01*
X53844452Y17971000D01*
X52472115Y17971000D01*
X52456876Y17966525D01*
X52455671Y17965135D01*
X52454000Y17957452D01*
X52454000Y16585115D01*
X51946000Y16585115D01*
X51946000Y17952885D01*
X51941525Y17968124D01*
X51940135Y17969329D01*
X51932452Y17971000D01*
X50560115Y17971000D01*
X50544876Y17966525D01*
X50543671Y17965135D01*
X50542000Y17957452D01*
X50542000Y17277904D01*
X49266677Y17277904D01*
X49295138Y17363710D01*
X49298005Y17377086D01*
X49307672Y17471438D01*
X49308000Y17477854D01*
X49308000Y17727885D01*
X49303525Y17743124D01*
X49302135Y17744329D01*
X49294452Y17746000D01*
X48572115Y17746000D01*
X48556876Y17741525D01*
X48555671Y17740135D01*
X48554000Y17732452D01*
X48554000Y16785116D01*
X48046000Y16785116D01*
X48046000Y18272115D01*
X48554000Y18272115D01*
X48558475Y18256876D01*
X48559865Y18255671D01*
X48567548Y18254000D01*
X49289884Y18254000D01*
X49305123Y18258475D01*
X49306328Y18259865D01*
X49307999Y18267548D01*
X49307999Y18497115D01*
X50542000Y18497115D01*
X50546475Y18481876D01*
X50547865Y18480671D01*
X50555548Y18479000D01*
X51927885Y18479000D01*
X51943124Y18483475D01*
X51944329Y18484865D01*
X51946000Y18492548D01*
X51946000Y18497115D01*
X52454000Y18497115D01*
X52458475Y18481876D01*
X52459865Y18480671D01*
X52467548Y18479000D01*
X53839885Y18479000D01*
X53855124Y18483475D01*
X53856329Y18484865D01*
X53858000Y18492548D01*
X53858000Y19172096D01*
X53857663Y19178611D01*
X53847744Y19274203D01*
X53844850Y19287602D01*
X53793412Y19441783D01*
X53787238Y19454962D01*
X53701937Y19592807D01*
X53692901Y19604208D01*
X53578170Y19718739D01*
X53566759Y19727751D01*
X53428755Y19812818D01*
X53415577Y19818962D01*
X53261284Y19870139D01*
X53247919Y19873005D01*
X53153561Y19882672D01*
X53147144Y19883000D01*
X52472115Y19883000D01*
X52456876Y19878525D01*
X52455671Y19877135D01*
X52454000Y19869452D01*
X52454000Y18497115D01*
X51946000Y18497115D01*
X51946000Y19864885D01*
X51941525Y19880124D01*
X51940135Y19881329D01*
X51932452Y19883000D01*
X51252904Y19883000D01*
X51246389Y19882663D01*
X51150797Y19872744D01*
X51137398Y19869850D01*
X50983217Y19818412D01*
X50970038Y19812238D01*
X50832193Y19726937D01*
X50820792Y19717901D01*
X50706261Y19603170D01*
X50697249Y19591759D01*
X50612182Y19453755D01*
X50606038Y19440577D01*
X50554861Y19286284D01*
X50551995Y19272919D01*
X50542328Y19178561D01*
X50542000Y19172144D01*
X50542000Y18497115D01*
X49307999Y18497115D01*
X49307999Y18522095D01*
X49307662Y18528614D01*
X49297743Y18624206D01*
X49294851Y18637600D01*
X49243412Y18791784D01*
X49237239Y18804962D01*
X49151937Y18942807D01*
X49142901Y18954208D01*
X49028171Y19068739D01*
X49016760Y19077751D01*
X48878757Y19162816D01*
X48865576Y19168963D01*
X48711290Y19220138D01*
X48697914Y19223005D01*
X48603562Y19232672D01*
X48597145Y19233000D01*
X48572115Y19233000D01*
X48556876Y19228525D01*
X48555671Y19227135D01*
X48554000Y19219452D01*
X48554000Y18272115D01*
X48046000Y18272115D01*
X48046000Y19214884D01*
X48041525Y19230123D01*
X48040135Y19231328D01*
X48032452Y19232999D01*
X48002905Y19232999D01*
X47996386Y19232662D01*
X47900794Y19222743D01*
X47887400Y19219851D01*
X47733216Y19168412D01*
X47720038Y19162239D01*
X47582193Y19076937D01*
X47570792Y19067901D01*
X47456262Y18953172D01*
X47449206Y18944238D01*
X47391288Y18903177D01*
X47320365Y18899947D01*
X47258954Y18935574D01*
X47252154Y18943407D01*
X47248478Y18949348D01*
X47145482Y19052165D01*
X47111403Y19114448D01*
X47108500Y19141338D01*
X47108500Y20565500D01*
X47128502Y20633621D01*
X47182158Y20680114D01*
X47234500Y20691500D01*
X52979340Y20691500D01*
X53047461Y20671498D01*
X53068435Y20654595D01*
X54804595Y18918435D01*
X54838621Y18856123D01*
X54841500Y18829340D01*
X54841500Y17274600D01*
X54841837Y17271354D01*
X54841837Y17271350D01*
X54851752Y17175797D01*
X54852474Y17168835D01*
X54854655Y17162299D01*
X54854655Y17162297D01*
X54890198Y17055762D01*
X54908450Y17001055D01*
X55001522Y16850652D01*
X55126697Y16725695D01*
X55132927Y16721855D01*
X55132928Y16721854D01*
X55270090Y16637306D01*
X55277262Y16632885D01*
X55353473Y16607607D01*
X55438611Y16579368D01*
X55438613Y16579368D01*
X55445139Y16577203D01*
X55451977Y16576502D01*
X55451979Y16576502D01*
X55478342Y16573801D01*
X55544070Y16546960D01*
X55584852Y16488845D01*
X55591500Y16448457D01*
X55591500Y13581417D01*
X55589949Y13561708D01*
X55587748Y13547810D01*
X55588093Y13541223D01*
X55588093Y13541218D01*
X55591327Y13479520D01*
X55591500Y13472926D01*
X55591500Y13452390D01*
X55591844Y13449118D01*
X55591844Y13449116D01*
X55593647Y13431958D01*
X55594164Y13425384D01*
X55595439Y13401067D01*
X55597743Y13357097D01*
X55599453Y13350716D01*
X55599453Y13350714D01*
X55601383Y13343509D01*
X55604985Y13324075D01*
X55605766Y13316646D01*
X55605768Y13316637D01*
X55606458Y13310072D01*
X55627600Y13245003D01*
X55629467Y13238701D01*
X55647171Y13172630D01*
X55653333Y13160536D01*
X55653559Y13160093D01*
X55661125Y13141827D01*
X55665473Y13128444D01*
X55668776Y13122722D01*
X55668777Y13122721D01*
X55699667Y13069218D01*
X55702814Y13063423D01*
X55733871Y13002470D01*
X55738024Y12997342D01*
X55738025Y12997340D01*
X55742727Y12991534D01*
X55753927Y12975237D01*
X55757657Y12968776D01*
X55757660Y12968772D01*
X55760960Y12963056D01*
X55765377Y12958150D01*
X55765381Y12958145D01*
X55806722Y12912231D01*
X55811006Y12907216D01*
X55823928Y12891259D01*
X55838443Y12876744D01*
X55842984Y12871959D01*
X55888747Y12821134D01*
X55894086Y12817255D01*
X55894087Y12817254D01*
X55900135Y12812860D01*
X55915168Y12800019D01*
X60754595Y7960592D01*
X60788621Y7898280D01*
X60791500Y7871497D01*
X60791500Y5951450D01*
X60771498Y5883329D01*
X60717842Y5836836D01*
X60678504Y5826123D01*
X60672220Y5825471D01*
X60650694Y5823238D01*
X60650691Y5823237D01*
X60643835Y5822526D01*
X60637299Y5820345D01*
X60637297Y5820345D01*
X60620932Y5814885D01*
X60476055Y5766550D01*
X60325652Y5673478D01*
X60320479Y5668296D01*
X60312348Y5660151D01*
X60200695Y5548303D01*
X60196855Y5542073D01*
X60196854Y5542072D01*
X60127523Y5429596D01*
X60107885Y5397738D01*
X60105581Y5390791D01*
X60054771Y5237602D01*
X60052203Y5229861D01*
X60051503Y5223025D01*
X60051502Y5223022D01*
X60051469Y5222699D01*
X60041500Y5125400D01*
X60041500Y3224600D01*
X60041837Y3221354D01*
X60041837Y3221350D01*
X60051752Y3125797D01*
X60052474Y3118835D01*
X60054655Y3112299D01*
X60054655Y3112297D01*
X60082651Y3028384D01*
X60108450Y2951055D01*
X60201522Y2800652D01*
X60326697Y2675695D01*
X60332927Y2671855D01*
X60332928Y2671854D01*
X60470090Y2587306D01*
X60477262Y2582885D01*
X60556669Y2556547D01*
X60638611Y2529368D01*
X60638613Y2529368D01*
X60645139Y2527203D01*
X60651975Y2526503D01*
X60651978Y2526502D01*
X60695031Y2522091D01*
X60749600Y2516500D01*
X62650400Y2516500D01*
X62653646Y2516837D01*
X62653650Y2516837D01*
X62749307Y2526762D01*
X62749311Y2526763D01*
X62756165Y2527474D01*
X62762701Y2529655D01*
X62762703Y2529655D01*
X62894805Y2573728D01*
X62923945Y2583450D01*
X63074348Y2676522D01*
X63199305Y2801697D01*
X63211540Y2821546D01*
X63288275Y2946032D01*
X63288276Y2946034D01*
X63292115Y2952262D01*
X63319057Y3033489D01*
X63345632Y3113611D01*
X63345632Y3113613D01*
X63347797Y3120139D01*
X63348509Y3127081D01*
X63352909Y3170031D01*
X63358500Y3224600D01*
X63358500Y3227904D01*
X64342000Y3227904D01*
X64342337Y3221389D01*
X64352256Y3125797D01*
X64355150Y3112398D01*
X64406588Y2958217D01*
X64412762Y2945038D01*
X64498063Y2807193D01*
X64507099Y2795792D01*
X64621830Y2681261D01*
X64633241Y2672249D01*
X64771245Y2587182D01*
X64784423Y2581038D01*
X64938716Y2529861D01*
X64952081Y2526995D01*
X65046439Y2517328D01*
X65052855Y2517000D01*
X65727885Y2517000D01*
X65743124Y2521475D01*
X65744329Y2522865D01*
X65746000Y2530548D01*
X65746000Y2535115D01*
X66254000Y2535115D01*
X66258475Y2519876D01*
X66259865Y2518671D01*
X66267548Y2517000D01*
X66947096Y2517000D01*
X66953611Y2517337D01*
X67049203Y2527256D01*
X67062602Y2530150D01*
X67216783Y2581588D01*
X67229962Y2587762D01*
X67367807Y2673063D01*
X67379208Y2682099D01*
X67493739Y2796830D01*
X67502751Y2808241D01*
X67587818Y2946245D01*
X67593962Y2959423D01*
X67645139Y3113716D01*
X67648005Y3127081D01*
X67657672Y3221439D01*
X67658000Y3227855D01*
X67658000Y3902885D01*
X67653525Y3918124D01*
X67652135Y3919329D01*
X67644452Y3921000D01*
X66272115Y3921000D01*
X66256876Y3916525D01*
X66255671Y3915135D01*
X66254000Y3907452D01*
X66254000Y2535115D01*
X65746000Y2535115D01*
X65746000Y3902885D01*
X65741525Y3918124D01*
X65740135Y3919329D01*
X65732452Y3921000D01*
X64360115Y3921000D01*
X64344876Y3916525D01*
X64343671Y3915135D01*
X64342000Y3907452D01*
X64342000Y3227904D01*
X63358500Y3227904D01*
X63358500Y4447115D01*
X64342000Y4447115D01*
X64346475Y4431876D01*
X64347865Y4430671D01*
X64355548Y4429000D01*
X65727885Y4429000D01*
X65743124Y4433475D01*
X65744329Y4434865D01*
X65746000Y4442548D01*
X65746000Y4447115D01*
X66254000Y4447115D01*
X66258475Y4431876D01*
X66259865Y4430671D01*
X66267548Y4429000D01*
X67639885Y4429000D01*
X67655124Y4433475D01*
X67656329Y4434865D01*
X67658000Y4442548D01*
X67658000Y5122096D01*
X67657663Y5128611D01*
X67647744Y5224203D01*
X67644850Y5237602D01*
X67593412Y5391783D01*
X67587238Y5404962D01*
X67501937Y5542807D01*
X67492901Y5554208D01*
X67378170Y5668739D01*
X67366759Y5677751D01*
X67228755Y5762818D01*
X67215577Y5768962D01*
X67061284Y5820139D01*
X67047919Y5823005D01*
X66953561Y5832672D01*
X66947144Y5833000D01*
X66272115Y5833000D01*
X66256876Y5828525D01*
X66255671Y5827135D01*
X66254000Y5819452D01*
X66254000Y4447115D01*
X65746000Y4447115D01*
X65746000Y5814885D01*
X65741525Y5830124D01*
X65740135Y5831329D01*
X65732452Y5833000D01*
X65052904Y5833000D01*
X65046389Y5832663D01*
X64950797Y5822744D01*
X64937398Y5819850D01*
X64783217Y5768412D01*
X64770038Y5762238D01*
X64632193Y5676937D01*
X64620792Y5667901D01*
X64506261Y5553170D01*
X64497249Y5541759D01*
X64412182Y5403755D01*
X64406038Y5390577D01*
X64354861Y5236284D01*
X64351995Y5222919D01*
X64342328Y5128561D01*
X64342000Y5122144D01*
X64342000Y4447115D01*
X63358500Y4447115D01*
X63358500Y5125400D01*
X63353886Y5169868D01*
X63348238Y5224307D01*
X63348237Y5224311D01*
X63347526Y5231165D01*
X63333300Y5273807D01*
X63293868Y5391997D01*
X63291550Y5398945D01*
X63198478Y5549348D01*
X63073303Y5674305D01*
X62990766Y5725182D01*
X62928968Y5763275D01*
X62928966Y5763276D01*
X62922738Y5767115D01*
X62842995Y5793564D01*
X62761389Y5820632D01*
X62761387Y5820632D01*
X62754861Y5822797D01*
X62748023Y5823498D01*
X62748021Y5823498D01*
X62721658Y5826199D01*
X62655930Y5853040D01*
X62615148Y5911155D01*
X62608500Y5951543D01*
X62608500Y8218583D01*
X62610051Y8238293D01*
X62611220Y8245673D01*
X62611220Y8245674D01*
X62612252Y8252190D01*
X62610996Y8276170D01*
X62608673Y8320480D01*
X62608500Y8327074D01*
X62608500Y8347610D01*
X62608156Y8350884D01*
X62606353Y8368042D01*
X62605836Y8374616D01*
X62602603Y8436304D01*
X62602603Y8436306D01*
X62602257Y8442903D01*
X62598615Y8456496D01*
X62595014Y8475925D01*
X62594232Y8483361D01*
X62593542Y8489928D01*
X62589679Y8501819D01*
X62572409Y8554969D01*
X62570535Y8561294D01*
X62554538Y8620997D01*
X62554537Y8621000D01*
X62552830Y8627370D01*
X62546438Y8639915D01*
X62538874Y8658177D01*
X62536568Y8665274D01*
X62534527Y8671556D01*
X62500336Y8730777D01*
X62497188Y8736574D01*
X62469126Y8791649D01*
X62469124Y8791652D01*
X62466129Y8797530D01*
X62457273Y8808467D01*
X62446073Y8824763D01*
X62442343Y8831224D01*
X62442340Y8831228D01*
X62439040Y8836944D01*
X62434623Y8841850D01*
X62434619Y8841855D01*
X62393278Y8887769D01*
X62388994Y8892784D01*
X62378148Y8906177D01*
X62376072Y8908741D01*
X62361557Y8923256D01*
X62357016Y8928041D01*
X62315673Y8973957D01*
X62311253Y8978866D01*
X62299865Y8987140D01*
X62284832Y8999981D01*
X57445405Y13839408D01*
X57411379Y13901720D01*
X57408500Y13928503D01*
X57408500Y16448550D01*
X57428502Y16516671D01*
X57482158Y16563164D01*
X57521496Y16573877D01*
X57527780Y16574529D01*
X57549306Y16576762D01*
X57549309Y16576763D01*
X57556165Y16577474D01*
X57562701Y16579655D01*
X57562703Y16579655D01*
X57694805Y16623728D01*
X57723945Y16633450D01*
X57874348Y16726522D01*
X57884390Y16736581D01*
X57994134Y16846517D01*
X57999305Y16851697D01*
X58029730Y16901055D01*
X58088275Y16996032D01*
X58088276Y16996034D01*
X58092115Y17002262D01*
X58128746Y17112702D01*
X58145632Y17163611D01*
X58145632Y17163613D01*
X58147797Y17170139D01*
X58148509Y17177081D01*
X58158172Y17271402D01*
X58158500Y17274600D01*
X58158500Y17931585D01*
X59786888Y17931585D01*
X59813193Y17655870D01*
X59814278Y17651436D01*
X59814279Y17651430D01*
X59859769Y17465529D01*
X59879024Y17386841D01*
X59880736Y17382615D01*
X59880737Y17382611D01*
X59969594Y17163235D01*
X59983002Y17130132D01*
X60122948Y16891122D01*
X60211696Y16780149D01*
X60281043Y16693435D01*
X60295931Y16674818D01*
X60498327Y16485750D01*
X60725896Y16327880D01*
X60797700Y16292158D01*
X60969784Y16206547D01*
X60969787Y16206546D01*
X60973871Y16204514D01*
X60978210Y16203092D01*
X60978209Y16203092D01*
X61232724Y16119657D01*
X61232730Y16119656D01*
X61237057Y16118237D01*
X61241548Y16117457D01*
X61241549Y16117457D01*
X61506160Y16071513D01*
X61506168Y16071512D01*
X61509941Y16070857D01*
X61513778Y16070666D01*
X61595887Y16066578D01*
X61595895Y16066578D01*
X61597458Y16066500D01*
X61770356Y16066500D01*
X61772624Y16066665D01*
X61772636Y16066665D01*
X61891791Y16075311D01*
X61976241Y16081439D01*
X62142916Y16118237D01*
X62242235Y16140164D01*
X62242239Y16140165D01*
X62246695Y16141149D01*
X62419310Y16206547D01*
X62501426Y16237658D01*
X62501429Y16237659D01*
X62505696Y16239276D01*
X62747820Y16373764D01*
X62967993Y16541795D01*
X62999356Y16573877D01*
X63116231Y16693435D01*
X63161604Y16739849D01*
X63297110Y16926016D01*
X63321909Y16960086D01*
X63321911Y16960089D01*
X63324596Y16963778D01*
X63453556Y17208890D01*
X63455640Y17214789D01*
X63544261Y17465744D01*
X63545782Y17470051D01*
X63599341Y17741790D01*
X63601500Y17785151D01*
X63608790Y17931585D01*
X64086888Y17931585D01*
X64113193Y17655870D01*
X64114278Y17651436D01*
X64114279Y17651430D01*
X64159769Y17465529D01*
X64179024Y17386841D01*
X64180736Y17382615D01*
X64180737Y17382611D01*
X64269594Y17163235D01*
X64283002Y17130132D01*
X64422948Y16891122D01*
X64511696Y16780149D01*
X64581043Y16693435D01*
X64595931Y16674818D01*
X64798327Y16485750D01*
X65025896Y16327880D01*
X65097700Y16292158D01*
X65269784Y16206547D01*
X65269787Y16206546D01*
X65273871Y16204514D01*
X65278210Y16203092D01*
X65278209Y16203092D01*
X65532724Y16119657D01*
X65532730Y16119656D01*
X65537057Y16118237D01*
X65541548Y16117457D01*
X65541549Y16117457D01*
X65806160Y16071513D01*
X65806168Y16071512D01*
X65809941Y16070857D01*
X65813778Y16070666D01*
X65895887Y16066578D01*
X65895895Y16066578D01*
X65897458Y16066500D01*
X66070356Y16066500D01*
X66072624Y16066665D01*
X66072636Y16066665D01*
X66191791Y16075311D01*
X66276241Y16081439D01*
X66442916Y16118237D01*
X66542235Y16140164D01*
X66542239Y16140165D01*
X66546695Y16141149D01*
X66719310Y16206547D01*
X66801426Y16237658D01*
X66801429Y16237659D01*
X66805696Y16239276D01*
X67047820Y16373764D01*
X67267993Y16541795D01*
X67299356Y16573877D01*
X67416231Y16693435D01*
X67461604Y16739849D01*
X67597110Y16926016D01*
X67621909Y16960086D01*
X67621911Y16960089D01*
X67624596Y16963778D01*
X67753556Y17208890D01*
X67755640Y17214789D01*
X67844261Y17465744D01*
X67845782Y17470051D01*
X67899341Y17741790D01*
X67901500Y17785151D01*
X67912885Y18013846D01*
X67912885Y18013852D01*
X67913112Y18018415D01*
X67886807Y18294130D01*
X67883830Y18306299D01*
X67822061Y18558725D01*
X67820976Y18563159D01*
X67796250Y18624206D01*
X67718711Y18815639D01*
X67718711Y18815640D01*
X67716998Y18819868D01*
X67577052Y19058878D01*
X67452291Y19214884D01*
X67406921Y19271616D01*
X67406920Y19271618D01*
X67404069Y19275182D01*
X67201673Y19464250D01*
X66974104Y19622120D01*
X66792751Y19712342D01*
X66730216Y19743453D01*
X66730213Y19743454D01*
X66726129Y19745486D01*
X66643644Y19772526D01*
X66467276Y19830343D01*
X66467270Y19830344D01*
X66462943Y19831763D01*
X66442480Y19835316D01*
X66193840Y19878487D01*
X66193832Y19878488D01*
X66190059Y19879143D01*
X66177996Y19879744D01*
X66104113Y19883422D01*
X66104105Y19883422D01*
X66102542Y19883500D01*
X65929644Y19883500D01*
X65927376Y19883335D01*
X65927364Y19883335D01*
X65808209Y19874689D01*
X65723759Y19868561D01*
X65606691Y19842715D01*
X65457765Y19809836D01*
X65457761Y19809835D01*
X65453305Y19808851D01*
X65350013Y19769717D01*
X65198574Y19712342D01*
X65198571Y19712341D01*
X65194304Y19710724D01*
X65038440Y19624149D01*
X64984754Y19594329D01*
X64952180Y19576236D01*
X64948548Y19573464D01*
X64770262Y19437400D01*
X64732007Y19408205D01*
X64728814Y19404939D01*
X64728812Y19404937D01*
X64678987Y19353968D01*
X64538396Y19210151D01*
X64465499Y19110000D01*
X64384855Y18999206D01*
X64375404Y18986222D01*
X64246444Y18741110D01*
X64244926Y18736812D01*
X64244924Y18736807D01*
X64185096Y18567389D01*
X64154218Y18479949D01*
X64100659Y18208210D01*
X64100432Y18203653D01*
X64100432Y18203652D01*
X64088176Y17957452D01*
X64086888Y17931585D01*
X63608790Y17931585D01*
X63612885Y18013846D01*
X63612885Y18013852D01*
X63613112Y18018415D01*
X63586807Y18294130D01*
X63583830Y18306299D01*
X63522061Y18558725D01*
X63520976Y18563159D01*
X63496250Y18624206D01*
X63418711Y18815639D01*
X63418711Y18815640D01*
X63416998Y18819868D01*
X63277052Y19058878D01*
X63152291Y19214884D01*
X63106921Y19271616D01*
X63106920Y19271618D01*
X63104069Y19275182D01*
X62901673Y19464250D01*
X62674104Y19622120D01*
X62492751Y19712342D01*
X62430216Y19743453D01*
X62430213Y19743454D01*
X62426129Y19745486D01*
X62343644Y19772526D01*
X62167276Y19830343D01*
X62167270Y19830344D01*
X62162943Y19831763D01*
X62142480Y19835316D01*
X61893840Y19878487D01*
X61893832Y19878488D01*
X61890059Y19879143D01*
X61877996Y19879744D01*
X61804113Y19883422D01*
X61804105Y19883422D01*
X61802542Y19883500D01*
X61629644Y19883500D01*
X61627376Y19883335D01*
X61627364Y19883335D01*
X61508209Y19874689D01*
X61423759Y19868561D01*
X61306691Y19842715D01*
X61157765Y19809836D01*
X61157761Y19809835D01*
X61153305Y19808851D01*
X61050013Y19769717D01*
X60898574Y19712342D01*
X60898571Y19712341D01*
X60894304Y19710724D01*
X60738440Y19624149D01*
X60684754Y19594329D01*
X60652180Y19576236D01*
X60648548Y19573464D01*
X60470262Y19437400D01*
X60432007Y19408205D01*
X60428814Y19404939D01*
X60428812Y19404937D01*
X60378987Y19353968D01*
X60238396Y19210151D01*
X60165499Y19110000D01*
X60084855Y18999206D01*
X60075404Y18986222D01*
X59946444Y18741110D01*
X59944926Y18736812D01*
X59944924Y18736807D01*
X59885096Y18567389D01*
X59854218Y18479949D01*
X59800659Y18208210D01*
X59800432Y18203653D01*
X59800432Y18203652D01*
X59788176Y17957452D01*
X59786888Y17931585D01*
X58158500Y17931585D01*
X58158500Y19175400D01*
X58157360Y19186389D01*
X58148238Y19274307D01*
X58148237Y19274311D01*
X58147526Y19281165D01*
X58136180Y19315175D01*
X58093868Y19441997D01*
X58091550Y19448945D01*
X57998478Y19599348D01*
X57978658Y19619134D01*
X57881072Y19716550D01*
X57873303Y19724305D01*
X57867072Y19728146D01*
X57728968Y19813275D01*
X57728966Y19813276D01*
X57722738Y19817115D01*
X57642995Y19843564D01*
X57561389Y19870632D01*
X57561387Y19870632D01*
X57554861Y19872797D01*
X57548025Y19873497D01*
X57548022Y19873498D01*
X57504969Y19877909D01*
X57450400Y19883500D01*
X55895660Y19883500D01*
X55827539Y19903502D01*
X55806565Y19920405D01*
X53846450Y21880520D01*
X53840596Y21886785D01*
X53840201Y21887238D01*
X53802561Y21930385D01*
X53750280Y21967129D01*
X53744986Y21971061D01*
X53700693Y22005791D01*
X53694718Y22010476D01*
X53687802Y22013599D01*
X53685516Y22014983D01*
X53670835Y22023357D01*
X53668475Y22024622D01*
X53662261Y22028990D01*
X53655182Y22031750D01*
X53655180Y22031751D01*
X53602725Y22052202D01*
X53596656Y22054753D01*
X53538427Y22081045D01*
X53530960Y22082429D01*
X53528405Y22083230D01*
X53512152Y22087859D01*
X53509572Y22088522D01*
X53502491Y22091282D01*
X53494960Y22092273D01*
X53494958Y22092274D01*
X53465339Y22096173D01*
X53439139Y22099622D01*
X53432641Y22100652D01*
X53369814Y22112296D01*
X53362234Y22111859D01*
X53362233Y22111859D01*
X53307608Y22108709D01*
X53300354Y22108500D01*
X46945661Y22108500D01*
X46877540Y22128502D01*
X46856566Y22145405D01*
X45798794Y23203177D01*
X44725565Y24276405D01*
X44691540Y24338717D01*
X44696604Y24409532D01*
X44739151Y24466368D01*
X44805671Y24491179D01*
X44814660Y24491500D01*
X69365500Y24491500D01*
X69433621Y24471498D01*
X69480114Y24417842D01*
X69491500Y24365500D01*
X69491500Y634500D01*
X69471498Y566379D01*
X69417842Y519886D01*
X69365500Y508500D01*
X634500Y508500D01*
X566379Y528502D01*
X519886Y582158D01*
X508500Y634500D01*
X508500Y17931585D01*
X986888Y17931585D01*
X1013193Y17655870D01*
X1014278Y17651436D01*
X1014279Y17651430D01*
X1059769Y17465529D01*
X1079024Y17386841D01*
X1080736Y17382615D01*
X1080737Y17382611D01*
X1169594Y17163235D01*
X1183002Y17130132D01*
X1322948Y16891122D01*
X1411696Y16780149D01*
X1481043Y16693435D01*
X1495931Y16674818D01*
X1698327Y16485750D01*
X1925896Y16327880D01*
X1997700Y16292158D01*
X2169784Y16206547D01*
X2169787Y16206546D01*
X2173871Y16204514D01*
X2178210Y16203092D01*
X2178209Y16203092D01*
X2432724Y16119657D01*
X2432730Y16119656D01*
X2437057Y16118237D01*
X2441548Y16117457D01*
X2441549Y16117457D01*
X2706160Y16071513D01*
X2706168Y16071512D01*
X2709941Y16070857D01*
X2713778Y16070666D01*
X2795887Y16066578D01*
X2795895Y16066578D01*
X2797458Y16066500D01*
X2970356Y16066500D01*
X2972624Y16066665D01*
X2972636Y16066665D01*
X3091791Y16075311D01*
X3176241Y16081439D01*
X3342916Y16118237D01*
X3442235Y16140164D01*
X3442239Y16140165D01*
X3446695Y16141149D01*
X3619310Y16206547D01*
X3701426Y16237658D01*
X3701429Y16237659D01*
X3705696Y16239276D01*
X3947820Y16373764D01*
X4167993Y16541795D01*
X4199356Y16573877D01*
X4316231Y16693435D01*
X4361604Y16739849D01*
X4497110Y16926016D01*
X4521909Y16960086D01*
X4521911Y16960089D01*
X4524596Y16963778D01*
X4653556Y17208890D01*
X4655640Y17214789D01*
X4744261Y17465744D01*
X4745782Y17470051D01*
X4799341Y17741790D01*
X4801500Y17785151D01*
X4812885Y18013846D01*
X4812885Y18013852D01*
X4813112Y18018415D01*
X4786807Y18294130D01*
X4783830Y18306299D01*
X4722061Y18558725D01*
X4720976Y18563159D01*
X4696250Y18624206D01*
X4618711Y18815639D01*
X4618711Y18815640D01*
X4616998Y18819868D01*
X4477052Y19058878D01*
X4352291Y19214884D01*
X4306921Y19271616D01*
X4306920Y19271618D01*
X4304069Y19275182D01*
X4101673Y19464250D01*
X3874104Y19622120D01*
X3692751Y19712342D01*
X3630216Y19743453D01*
X3630213Y19743454D01*
X3626129Y19745486D01*
X3543644Y19772526D01*
X3367276Y19830343D01*
X3367270Y19830344D01*
X3362943Y19831763D01*
X3342480Y19835316D01*
X3093840Y19878487D01*
X3093832Y19878488D01*
X3090059Y19879143D01*
X3077996Y19879744D01*
X3004113Y19883422D01*
X3004105Y19883422D01*
X3002542Y19883500D01*
X2829644Y19883500D01*
X2827376Y19883335D01*
X2827364Y19883335D01*
X2708209Y19874689D01*
X2623759Y19868561D01*
X2506691Y19842715D01*
X2357765Y19809836D01*
X2357761Y19809835D01*
X2353305Y19808851D01*
X2250013Y19769717D01*
X2098574Y19712342D01*
X2098571Y19712341D01*
X2094304Y19710724D01*
X1938440Y19624149D01*
X1884754Y19594329D01*
X1852180Y19576236D01*
X1848548Y19573464D01*
X1670262Y19437400D01*
X1632007Y19408205D01*
X1628814Y19404939D01*
X1628812Y19404937D01*
X1578987Y19353968D01*
X1438396Y19210151D01*
X1365499Y19110000D01*
X1284855Y18999206D01*
X1275404Y18986222D01*
X1146444Y18741110D01*
X1144926Y18736812D01*
X1144924Y18736807D01*
X1085096Y18567389D01*
X1054218Y18479949D01*
X1000659Y18208210D01*
X1000432Y18203653D01*
X1000432Y18203652D01*
X988176Y17957452D01*
X986888Y17931585D01*
X508500Y17931585D01*
X508500Y24365500D01*
X528502Y24433621D01*
X582158Y24480114D01*
X634500Y24491500D01*
X30685340Y24491500D01*
X30753461Y24471498D01*
G37*
%TD.AperFunction*%
%TD*%
M02*
