%TF.GenerationSoftware,KiCad,Pcbnew,(6.0.7-1)-1*%
%TF.CreationDate,2022-11-12T09:43:49+01:00*%
%TF.ProjectId,transmitter,7472616e-736d-4697-9474-65722e6b6963,rev?*%
%TF.SameCoordinates,PX4b571c0PY82e44d0*%
%TF.FileFunction,Copper,L1,Top*%
%TF.FilePolarity,Positive*%
%FSLAX46Y46*%
G04 Gerber Fmt 4.6, Leading zero omitted, Abs format (unit mm)*
G04 Created by KiCad (PCBNEW (6.0.7-1)-1) date 2022-11-12 09:43:49*
%MOMM*%
%LPD*%
G01*
G04 APERTURE LIST*
G04 Aperture macros list*
%AMRoundRect*
0 Rectangle with rounded corners*
0 $1 Rounding radius*
0 $2 $3 $4 $5 $6 $7 $8 $9 X,Y pos of 4 corners*
0 Add a 4 corners polygon primitive as box body*
4,1,4,$2,$3,$4,$5,$6,$7,$8,$9,$2,$3,0*
0 Add four circle primitives for the rounded corners*
1,1,$1+$1,$2,$3*
1,1,$1+$1,$4,$5*
1,1,$1+$1,$6,$7*
1,1,$1+$1,$8,$9*
0 Add four rect primitives between the rounded corners*
20,1,$1+$1,$2,$3,$4,$5,0*
20,1,$1+$1,$4,$5,$6,$7,0*
20,1,$1+$1,$6,$7,$8,$9,0*
20,1,$1+$1,$8,$9,$2,$3,0*%
G04 Aperture macros list end*
%TA.AperFunction,ComponentPad*%
%ADD10C,1.600000*%
%TD*%
%TA.AperFunction,SMDPad,CuDef*%
%ADD11RoundRect,0.150000X0.825000X0.150000X-0.825000X0.150000X-0.825000X-0.150000X0.825000X-0.150000X0*%
%TD*%
%TA.AperFunction,ComponentPad*%
%ADD12O,1.600000X1.600000*%
%TD*%
%TA.AperFunction,SMDPad,CuDef*%
%ADD13RoundRect,0.150000X-0.825000X-0.150000X0.825000X-0.150000X0.825000X0.150000X-0.825000X0.150000X0*%
%TD*%
%TA.AperFunction,ComponentPad*%
%ADD14R,1.600000X1.600000*%
%TD*%
%TA.AperFunction,SMDPad,CuDef*%
%ADD15C,3.000000*%
%TD*%
%TA.AperFunction,SMDPad,CuDef*%
%ADD16RoundRect,0.250000X-0.262500X-0.450000X0.262500X-0.450000X0.262500X0.450000X-0.262500X0.450000X0*%
%TD*%
%TA.AperFunction,SMDPad,CuDef*%
%ADD17RoundRect,0.150000X-0.150000X0.587500X-0.150000X-0.587500X0.150000X-0.587500X0.150000X0.587500X0*%
%TD*%
%TA.AperFunction,ComponentPad*%
%ADD18RoundRect,0.250001X-0.899999X-0.899999X0.899999X-0.899999X0.899999X0.899999X-0.899999X0.899999X0*%
%TD*%
%TA.AperFunction,ComponentPad*%
%ADD19RoundRect,0.250001X0.899999X0.899999X-0.899999X0.899999X-0.899999X-0.899999X0.899999X-0.899999X0*%
%TD*%
%TA.AperFunction,SMDPad,CuDef*%
%ADD20RoundRect,0.250000X0.250000X0.475000X-0.250000X0.475000X-0.250000X-0.475000X0.250000X-0.475000X0*%
%TD*%
%TA.AperFunction,SMDPad,CuDef*%
%ADD21RoundRect,0.250000X0.475000X-0.250000X0.475000X0.250000X-0.475000X0.250000X-0.475000X-0.250000X0*%
%TD*%
%TA.AperFunction,SMDPad,CuDef*%
%ADD22RoundRect,0.250000X-0.250000X-0.475000X0.250000X-0.475000X0.250000X0.475000X-0.250000X0.475000X0*%
%TD*%
%TA.AperFunction,ViaPad*%
%ADD23C,1.000000*%
%TD*%
%TA.AperFunction,Conductor*%
%ADD24C,0.600000*%
%TD*%
%TA.AperFunction,Conductor*%
%ADD25C,0.400000*%
%TD*%
%TA.AperFunction,Conductor*%
%ADD26C,0.350000*%
%TD*%
G04 APERTURE END LIST*
D10*
%TO.P,C2,1*%
%TO.N,Net-(C2-Pad1)*%
X38500000Y38050000D03*
%TO.P,C2,2*%
%TO.N,GND*%
X38500000Y43050000D03*
%TD*%
D11*
%TO.P,U3,1*%
%TO.N,VCC*%
X26975000Y6440000D03*
%TO.P,U3,2*%
X26975000Y7710000D03*
%TO.P,U3,3*%
%TO.N,unconnected-(U3-Pad3)*%
X26975000Y8980000D03*
%TO.P,U3,4*%
%TO.N,/~{nlp}*%
X26975000Y10250000D03*
%TO.P,U3,5*%
%TO.N,/tx_ena*%
X26975000Y11520000D03*
%TO.P,U3,6*%
%TO.N,Net-(U1-Pad9)*%
X26975000Y12790000D03*
%TO.P,U3,7,GND*%
%TO.N,GND*%
X26975000Y14060000D03*
%TO.P,U3,8*%
%TO.N,/driver_ena*%
X22025000Y14060000D03*
%TO.P,U3,9*%
%TO.N,/tx_ena*%
X22025000Y12790000D03*
%TO.P,U3,10*%
%TO.N,Net-(U1-Pad8)*%
X22025000Y11520000D03*
%TO.P,U3,11*%
%TO.N,/driver_in*%
X22025000Y10250000D03*
%TO.P,U3,12*%
%TO.N,Net-(U1-Pad8)*%
X22025000Y8980000D03*
%TO.P,U3,13*%
%TO.N,/xor_tx*%
X22025000Y7710000D03*
%TO.P,U3,14,VCC*%
%TO.N,VCC*%
X22025000Y6440000D03*
%TD*%
D10*
%TO.P,R2,1*%
%TO.N,Net-(C2-Pad1)*%
X35310000Y39250000D03*
D12*
%TO.P,R2,2*%
%TO.N,Net-(R2-Pad2)*%
X27690000Y39250000D03*
%TD*%
D13*
%TO.P,U2,1*%
%TO.N,Net-(C2-Pad1)*%
X38525000Y36060000D03*
%TO.P,U2,2*%
%TO.N,Net-(R2-Pad2)*%
X38525000Y34790000D03*
%TO.P,U2,3*%
%TO.N,Net-(C5-Pad1)*%
X38525000Y33520000D03*
%TO.P,U2,4*%
%TO.N,Net-(U1-Pad2)*%
X38525000Y32250000D03*
%TO.P,U2,5*%
%TO.N,Net-(C4-Pad2)*%
X38525000Y30980000D03*
%TO.P,U2,6*%
%TO.N,/tx_ena*%
X38525000Y29710000D03*
%TO.P,U2,7,GND*%
%TO.N,GND*%
X38525000Y28440000D03*
%TO.P,U2,8*%
%TO.N,unconnected-(U2-Pad8)*%
X43475000Y28440000D03*
%TO.P,U2,9*%
%TO.N,Net-(U2-Pad10)*%
X43475000Y29710000D03*
%TO.P,U2,10*%
X43475000Y30980000D03*
%TO.P,U2,11*%
%TO.N,Net-(U2-Pad12)*%
X43475000Y32250000D03*
%TO.P,U2,12*%
X43475000Y33520000D03*
%TO.P,U2,13*%
%TO.N,VCC*%
X43475000Y34790000D03*
%TO.P,U2,14,VCC*%
X43475000Y36060000D03*
%TD*%
D14*
%TO.P,U1,1*%
%TO.N,Net-(R2-Pad2)*%
X28200000Y35375000D03*
D12*
%TO.P,U1,2*%
%TO.N,Net-(U1-Pad2)*%
X28200000Y32835000D03*
%TO.P,U1,3*%
%TO.N,/nlp*%
X28200000Y30295000D03*
%TO.P,U1,4*%
X28200000Y27755000D03*
%TO.P,U1,5*%
%TO.N,VCC*%
X28200000Y25215000D03*
%TO.P,U1,6*%
%TO.N,/~{nlp}*%
X28200000Y22675000D03*
%TO.P,U1,7,GND*%
%TO.N,GND*%
X28200000Y20135000D03*
%TO.P,U1,8*%
%TO.N,Net-(U1-Pad8)*%
X20580000Y20135000D03*
%TO.P,U1,9*%
%TO.N,Net-(U1-Pad9)*%
X20580000Y22675000D03*
%TO.P,U1,10*%
%TO.N,VCC*%
X20580000Y25215000D03*
%TO.P,U1,11*%
%TO.N,/xor_tx*%
X20580000Y27755000D03*
%TO.P,U1,12*%
%TO.N,/sck_tx*%
X20580000Y30295000D03*
%TO.P,U1,13*%
%TO.N,/mosi_tx*%
X20580000Y32835000D03*
%TO.P,U1,14,VCC*%
%TO.N,VCC*%
X20580000Y35375000D03*
%TD*%
D15*
%TO.P,TP1,1,1*%
%TO.N,/nlp*%
X32000000Y28750000D03*
%TD*%
D16*
%TO.P,R3,1*%
%TO.N,Net-(R2-Pad2)*%
X32587500Y33750000D03*
%TO.P,R3,2*%
%TO.N,Net-(C5-Pad1)*%
X34412500Y33750000D03*
%TD*%
%TO.P,R1,1*%
%TO.N,Net-(C4-Pad2)*%
X14587500Y25750000D03*
%TO.P,R1,2*%
%TO.N,VCC*%
X16412500Y25750000D03*
%TD*%
D17*
%TO.P,Q1,1,G*%
%TO.N,/sck_tx*%
X16450000Y30687500D03*
%TO.P,Q1,2,S*%
%TO.N,GND*%
X14550000Y30687500D03*
%TO.P,Q1,3,D*%
%TO.N,Net-(C4-Pad2)*%
X15500000Y28812500D03*
%TD*%
D18*
%TO.P,J8,1,Pin_1*%
%TO.N,/driver_ena*%
X7000000Y19725000D03*
%TD*%
%TO.P,J7,1,Pin_1*%
%TO.N,/driver_in*%
X3000000Y19725000D03*
%TD*%
D19*
%TO.P,J6,1,Pin_1*%
%TO.N,/mosi_tx*%
X11500000Y33775000D03*
%TD*%
%TO.P,J5,1,Pin_1*%
%TO.N,/sck_tx*%
X15500000Y33775000D03*
%TD*%
%TO.P,J4,1,Pin_1*%
%TO.N,GND*%
X44000000Y18775000D03*
%TD*%
D18*
%TO.P,J3,1,Pin_1*%
%TO.N,GND*%
X48000000Y4725000D03*
%TD*%
%TO.P,J2,1,Pin_1*%
%TO.N,VCC*%
X39000000Y4725000D03*
%TD*%
D19*
%TO.P,J1,1,Pin_1*%
%TO.N,VCC*%
X35000000Y18775000D03*
%TD*%
D20*
%TO.P,C6,2*%
%TO.N,GND*%
X19050000Y4250000D03*
%TO.P,C6,1*%
%TO.N,VCC*%
X20950000Y4250000D03*
%TD*%
%TO.P,C5,1*%
%TO.N,Net-(C5-Pad1)*%
X40400000Y25250000D03*
%TO.P,C5,2*%
%TO.N,GND*%
X38500000Y25250000D03*
%TD*%
%TO.P,C4,1*%
%TO.N,VCC*%
X16450000Y23750000D03*
%TO.P,C4,2*%
%TO.N,Net-(C4-Pad2)*%
X14550000Y23750000D03*
%TD*%
D21*
%TO.P,C3,1*%
%TO.N,VCC*%
X20500000Y38350000D03*
%TO.P,C3,2*%
%TO.N,GND*%
X20500000Y40250000D03*
%TD*%
D22*
%TO.P,C1,1*%
%TO.N,VCC*%
X44050000Y38250000D03*
%TO.P,C1,2*%
%TO.N,GND*%
X45950000Y38250000D03*
%TD*%
D23*
%TO.N,GND*%
X41600000Y8750000D03*
X36700000Y8750000D03*
X36500000Y25250000D03*
X31000000Y25250000D03*
%TO.N,Net-(U1-Pad9)*%
X19000000Y16950000D03*
X29600000Y17050000D03*
%TO.N,/tx_ena*%
X29500000Y11450000D03*
X19200000Y11350000D03*
%TD*%
D24*
%TO.N,VCC*%
X39000000Y4725000D02*
X39000000Y4250000D01*
X37400000Y2650000D02*
X22550000Y2650000D01*
X39000000Y4250000D02*
X37400000Y2650000D01*
X22550000Y2650000D02*
X20950000Y4250000D01*
X20950000Y4250000D02*
X20950000Y5365000D01*
X20950000Y5365000D02*
X22025000Y6440000D01*
D25*
%TO.N,GND*%
X44000000Y11150000D02*
X41600000Y8750000D01*
X44000000Y18775000D02*
X44000000Y11150000D01*
%TO.N,/tx_ena*%
X29500000Y11450000D02*
X31150000Y13100000D01*
X31150000Y22900000D02*
X37960000Y29710000D01*
X31150000Y13100000D02*
X31150000Y22900000D01*
X37960000Y29710000D02*
X38525000Y29710000D01*
%TO.N,GND*%
X38500000Y25250000D02*
X36500000Y25250000D01*
%TO.N,Net-(C2-Pad1)*%
X35310000Y39250000D02*
X37300000Y39250000D01*
X37300000Y39250000D02*
X38500000Y38050000D01*
X38500000Y38050000D02*
X38500000Y36085000D01*
X38500000Y36085000D02*
X38525000Y36060000D01*
%TO.N,/tx_ena*%
X20640000Y12790000D02*
X19200000Y11350000D01*
X22025000Y12790000D02*
X20640000Y12790000D01*
%TO.N,Net-(U1-Pad9)*%
X29600000Y17050000D02*
X29600000Y13750000D01*
X29600000Y13750000D02*
X28640000Y12790000D01*
X28640000Y12790000D02*
X26975000Y12790000D01*
X20580000Y22675000D02*
X19000000Y21095000D01*
X19000000Y21095000D02*
X19000000Y16950000D01*
%TO.N,/tx_ena*%
X29430000Y11520000D02*
X29500000Y11450000D01*
X26975000Y11520000D02*
X29430000Y11520000D01*
D24*
%TO.N,VCC*%
X35000000Y18775000D02*
X36700001Y20475001D01*
X36700001Y20475001D02*
X38475001Y20475001D01*
X38475001Y20475001D02*
X46000000Y28000000D01*
X44990000Y36060000D02*
X43475000Y36060000D01*
X46000000Y35050000D02*
X44990000Y36060000D01*
X46000000Y28000000D02*
X46000000Y35050000D01*
D25*
%TO.N,Net-(U2-Pad12)*%
X43475000Y32250000D02*
X43475000Y33520000D01*
%TO.N,Net-(U2-Pad10)*%
X43475000Y29710000D02*
X43475000Y30980000D01*
%TO.N,Net-(C5-Pad1)*%
X34412500Y33750000D02*
X36400000Y33750000D01*
X36400000Y33750000D02*
X36630000Y33520000D01*
X36630000Y33520000D02*
X38525000Y33520000D01*
X38525000Y33520000D02*
X39630000Y33520000D01*
X39630000Y33520000D02*
X40400000Y32750000D01*
X40400000Y32750000D02*
X40400000Y25250000D01*
D26*
%TO.N,/nlp*%
X28200000Y27755000D02*
X31005000Y27755000D01*
X31005000Y27755000D02*
X32000000Y28750000D01*
%TO.N,Net-(C4-Pad2)*%
X38525000Y30980000D02*
X36570000Y30980000D01*
X25300000Y31550000D02*
X22800000Y29050000D01*
X36570000Y30980000D02*
X36000000Y31550000D01*
X36000000Y31550000D02*
X25300000Y31550000D01*
X22800000Y29050000D02*
X15737500Y29050000D01*
X15737500Y29050000D02*
X15500000Y28812500D01*
D25*
%TO.N,Net-(U1-Pad2)*%
X28200000Y32835000D02*
X30915000Y32835000D01*
X31500000Y32250000D02*
X38525000Y32250000D01*
X30915000Y32835000D02*
X31500000Y32250000D01*
%TO.N,Net-(R2-Pad2)*%
X28265000Y35310000D02*
X32540000Y35310000D01*
X32587500Y35262500D02*
X32540000Y35310000D01*
X32540000Y35310000D02*
X35740000Y35310000D01*
X32587500Y33750000D02*
X32587500Y35262500D01*
X28200000Y35375000D02*
X28265000Y35310000D01*
X36260000Y34790000D02*
X38525000Y34790000D01*
X35740000Y35310000D02*
X36260000Y34790000D01*
X28200000Y35375000D02*
X28200000Y38740000D01*
X28200000Y38740000D02*
X27690000Y39250000D01*
%TO.N,/~{nlp}*%
X26975000Y10250000D02*
X26060736Y10250000D01*
X25250000Y11060736D02*
X25250000Y19725000D01*
X26060736Y10250000D02*
X25250000Y11060736D01*
X25250000Y19725000D02*
X28200000Y22675000D01*
%TO.N,/xor_tx*%
X20580000Y27755000D02*
X24500000Y23835000D01*
X24500000Y23835000D02*
X24500000Y9250000D01*
X24500000Y9250000D02*
X22960000Y7710000D01*
X22960000Y7710000D02*
X22025000Y7710000D01*
%TO.N,/nlp*%
X28200000Y27755000D02*
X28200000Y30295000D01*
%TO.N,Net-(U1-Pad8)*%
X20580000Y20135000D02*
X23750000Y16965000D01*
X23750000Y16965000D02*
X23750000Y10750000D01*
X22025000Y8980000D02*
X22980000Y8980000D01*
X22980000Y8980000D02*
X23750000Y9750000D01*
X23750000Y9750000D02*
X23750000Y10750000D01*
X23750000Y10750000D02*
X22980000Y11520000D01*
X22980000Y11520000D02*
X22025000Y11520000D01*
%TO.N,/driver_in*%
X22025000Y10250000D02*
X12475000Y10250000D01*
X12475000Y10250000D02*
X3000000Y19725000D01*
%TO.N,/driver_ena*%
X22025000Y14060000D02*
X12665000Y14060000D01*
X12665000Y14060000D02*
X7000000Y19725000D01*
%TO.N,/mosi_tx*%
X11500000Y33775000D02*
X13975000Y36250000D01*
X13975000Y36250000D02*
X17165000Y36250000D01*
X17165000Y36250000D02*
X20580000Y32835000D01*
D24*
%TO.N,VCC*%
X26975000Y7710000D02*
X26975000Y6440000D01*
X26975000Y6440000D02*
X24190000Y6440000D01*
X16412500Y25750000D02*
X20045000Y25750000D01*
X20045000Y25750000D02*
X20580000Y25215000D01*
X16412500Y25750000D02*
X16412500Y23787500D01*
X16412500Y23787500D02*
X16450000Y23750000D01*
X22025000Y6440000D02*
X24190000Y6440000D01*
X44050000Y38250000D02*
X44050000Y40700000D01*
X44050000Y40700000D02*
X43500000Y41250000D01*
X43500000Y41250000D02*
X24500000Y41250000D01*
X24500000Y41250000D02*
X21600000Y38350000D01*
X21600000Y38350000D02*
X20500000Y38350000D01*
X43475000Y34790000D02*
X43475000Y36060000D01*
X43475000Y36060000D02*
X43475000Y37675000D01*
X43475000Y37675000D02*
X44050000Y38250000D01*
X20500000Y38350000D02*
X20500000Y35455000D01*
X20500000Y35455000D02*
X20580000Y35375000D01*
X39000000Y4725000D02*
X39000000Y10750000D01*
X39000000Y10750000D02*
X35000000Y14750000D01*
X35000000Y14750000D02*
X35000000Y18775000D01*
D25*
%TO.N,Net-(C4-Pad2)*%
X14550000Y23750000D02*
X14550000Y25712500D01*
X14550000Y25712500D02*
X14587500Y25750000D01*
X15500000Y28812500D02*
X15500000Y27706250D01*
X15500000Y27706250D02*
X14587500Y26793750D01*
X14587500Y26793750D02*
X14587500Y25750000D01*
%TO.N,/sck_tx*%
X16450000Y30687500D02*
X16450000Y32825000D01*
X16450000Y32825000D02*
X15500000Y33775000D01*
X16450000Y30687500D02*
X16842500Y30295000D01*
X16842500Y30295000D02*
X20580000Y30295000D01*
%TD*%
%TA.AperFunction,Conductor*%
%TO.N,GND*%
G36*
X50486843Y45029793D02*
G01*
X50556084Y44974574D01*
X50594511Y44894782D01*
X50599500Y44850500D01*
X50599500Y599500D01*
X50579793Y513157D01*
X50524574Y443916D01*
X50444782Y405489D01*
X50400500Y400500D01*
X599500Y400500D01*
X513157Y420207D01*
X443916Y475426D01*
X405489Y555218D01*
X400500Y599500D01*
X400500Y3729786D01*
X18042001Y3729786D01*
X18042533Y3719513D01*
X18051844Y3629766D01*
X18056413Y3608612D01*
X18105248Y3462234D01*
X18114989Y3441438D01*
X18195833Y3310797D01*
X18210101Y3292795D01*
X18318825Y3184259D01*
X18336850Y3170024D01*
X18467637Y3089406D01*
X18488445Y3079703D01*
X18634927Y3031117D01*
X18656049Y3026589D01*
X18744587Y3017517D01*
X18754717Y3017000D01*
X18773577Y3017000D01*
X18792547Y3021330D01*
X18796000Y3028500D01*
X18796000Y3973577D01*
X18791670Y3992547D01*
X18784500Y3996000D01*
X18064424Y3996000D01*
X18045454Y3991670D01*
X18042001Y3984500D01*
X18042001Y3729786D01*
X400500Y3729786D01*
X400500Y4526423D01*
X18042000Y4526423D01*
X18046330Y4507453D01*
X18053500Y4504000D01*
X18773577Y4504000D01*
X18792547Y4508330D01*
X18796000Y4515500D01*
X18796000Y5460576D01*
X18791670Y5479546D01*
X18784500Y5482999D01*
X18754786Y5482999D01*
X18744513Y5482467D01*
X18654766Y5473156D01*
X18633612Y5468587D01*
X18487234Y5419752D01*
X18466438Y5410011D01*
X18335797Y5329167D01*
X18317795Y5314899D01*
X18209259Y5206175D01*
X18195024Y5188150D01*
X18114406Y5057363D01*
X18104703Y5036555D01*
X18056117Y4890073D01*
X18051589Y4868951D01*
X18042517Y4780413D01*
X18042000Y4770283D01*
X18042000Y4526423D01*
X400500Y4526423D01*
X400500Y18759306D01*
X1449500Y18759306D01*
X1452402Y18722431D01*
X1455238Y18712671D01*
X1455238Y18712669D01*
X1482113Y18620168D01*
X1498256Y18564603D01*
X1581919Y18423136D01*
X1698136Y18306919D01*
X1839603Y18223256D01*
X1851625Y18219763D01*
X1851628Y18219762D01*
X1987669Y18180238D01*
X1987671Y18180238D01*
X1997431Y18177402D01*
X2017614Y18175814D01*
X2030413Y18174806D01*
X2030422Y18174806D01*
X2034306Y18174500D01*
X3618837Y18174500D01*
X3705180Y18154793D01*
X3759551Y18116214D01*
X12013326Y9862439D01*
X12030483Y9842875D01*
X12046718Y9821718D01*
X12108207Y9774536D01*
X12172159Y9725464D01*
X12318238Y9664956D01*
X12475000Y9644317D01*
X12501432Y9647797D01*
X12527408Y9649500D01*
X20520749Y9649500D01*
X20607092Y9629793D01*
X20676333Y9574574D01*
X20714760Y9494782D01*
X20714760Y9406218D01*
X20705775Y9377244D01*
X20665068Y9274429D01*
X20660364Y9262547D01*
X20649500Y9172772D01*
X20649500Y8787228D01*
X20660364Y8697453D01*
X20715887Y8557217D01*
X20724085Y8546417D01*
X20724087Y8546413D01*
X20785644Y8465316D01*
X20822150Y8384626D01*
X20820030Y8296088D01*
X20785644Y8224684D01*
X20724087Y8143587D01*
X20724085Y8143583D01*
X20715887Y8132783D01*
X20660364Y7992547D01*
X20649500Y7902772D01*
X20649500Y7517228D01*
X20660364Y7427453D01*
X20665067Y7415574D01*
X20665068Y7415571D01*
X20667759Y7408774D01*
X20715887Y7287217D01*
X20724085Y7276417D01*
X20724087Y7276413D01*
X20785644Y7195316D01*
X20822150Y7114626D01*
X20820030Y7026088D01*
X20785644Y6954684D01*
X20724087Y6873587D01*
X20724085Y6873583D01*
X20715887Y6862783D01*
X20660364Y6722547D01*
X20649500Y6632772D01*
X20649500Y6247228D01*
X20650218Y6241298D01*
X20650218Y6241292D01*
X20658600Y6172034D01*
X20649409Y6083949D01*
X20601755Y6007412D01*
X20476676Y5882333D01*
X20466796Y5873103D01*
X20425604Y5837169D01*
X20418706Y5827354D01*
X20418705Y5827353D01*
X20390405Y5787086D01*
X20384193Y5778722D01*
X20346416Y5730543D01*
X20341477Y5719604D01*
X20338101Y5714029D01*
X20335013Y5708271D01*
X20328113Y5698453D01*
X20317104Y5670216D01*
X20305877Y5641421D01*
X20301841Y5631822D01*
X20281582Y5586952D01*
X20281580Y5586947D01*
X20276645Y5576016D01*
X20274459Y5564221D01*
X20272504Y5557983D01*
X20270882Y5551665D01*
X20266524Y5540487D01*
X20264958Y5528591D01*
X20258534Y5479792D01*
X20256903Y5469498D01*
X20247934Y5421106D01*
X20247934Y5421100D01*
X20245748Y5409308D01*
X20246438Y5397337D01*
X20246438Y5397335D01*
X20249170Y5349955D01*
X20249500Y5338501D01*
X20249500Y5324952D01*
X20229793Y5238609D01*
X20174574Y5169368D01*
X20094782Y5130941D01*
X20006218Y5130941D01*
X19926426Y5169368D01*
X19894547Y5201341D01*
X19889900Y5207204D01*
X19781175Y5315741D01*
X19763150Y5329976D01*
X19632363Y5410594D01*
X19611555Y5420297D01*
X19465073Y5468883D01*
X19443951Y5473411D01*
X19355413Y5482483D01*
X19345283Y5483000D01*
X19326423Y5483000D01*
X19307453Y5478670D01*
X19304000Y5471500D01*
X19304000Y3039424D01*
X19308330Y3020454D01*
X19315500Y3017001D01*
X19345214Y3017001D01*
X19355487Y3017533D01*
X19445234Y3026844D01*
X19466388Y3031413D01*
X19612766Y3080248D01*
X19633562Y3089989D01*
X19764203Y3170833D01*
X19782205Y3185101D01*
X19890741Y3293825D01*
X19912144Y3320926D01*
X19914175Y3319322D01*
X19963944Y3369951D01*
X20047284Y3399917D01*
X20135372Y3390756D01*
X20211973Y3343081D01*
X20298135Y3256919D01*
X20439602Y3173256D01*
X20451624Y3169763D01*
X20451627Y3169762D01*
X20587669Y3130238D01*
X20587670Y3130238D01*
X20597431Y3127402D01*
X20617614Y3125814D01*
X20630413Y3124806D01*
X20630422Y3124806D01*
X20634306Y3124500D01*
X21002416Y3124500D01*
X21088759Y3104793D01*
X21143130Y3066214D01*
X22032666Y2176677D01*
X22041911Y2166780D01*
X22077831Y2125604D01*
X22087646Y2118706D01*
X22087647Y2118705D01*
X22127914Y2090405D01*
X22136278Y2084193D01*
X22184457Y2046416D01*
X22195396Y2041477D01*
X22200971Y2038101D01*
X22206729Y2035013D01*
X22216547Y2028113D01*
X22273589Y2005873D01*
X22283178Y2001841D01*
X22328048Y1981582D01*
X22328053Y1981580D01*
X22338984Y1976645D01*
X22350779Y1974459D01*
X22357017Y1972504D01*
X22363335Y1970882D01*
X22374513Y1966524D01*
X22388187Y1964724D01*
X22435208Y1958534D01*
X22445502Y1956903D01*
X22493894Y1947934D01*
X22493900Y1947934D01*
X22505692Y1945748D01*
X22517663Y1946438D01*
X22517665Y1946438D01*
X22565045Y1949170D01*
X22576499Y1949500D01*
X37368873Y1949500D01*
X37382408Y1949039D01*
X37424960Y1946138D01*
X37436930Y1945322D01*
X37448749Y1947385D01*
X37448751Y1947385D01*
X37497221Y1955845D01*
X37507531Y1957368D01*
X37556413Y1963283D01*
X37556414Y1963283D01*
X37568320Y1964724D01*
X37579537Y1968962D01*
X37585859Y1970515D01*
X37592136Y1972410D01*
X37603954Y1974473D01*
X37660046Y1999095D01*
X37669618Y2003001D01*
X37726923Y2024655D01*
X37736808Y2031449D01*
X37742590Y2034471D01*
X37748216Y2037798D01*
X37759202Y2042621D01*
X37807763Y2079883D01*
X37816191Y2086007D01*
X37856761Y2113890D01*
X37856765Y2113893D01*
X37866651Y2120688D01*
X37906211Y2165089D01*
X37914078Y2173422D01*
X38856871Y3116214D01*
X38931860Y3163333D01*
X38997585Y3174500D01*
X39965694Y3174500D01*
X39969578Y3174806D01*
X39969587Y3174806D01*
X39982386Y3175814D01*
X40002569Y3177402D01*
X40012329Y3180238D01*
X40012331Y3180238D01*
X40148372Y3219762D01*
X40148375Y3219763D01*
X40160397Y3223256D01*
X40301864Y3306919D01*
X40418081Y3423136D01*
X40501744Y3564603D01*
X40510222Y3593782D01*
X40544762Y3712669D01*
X40544762Y3712671D01*
X40547598Y3722431D01*
X40550500Y3759306D01*
X40550500Y4864774D01*
X42197819Y4864774D01*
X42233907Y4599605D01*
X42235974Y4592512D01*
X42235975Y4592509D01*
X42274743Y4459500D01*
X42308792Y4342683D01*
X42311883Y4335977D01*
X42311885Y4335973D01*
X42417738Y4106360D01*
X42417741Y4106354D01*
X42420831Y4099652D01*
X42567562Y3875851D01*
X42745760Y3676197D01*
X42751427Y3671484D01*
X42751432Y3671479D01*
X42778243Y3649181D01*
X42951512Y3505075D01*
X42957821Y3501247D01*
X42957826Y3501243D01*
X43165422Y3375271D01*
X43180298Y3366244D01*
X43187098Y3363392D01*
X43187103Y3363390D01*
X43419889Y3265775D01*
X43427091Y3262755D01*
X43686470Y3196881D01*
X43693817Y3196141D01*
X43693818Y3196141D01*
X43744001Y3191088D01*
X43908741Y3174500D01*
X44067944Y3174500D01*
X44266877Y3189283D01*
X44469366Y3235102D01*
X44520697Y3246717D01*
X44520699Y3246718D01*
X44527891Y3248345D01*
X44534759Y3251016D01*
X44534763Y3251017D01*
X44644843Y3293825D01*
X44777309Y3345338D01*
X44806204Y3361853D01*
X45003236Y3474466D01*
X45003237Y3474467D01*
X45009650Y3478132D01*
X45201996Y3629766D01*
X45214018Y3639243D01*
X45214019Y3639244D01*
X45219811Y3643810D01*
X45347723Y3779784D01*
X46342000Y3779784D01*
X46342531Y3769517D01*
X46351844Y3679769D01*
X46356413Y3658611D01*
X46405248Y3512235D01*
X46414989Y3491439D01*
X46495833Y3360797D01*
X46510102Y3342795D01*
X46618827Y3234258D01*
X46636853Y3220022D01*
X46767628Y3139412D01*
X46788452Y3129701D01*
X46934934Y3081115D01*
X46956044Y3076589D01*
X47044588Y3067517D01*
X47054718Y3067000D01*
X47723577Y3067000D01*
X47742547Y3071330D01*
X47746000Y3078500D01*
X47746000Y3089423D01*
X48254000Y3089423D01*
X48258330Y3070453D01*
X48265500Y3067000D01*
X48945216Y3067000D01*
X48955483Y3067531D01*
X49045231Y3076844D01*
X49066389Y3081413D01*
X49212765Y3130248D01*
X49233561Y3139989D01*
X49364203Y3220833D01*
X49382205Y3235102D01*
X49490742Y3343827D01*
X49504978Y3361853D01*
X49585588Y3492628D01*
X49595299Y3513452D01*
X49643885Y3659934D01*
X49648411Y3681044D01*
X49657483Y3769588D01*
X49658000Y3779718D01*
X49658000Y4448577D01*
X49653670Y4467547D01*
X49646500Y4471000D01*
X48276423Y4471000D01*
X48257453Y4466670D01*
X48254000Y4459500D01*
X48254000Y3089423D01*
X47746000Y3089423D01*
X47746000Y4448577D01*
X47741670Y4467547D01*
X47734500Y4471000D01*
X46364423Y4471000D01*
X46345453Y4466670D01*
X46342000Y4459500D01*
X46342000Y3779784D01*
X45347723Y3779784D01*
X45403175Y3838731D01*
X45555714Y4058615D01*
X45674076Y4298629D01*
X45727867Y4466670D01*
X45753410Y4546468D01*
X45755662Y4553503D01*
X45798678Y4817636D01*
X45801084Y5001423D01*
X46342000Y5001423D01*
X46346330Y4982453D01*
X46353500Y4979000D01*
X47723577Y4979000D01*
X47742547Y4983330D01*
X47746000Y4990500D01*
X47746000Y5001423D01*
X48254000Y5001423D01*
X48258330Y4982453D01*
X48265500Y4979000D01*
X49635577Y4979000D01*
X49654547Y4983330D01*
X49658000Y4990500D01*
X49658000Y5670216D01*
X49657469Y5680483D01*
X49648156Y5770231D01*
X49643587Y5791389D01*
X49594752Y5937765D01*
X49585011Y5958561D01*
X49504167Y6089203D01*
X49489898Y6107205D01*
X49381173Y6215742D01*
X49363147Y6229978D01*
X49232372Y6310588D01*
X49211548Y6320299D01*
X49065066Y6368885D01*
X49043956Y6373411D01*
X48955412Y6382483D01*
X48945282Y6383000D01*
X48276423Y6383000D01*
X48257453Y6378670D01*
X48254000Y6371500D01*
X48254000Y5001423D01*
X47746000Y5001423D01*
X47746000Y6360577D01*
X47741670Y6379547D01*
X47734500Y6383000D01*
X47054784Y6383000D01*
X47044517Y6382469D01*
X46954769Y6373156D01*
X46933611Y6368587D01*
X46787235Y6319752D01*
X46766439Y6310011D01*
X46635797Y6229167D01*
X46617795Y6214898D01*
X46509258Y6106173D01*
X46495022Y6088147D01*
X46414412Y5957372D01*
X46404701Y5936548D01*
X46356115Y5790066D01*
X46351589Y5768956D01*
X46342517Y5680412D01*
X46342000Y5670282D01*
X46342000Y5001423D01*
X45801084Y5001423D01*
X45802181Y5085226D01*
X45766093Y5350395D01*
X45752412Y5397335D01*
X45693275Y5600225D01*
X45691208Y5607317D01*
X45675486Y5641421D01*
X45582262Y5843640D01*
X45582259Y5843646D01*
X45579169Y5850348D01*
X45470506Y6016086D01*
X45436485Y6067977D01*
X45436482Y6067981D01*
X45432438Y6074149D01*
X45254240Y6273803D01*
X45248573Y6278516D01*
X45248568Y6278521D01*
X45054164Y6440204D01*
X45048488Y6444925D01*
X45042179Y6448753D01*
X45042174Y6448757D01*
X44826014Y6579926D01*
X44826012Y6579927D01*
X44819702Y6583756D01*
X44812902Y6586608D01*
X44812897Y6586610D01*
X44579713Y6684392D01*
X44579711Y6684393D01*
X44572909Y6687245D01*
X44313530Y6753119D01*
X44306183Y6753859D01*
X44306182Y6753859D01*
X44232640Y6761264D01*
X44091259Y6775500D01*
X43932056Y6775500D01*
X43733123Y6760717D01*
X43554542Y6720308D01*
X43479303Y6703283D01*
X43479301Y6703282D01*
X43472109Y6701655D01*
X43465241Y6698984D01*
X43465237Y6698983D01*
X43427717Y6684392D01*
X43222691Y6604662D01*
X43216283Y6600999D01*
X43216282Y6600999D01*
X43191107Y6586610D01*
X42990350Y6471868D01*
X42780189Y6306190D01*
X42596825Y6111269D01*
X42444286Y5891385D01*
X42441027Y5884776D01*
X42441025Y5884773D01*
X42412709Y5827353D01*
X42325924Y5651371D01*
X42323676Y5644349D01*
X42323675Y5644346D01*
X42290430Y5540487D01*
X42244338Y5396497D01*
X42201322Y5132364D01*
X42197819Y4864774D01*
X40550500Y4864774D01*
X40550500Y5690694D01*
X40549890Y5698453D01*
X40548695Y5713630D01*
X40547598Y5727569D01*
X40541421Y5748829D01*
X40505238Y5873372D01*
X40505237Y5873375D01*
X40501744Y5885397D01*
X40418081Y6026864D01*
X40301864Y6143081D01*
X40160397Y6226744D01*
X40148375Y6230237D01*
X40148372Y6230238D01*
X40012331Y6269762D01*
X40012329Y6269762D01*
X40002569Y6272598D01*
X39982386Y6274186D01*
X39969587Y6275194D01*
X39969578Y6275194D01*
X39965694Y6275500D01*
X39899500Y6275500D01*
X39813157Y6295207D01*
X39743916Y6350426D01*
X39705489Y6430218D01*
X39700500Y6474500D01*
X39700500Y10718877D01*
X39700961Y10732414D01*
X39703862Y10774961D01*
X39704678Y10786930D01*
X39694155Y10847221D01*
X39692632Y10857531D01*
X39686717Y10906413D01*
X39686717Y10906414D01*
X39685276Y10918320D01*
X39681038Y10929537D01*
X39679485Y10935859D01*
X39677590Y10942135D01*
X39675527Y10953954D01*
X39650928Y11009993D01*
X39646992Y11019638D01*
X39629586Y11065701D01*
X39629584Y11065705D01*
X39625345Y11076923D01*
X39618553Y11086806D01*
X39615534Y11092580D01*
X39612201Y11098217D01*
X39607378Y11109203D01*
X39570103Y11157781D01*
X39563981Y11166208D01*
X39536108Y11206763D01*
X39529312Y11216651D01*
X39484920Y11256203D01*
X39476587Y11264070D01*
X35758786Y14981871D01*
X35711667Y15056859D01*
X35700500Y15122585D01*
X35700500Y17025500D01*
X35720207Y17111843D01*
X35775426Y17181084D01*
X35855218Y17219511D01*
X35899500Y17224500D01*
X35965694Y17224500D01*
X35969578Y17224806D01*
X35969587Y17224806D01*
X35982386Y17225814D01*
X36002569Y17227402D01*
X36012329Y17230238D01*
X36012331Y17230238D01*
X36148372Y17269762D01*
X36148375Y17269763D01*
X36160397Y17273256D01*
X36301864Y17356919D01*
X36418081Y17473136D01*
X36501744Y17614603D01*
X36516377Y17664967D01*
X36544762Y17762669D01*
X36544762Y17762671D01*
X36547598Y17772431D01*
X36550500Y17809306D01*
X36550500Y19252416D01*
X36570207Y19338759D01*
X36608786Y19393130D01*
X36931871Y19716215D01*
X37006859Y19763334D01*
X37072585Y19774501D01*
X37295129Y19774501D01*
X37381472Y19754794D01*
X37450713Y19699575D01*
X37489140Y19619783D01*
X37489140Y19531219D01*
X37458637Y19462072D01*
X37444286Y19441385D01*
X37325924Y19201371D01*
X37323676Y19194349D01*
X37323675Y19194346D01*
X37271853Y19032453D01*
X37244338Y18946497D01*
X37201322Y18682364D01*
X37201225Y18674976D01*
X37201225Y18674973D01*
X37200705Y18635226D01*
X37197819Y18414774D01*
X37233907Y18149605D01*
X37235974Y18142512D01*
X37235975Y18142509D01*
X37276216Y18004449D01*
X37308792Y17892683D01*
X37311883Y17885977D01*
X37311885Y17885973D01*
X37417738Y17656360D01*
X37417741Y17656354D01*
X37420831Y17649652D01*
X37478144Y17562235D01*
X37542367Y17464280D01*
X37567562Y17425851D01*
X37745760Y17226197D01*
X37751427Y17221484D01*
X37751432Y17221479D01*
X37859725Y17131413D01*
X37951512Y17055075D01*
X37957821Y17051247D01*
X37957826Y17051243D01*
X38173986Y16920074D01*
X38180298Y16916244D01*
X38187098Y16913392D01*
X38187103Y16913390D01*
X38420287Y16815608D01*
X38427091Y16812755D01*
X38686470Y16746881D01*
X38693817Y16746141D01*
X38693818Y16746141D01*
X38744001Y16741088D01*
X38908741Y16724500D01*
X39067944Y16724500D01*
X39266877Y16739283D01*
X39445458Y16779692D01*
X39520697Y16796717D01*
X39520699Y16796718D01*
X39527891Y16798345D01*
X39534759Y16801016D01*
X39534763Y16801017D01*
X39665420Y16851827D01*
X39777309Y16895338D01*
X39783718Y16899001D01*
X40003236Y17024466D01*
X40003237Y17024467D01*
X40009650Y17028132D01*
X40219811Y17193810D01*
X40403175Y17388731D01*
X40555714Y17608615D01*
X40583390Y17664735D01*
X40656612Y17813216D01*
X40664783Y17829784D01*
X42342000Y17829784D01*
X42342531Y17819517D01*
X42351844Y17729769D01*
X42356413Y17708611D01*
X42405248Y17562235D01*
X42414989Y17541439D01*
X42495833Y17410797D01*
X42510102Y17392795D01*
X42618827Y17284258D01*
X42636853Y17270022D01*
X42767628Y17189412D01*
X42788452Y17179701D01*
X42934934Y17131115D01*
X42956044Y17126589D01*
X43044588Y17117517D01*
X43054718Y17117000D01*
X43723577Y17117000D01*
X43742547Y17121330D01*
X43746000Y17128500D01*
X43746000Y17139423D01*
X44254000Y17139423D01*
X44258330Y17120453D01*
X44265500Y17117000D01*
X44945216Y17117000D01*
X44955483Y17117531D01*
X45045231Y17126844D01*
X45066389Y17131413D01*
X45212765Y17180248D01*
X45233561Y17189989D01*
X45364203Y17270833D01*
X45382205Y17285102D01*
X45490742Y17393827D01*
X45504978Y17411853D01*
X45585588Y17542628D01*
X45595299Y17563452D01*
X45643885Y17709934D01*
X45648411Y17731044D01*
X45657483Y17819588D01*
X45658000Y17829718D01*
X45658000Y18414774D01*
X46197819Y18414774D01*
X46233907Y18149605D01*
X46235974Y18142512D01*
X46235975Y18142509D01*
X46276216Y18004449D01*
X46308792Y17892683D01*
X46311883Y17885977D01*
X46311885Y17885973D01*
X46417738Y17656360D01*
X46417741Y17656354D01*
X46420831Y17649652D01*
X46478144Y17562235D01*
X46542367Y17464280D01*
X46567562Y17425851D01*
X46745760Y17226197D01*
X46751427Y17221484D01*
X46751432Y17221479D01*
X46859725Y17131413D01*
X46951512Y17055075D01*
X46957821Y17051247D01*
X46957826Y17051243D01*
X47173986Y16920074D01*
X47180298Y16916244D01*
X47187098Y16913392D01*
X47187103Y16913390D01*
X47420287Y16815608D01*
X47427091Y16812755D01*
X47686470Y16746881D01*
X47693817Y16746141D01*
X47693818Y16746141D01*
X47744001Y16741088D01*
X47908741Y16724500D01*
X48067944Y16724500D01*
X48266877Y16739283D01*
X48445458Y16779692D01*
X48520697Y16796717D01*
X48520699Y16796718D01*
X48527891Y16798345D01*
X48534759Y16801016D01*
X48534763Y16801017D01*
X48665420Y16851827D01*
X48777309Y16895338D01*
X48783718Y16899001D01*
X49003236Y17024466D01*
X49003237Y17024467D01*
X49009650Y17028132D01*
X49219811Y17193810D01*
X49403175Y17388731D01*
X49555714Y17608615D01*
X49583390Y17664735D01*
X49656612Y17813216D01*
X49674076Y17848629D01*
X49682614Y17875300D01*
X49753410Y18096468D01*
X49755662Y18103503D01*
X49798678Y18367636D01*
X49800125Y18478132D01*
X49802084Y18627838D01*
X49802181Y18635226D01*
X49766093Y18900395D01*
X49740453Y18988365D01*
X49693275Y19150225D01*
X49691208Y19157317D01*
X49686626Y19167257D01*
X49582262Y19393640D01*
X49582259Y19393646D01*
X49579169Y19400348D01*
X49473973Y19560798D01*
X49436485Y19617977D01*
X49436482Y19617981D01*
X49432438Y19624149D01*
X49254240Y19823803D01*
X49248573Y19828516D01*
X49248568Y19828521D01*
X49054164Y19990204D01*
X49048488Y19994925D01*
X49042179Y19998753D01*
X49042174Y19998757D01*
X48826014Y20129926D01*
X48826012Y20129927D01*
X48819702Y20133756D01*
X48812902Y20136608D01*
X48812897Y20136610D01*
X48579713Y20234392D01*
X48579711Y20234393D01*
X48572909Y20237245D01*
X48313530Y20303119D01*
X48306183Y20303859D01*
X48306182Y20303859D01*
X48232640Y20311264D01*
X48091259Y20325500D01*
X47932056Y20325500D01*
X47733123Y20310717D01*
X47580184Y20276110D01*
X47479303Y20253283D01*
X47479301Y20253282D01*
X47472109Y20251655D01*
X47465241Y20248984D01*
X47465237Y20248983D01*
X47427717Y20234392D01*
X47222691Y20154662D01*
X47216283Y20150999D01*
X47216282Y20150999D01*
X47067763Y20066113D01*
X46990350Y20021868D01*
X46984547Y20017294D01*
X46984548Y20017294D01*
X46797073Y19869500D01*
X46780189Y19856190D01*
X46596825Y19661269D01*
X46444286Y19441385D01*
X46325924Y19201371D01*
X46323676Y19194349D01*
X46323675Y19194346D01*
X46271853Y19032453D01*
X46244338Y18946497D01*
X46201322Y18682364D01*
X46201225Y18674976D01*
X46201225Y18674973D01*
X46200705Y18635226D01*
X46197819Y18414774D01*
X45658000Y18414774D01*
X45658000Y18498577D01*
X45653670Y18517547D01*
X45646500Y18521000D01*
X44276423Y18521000D01*
X44257453Y18516670D01*
X44254000Y18509500D01*
X44254000Y17139423D01*
X43746000Y17139423D01*
X43746000Y18498577D01*
X43741670Y18517547D01*
X43734500Y18521000D01*
X42364423Y18521000D01*
X42345453Y18516670D01*
X42342000Y18509500D01*
X42342000Y17829784D01*
X40664783Y17829784D01*
X40674076Y17848629D01*
X40682614Y17875300D01*
X40753410Y18096468D01*
X40755662Y18103503D01*
X40798678Y18367636D01*
X40800125Y18478132D01*
X40802084Y18627838D01*
X40802181Y18635226D01*
X40766093Y18900395D01*
X40740453Y18988365D01*
X40722073Y19051423D01*
X42342000Y19051423D01*
X42346330Y19032453D01*
X42353500Y19029000D01*
X43723577Y19029000D01*
X43742547Y19033330D01*
X43746000Y19040500D01*
X43746000Y19051423D01*
X44254000Y19051423D01*
X44258330Y19032453D01*
X44265500Y19029000D01*
X45635577Y19029000D01*
X45654547Y19033330D01*
X45658000Y19040500D01*
X45658000Y19720216D01*
X45657469Y19730483D01*
X45648156Y19820231D01*
X45643587Y19841389D01*
X45594752Y19987765D01*
X45585011Y20008561D01*
X45504167Y20139203D01*
X45489898Y20157205D01*
X45381173Y20265742D01*
X45363147Y20279978D01*
X45232372Y20360588D01*
X45211548Y20370299D01*
X45065066Y20418885D01*
X45043956Y20423411D01*
X44955412Y20432483D01*
X44945282Y20433000D01*
X44276423Y20433000D01*
X44257453Y20428670D01*
X44254000Y20421500D01*
X44254000Y19051423D01*
X43746000Y19051423D01*
X43746000Y20410577D01*
X43741670Y20429547D01*
X43734500Y20433000D01*
X43054784Y20433000D01*
X43044517Y20432469D01*
X42954769Y20423156D01*
X42933611Y20418587D01*
X42787235Y20369752D01*
X42766439Y20360011D01*
X42635797Y20279167D01*
X42617795Y20264898D01*
X42509258Y20156173D01*
X42495022Y20138147D01*
X42414412Y20007372D01*
X42404701Y19986548D01*
X42356115Y19840066D01*
X42351589Y19818956D01*
X42342517Y19730412D01*
X42342000Y19720282D01*
X42342000Y19051423D01*
X40722073Y19051423D01*
X40693275Y19150225D01*
X40691208Y19157317D01*
X40686626Y19167257D01*
X40582262Y19393640D01*
X40582259Y19393646D01*
X40579169Y19400348D01*
X40473973Y19560798D01*
X40436485Y19617977D01*
X40436482Y19617981D01*
X40432438Y19624149D01*
X40254240Y19823803D01*
X40248573Y19828516D01*
X40248568Y19828521D01*
X40054164Y19990204D01*
X40048488Y19994925D01*
X40042179Y19998753D01*
X40042174Y19998757D01*
X39826014Y20129926D01*
X39826012Y20129927D01*
X39819702Y20133756D01*
X39812901Y20136608D01*
X39812893Y20136612D01*
X39603193Y20224546D01*
X39531188Y20276110D01*
X39488687Y20353808D01*
X39484107Y20442253D01*
X39518355Y20523927D01*
X39539434Y20548778D01*
X42901709Y23911052D01*
X46473324Y27482667D01*
X46483204Y27491897D01*
X46524396Y27527831D01*
X46539617Y27549488D01*
X46559595Y27577914D01*
X46565807Y27586278D01*
X46596179Y27625013D01*
X46603584Y27634457D01*
X46608523Y27645396D01*
X46611899Y27650971D01*
X46614987Y27656729D01*
X46621887Y27666547D01*
X46644127Y27723589D01*
X46648159Y27733178D01*
X46668418Y27778048D01*
X46668420Y27778053D01*
X46673355Y27788984D01*
X46675541Y27800779D01*
X46677496Y27807017D01*
X46679118Y27813335D01*
X46683476Y27824513D01*
X46691466Y27885209D01*
X46693097Y27895502D01*
X46702066Y27943894D01*
X46702066Y27943900D01*
X46704252Y27955692D01*
X46703156Y27974711D01*
X46700830Y28015045D01*
X46700500Y28026499D01*
X46700500Y35018873D01*
X46700961Y35032408D01*
X46701562Y35041225D01*
X46704678Y35086930D01*
X46702616Y35098747D01*
X46694154Y35147235D01*
X46692633Y35157538D01*
X46686720Y35206399D01*
X46686717Y35206410D01*
X46685276Y35218320D01*
X46681033Y35229549D01*
X46679471Y35235907D01*
X46677591Y35242135D01*
X46675528Y35253953D01*
X46650910Y35310036D01*
X46646987Y35319650D01*
X46629587Y35365697D01*
X46625345Y35376923D01*
X46618547Y35386814D01*
X46615510Y35392623D01*
X46612200Y35398220D01*
X46607379Y35409202D01*
X46570117Y35457763D01*
X46563993Y35466191D01*
X46536110Y35506761D01*
X46536107Y35506765D01*
X46529312Y35516651D01*
X46484911Y35556211D01*
X46476578Y35564078D01*
X45507334Y36533323D01*
X45498089Y36543220D01*
X45470058Y36575353D01*
X45470057Y36575354D01*
X45462169Y36584396D01*
X45452353Y36591295D01*
X45412086Y36619595D01*
X45403722Y36625807D01*
X45364987Y36656179D01*
X45355543Y36663584D01*
X45344604Y36668523D01*
X45339029Y36671899D01*
X45333271Y36674987D01*
X45323453Y36681887D01*
X45312274Y36686246D01*
X45301701Y36691915D01*
X45302919Y36694187D01*
X45256198Y36725889D01*
X45239693Y36723885D01*
X45207068Y36730622D01*
X45201016Y36733355D01*
X45189226Y36735540D01*
X45182989Y36737495D01*
X45176662Y36739119D01*
X45165487Y36743476D01*
X45104791Y36751466D01*
X45094498Y36753097D01*
X45046106Y36762066D01*
X45046100Y36762066D01*
X45034308Y36764252D01*
X45022337Y36763562D01*
X45022335Y36763562D01*
X44974955Y36760830D01*
X44963501Y36760500D01*
X44537929Y36760500D01*
X44451586Y36780207D01*
X44382345Y36835426D01*
X44343918Y36915218D01*
X44343918Y37003782D01*
X44382345Y37083574D01*
X44451586Y37138793D01*
X44482410Y37150598D01*
X44513275Y37159565D01*
X44560398Y37173256D01*
X44701865Y37256919D01*
X44788132Y37343186D01*
X44863120Y37390305D01*
X44951127Y37400221D01*
X45034720Y37370970D01*
X45086877Y37318452D01*
X45088651Y37319858D01*
X45110101Y37292795D01*
X45218825Y37184259D01*
X45236850Y37170024D01*
X45364693Y37091221D01*
X45390347Y37066005D01*
X45452736Y37058379D01*
X45534928Y37031117D01*
X45556049Y37026589D01*
X45644587Y37017517D01*
X45654717Y37017000D01*
X45673577Y37017000D01*
X45692547Y37021330D01*
X45696000Y37028500D01*
X45696000Y37039424D01*
X46204000Y37039424D01*
X46208330Y37020454D01*
X46215500Y37017001D01*
X46245214Y37017001D01*
X46255487Y37017533D01*
X46345234Y37026844D01*
X46366388Y37031413D01*
X46512766Y37080248D01*
X46533562Y37089989D01*
X46664203Y37170833D01*
X46682205Y37185101D01*
X46790741Y37293825D01*
X46804976Y37311850D01*
X46885594Y37442637D01*
X46895297Y37463445D01*
X46943883Y37609927D01*
X46948411Y37631049D01*
X46957483Y37719587D01*
X46958000Y37729717D01*
X46958000Y37973577D01*
X46953670Y37992547D01*
X46946500Y37996000D01*
X46226423Y37996000D01*
X46207453Y37991670D01*
X46204000Y37984500D01*
X46204000Y37039424D01*
X45696000Y37039424D01*
X45696000Y38526423D01*
X46204000Y38526423D01*
X46208330Y38507453D01*
X46215500Y38504000D01*
X46935576Y38504000D01*
X46954546Y38508330D01*
X46957999Y38515500D01*
X46957999Y38770214D01*
X46957467Y38780487D01*
X46948156Y38870234D01*
X46943587Y38891388D01*
X46894752Y39037766D01*
X46885011Y39058562D01*
X46804167Y39189203D01*
X46789899Y39207205D01*
X46681175Y39315741D01*
X46663150Y39329976D01*
X46532363Y39410594D01*
X46511555Y39420297D01*
X46365073Y39468883D01*
X46343951Y39473411D01*
X46255413Y39482483D01*
X46245283Y39483000D01*
X46226423Y39483000D01*
X46207453Y39478670D01*
X46204000Y39471500D01*
X46204000Y38526423D01*
X45696000Y38526423D01*
X45696000Y39460576D01*
X45691670Y39479546D01*
X45684500Y39482999D01*
X45654786Y39482999D01*
X45644513Y39482467D01*
X45554766Y39473156D01*
X45533612Y39468587D01*
X45387234Y39419752D01*
X45366438Y39410011D01*
X45235797Y39329167D01*
X45217795Y39314899D01*
X45109263Y39206178D01*
X45105671Y39201630D01*
X45036692Y39146084D01*
X44950443Y39125968D01*
X44864008Y39145266D01*
X44794505Y39200155D01*
X44755701Y39279765D01*
X44750500Y39324966D01*
X44750500Y40668877D01*
X44750961Y40682414D01*
X44753862Y40724961D01*
X44754678Y40736930D01*
X44744155Y40797221D01*
X44742632Y40807531D01*
X44736717Y40856413D01*
X44736717Y40856414D01*
X44735276Y40868320D01*
X44731038Y40879537D01*
X44729485Y40885859D01*
X44727590Y40892135D01*
X44725527Y40903954D01*
X44700928Y40959993D01*
X44696992Y40969638D01*
X44679586Y41015701D01*
X44679584Y41015705D01*
X44675345Y41026923D01*
X44668553Y41036806D01*
X44665534Y41042580D01*
X44662201Y41048217D01*
X44657378Y41059203D01*
X44620103Y41107781D01*
X44613981Y41116208D01*
X44586108Y41156763D01*
X44579312Y41166651D01*
X44534920Y41206203D01*
X44526587Y41214070D01*
X44017333Y41723324D01*
X44008103Y41733204D01*
X43972169Y41774396D01*
X43962353Y41781295D01*
X43922086Y41809595D01*
X43913722Y41815807D01*
X43874987Y41846179D01*
X43865543Y41853584D01*
X43854604Y41858523D01*
X43849029Y41861899D01*
X43843271Y41864987D01*
X43833453Y41871887D01*
X43776411Y41894127D01*
X43766822Y41898159D01*
X43721952Y41918418D01*
X43721947Y41918420D01*
X43711016Y41923355D01*
X43699221Y41925541D01*
X43692983Y41927496D01*
X43686665Y41929118D01*
X43675487Y41933476D01*
X43614791Y41941466D01*
X43604498Y41943097D01*
X43556106Y41952066D01*
X43556100Y41952066D01*
X43544308Y41954252D01*
X43532337Y41953562D01*
X43532335Y41953562D01*
X43484955Y41950830D01*
X43473501Y41950500D01*
X39709170Y41950500D01*
X39622827Y41970207D01*
X39553586Y42025426D01*
X39515159Y42105218D01*
X39515159Y42193782D01*
X39546159Y42263642D01*
X39632102Y42386381D01*
X39640762Y42401382D01*
X39730139Y42593050D01*
X39736063Y42609326D01*
X39790801Y42813610D01*
X39793806Y42830652D01*
X39812239Y43041347D01*
X39812239Y43058653D01*
X39793806Y43269348D01*
X39790801Y43286390D01*
X39736063Y43490674D01*
X39730139Y43506950D01*
X39640762Y43698618D01*
X39632102Y43713619D01*
X39599959Y43759524D01*
X39585829Y43772310D01*
X39573017Y43763807D01*
X38640714Y42831504D01*
X38565726Y42784385D01*
X38477719Y42774469D01*
X38394126Y42803720D01*
X38359286Y42831504D01*
X37428756Y43762034D01*
X37412618Y43772174D01*
X37401479Y43761577D01*
X37367898Y43713619D01*
X37359238Y43698618D01*
X37269861Y43506950D01*
X37263937Y43490674D01*
X37209199Y43286390D01*
X37206194Y43269348D01*
X37187761Y43058653D01*
X37187761Y43041347D01*
X37206194Y42830652D01*
X37209199Y42813610D01*
X37263937Y42609326D01*
X37269861Y42593050D01*
X37359238Y42401382D01*
X37367898Y42386381D01*
X37453841Y42263642D01*
X37487222Y42181610D01*
X37481705Y42093219D01*
X37438383Y42015975D01*
X37365837Y41965177D01*
X37290830Y41950500D01*
X24531123Y41950500D01*
X24517589Y41950961D01*
X24488342Y41952955D01*
X24475039Y41953862D01*
X24463070Y41954678D01*
X24451251Y41952615D01*
X24451249Y41952615D01*
X24402779Y41944155D01*
X24392469Y41942632D01*
X24343587Y41936717D01*
X24343586Y41936717D01*
X24331680Y41935276D01*
X24320463Y41931038D01*
X24314141Y41929485D01*
X24307865Y41927590D01*
X24296046Y41925527D01*
X24285059Y41920704D01*
X24240007Y41900928D01*
X24230362Y41896992D01*
X24184299Y41879586D01*
X24184295Y41879584D01*
X24173077Y41875345D01*
X24163194Y41868553D01*
X24157420Y41865534D01*
X24151783Y41862201D01*
X24140797Y41857378D01*
X24094565Y41821903D01*
X24092219Y41820103D01*
X24083792Y41813981D01*
X24033349Y41779312D01*
X23994554Y41735770D01*
X23993797Y41734920D01*
X23985930Y41726587D01*
X22708382Y40449038D01*
X22072714Y39813370D01*
X21997726Y39766251D01*
X21909719Y39756335D01*
X21826126Y39785586D01*
X21763502Y39848210D01*
X21734251Y39931803D01*
X21733000Y39954084D01*
X21733000Y39973577D01*
X21728670Y39992547D01*
X21721500Y39996000D01*
X19289424Y39996000D01*
X19270454Y39991670D01*
X19267001Y39984500D01*
X19267001Y39954786D01*
X19267533Y39944513D01*
X19276844Y39854766D01*
X19281413Y39833612D01*
X19330248Y39687234D01*
X19339989Y39666438D01*
X19420833Y39535797D01*
X19435101Y39517795D01*
X19543825Y39409259D01*
X19570926Y39387856D01*
X19569322Y39385825D01*
X19619951Y39336056D01*
X19649917Y39252716D01*
X19640756Y39164628D01*
X19593081Y39088027D01*
X19506919Y39001865D01*
X19423256Y38860398D01*
X19419763Y38848376D01*
X19419762Y38848373D01*
X19388277Y38740000D01*
X19377402Y38702569D01*
X19376605Y38692438D01*
X19374978Y38671763D01*
X19374500Y38665694D01*
X19374500Y38034306D01*
X19377402Y37997431D01*
X19380238Y37987670D01*
X19380238Y37987669D01*
X19419493Y37852555D01*
X19423256Y37839602D01*
X19506919Y37698135D01*
X19623135Y37581919D01*
X19633915Y37575544D01*
X19633916Y37575543D01*
X19701800Y37535396D01*
X19766087Y37474481D01*
X19797577Y37391706D01*
X19799500Y37364109D01*
X19799500Y36377549D01*
X19779793Y36291206D01*
X19731710Y36227933D01*
X19705457Y36204910D01*
X19699811Y36197748D01*
X19699810Y36197747D01*
X19574510Y36038804D01*
X19574507Y36038800D01*
X19568863Y36031640D01*
X19564617Y36023569D01*
X19564614Y36023565D01*
X19506024Y35912203D01*
X19466131Y35836380D01*
X19400703Y35625667D01*
X19399631Y35616610D01*
X19376848Y35424113D01*
X19374770Y35406560D01*
X19375823Y35390500D01*
X19376459Y35380794D01*
X19362441Y35293347D01*
X19311870Y35220642D01*
X19234762Y35177079D01*
X19146388Y35171286D01*
X19064253Y35204411D01*
X19037171Y35227064D01*
X17626674Y36637561D01*
X17609517Y36657125D01*
X17593282Y36678282D01*
X17467841Y36774536D01*
X17402674Y36801529D01*
X17333812Y36830053D01*
X17333810Y36830054D01*
X17321762Y36835044D01*
X17204361Y36850500D01*
X17177928Y36853980D01*
X17165000Y36855682D01*
X17152072Y36853980D01*
X17152065Y36853980D01*
X17138567Y36852203D01*
X17112592Y36850500D01*
X14027408Y36850500D01*
X14001432Y36852203D01*
X13987935Y36853980D01*
X13975000Y36855683D01*
X13818238Y36835044D01*
X13672159Y36774536D01*
X13546718Y36678282D01*
X13530483Y36657125D01*
X13513326Y36637561D01*
X12259551Y35383786D01*
X12184563Y35336667D01*
X12118837Y35325500D01*
X10534306Y35325500D01*
X10530422Y35325194D01*
X10530413Y35325194D01*
X10517614Y35324186D01*
X10497431Y35322598D01*
X10487671Y35319762D01*
X10487669Y35319762D01*
X10351628Y35280238D01*
X10351625Y35280237D01*
X10339603Y35276744D01*
X10198136Y35193081D01*
X10081919Y35076864D01*
X9998256Y34935397D01*
X9994763Y34923375D01*
X9994762Y34923372D01*
X9955239Y34787334D01*
X9952402Y34777569D01*
X9949500Y34740694D01*
X9949500Y32809306D01*
X9952402Y32772431D01*
X9955238Y32762671D01*
X9955238Y32762669D01*
X9991588Y32637555D01*
X9998256Y32614603D01*
X10081919Y32473136D01*
X10198136Y32356919D01*
X10339603Y32273256D01*
X10351625Y32269763D01*
X10351628Y32269762D01*
X10487669Y32230238D01*
X10487671Y32230238D01*
X10497431Y32227402D01*
X10517614Y32225814D01*
X10530413Y32224806D01*
X10530422Y32224806D01*
X10534306Y32224500D01*
X12465694Y32224500D01*
X12469578Y32224806D01*
X12469587Y32224806D01*
X12482386Y32225814D01*
X12502569Y32227402D01*
X12512329Y32230238D01*
X12512331Y32230238D01*
X12648372Y32269762D01*
X12648375Y32269763D01*
X12660397Y32273256D01*
X12801864Y32356919D01*
X12918081Y32473136D01*
X13001744Y32614603D01*
X13008413Y32637555D01*
X13044762Y32762669D01*
X13044762Y32762671D01*
X13047598Y32772431D01*
X13050500Y32809306D01*
X13050500Y34393837D01*
X13070207Y34480180D01*
X13108786Y34534551D01*
X13650300Y35076065D01*
X13725288Y35123184D01*
X13813295Y35133100D01*
X13896888Y35103849D01*
X13959512Y35041225D01*
X13988763Y34957632D01*
X13982112Y34879832D01*
X13955239Y34787334D01*
X13952402Y34777569D01*
X13949500Y34740694D01*
X13949500Y32809306D01*
X13952402Y32772431D01*
X13955238Y32762671D01*
X13955238Y32762669D01*
X13991588Y32637555D01*
X13998256Y32614603D01*
X14081919Y32473136D01*
X14198136Y32356919D01*
X14208914Y32350545D01*
X14318637Y32285655D01*
X14382924Y32224740D01*
X14414415Y32141964D01*
X14406872Y32053723D01*
X14361790Y31977493D01*
X14288097Y31928372D01*
X14272858Y31923269D01*
X14148625Y31887176D01*
X14125821Y31877308D01*
X14004280Y31805429D01*
X13984648Y31790201D01*
X13884799Y31690352D01*
X13869571Y31670720D01*
X13797692Y31549179D01*
X13787824Y31526375D01*
X13747773Y31388522D01*
X13744137Y31368612D01*
X13742307Y31345352D01*
X13742000Y31337546D01*
X13742000Y30963923D01*
X13746330Y30944953D01*
X13753500Y30941500D01*
X14605000Y30941500D01*
X14691343Y30921793D01*
X14760584Y30866574D01*
X14799011Y30786782D01*
X14804000Y30742500D01*
X14804000Y29491957D01*
X14802559Y29468050D01*
X14799500Y29442772D01*
X14799500Y28182228D01*
X14810364Y28092453D01*
X14826516Y28051659D01*
X14839977Y27964128D01*
X14814127Y27879421D01*
X14782204Y27837689D01*
X14199939Y27255424D01*
X14180375Y27238267D01*
X14159218Y27222032D01*
X14151280Y27211687D01*
X14151276Y27211683D01*
X14108886Y27156438D01*
X14108885Y27156436D01*
X14062964Y27096591D01*
X14002456Y26950512D01*
X14000753Y26937579D01*
X14000752Y26937574D01*
X13987784Y26839077D01*
X13956976Y26756045D01*
X13922511Y26718705D01*
X13923135Y26718081D01*
X13806919Y26601865D01*
X13723256Y26460398D01*
X13719763Y26448376D01*
X13719762Y26448373D01*
X13681229Y26315741D01*
X13677402Y26302569D01*
X13674500Y26265694D01*
X13674500Y25234306D01*
X13677402Y25197431D01*
X13680238Y25187670D01*
X13680238Y25187669D01*
X13690630Y25151902D01*
X13723256Y25039602D01*
X13806919Y24898135D01*
X13810019Y24895035D01*
X13845435Y24818893D01*
X13844245Y24730338D01*
X13804751Y24651068D01*
X13791561Y24636507D01*
X13781919Y24626865D01*
X13698256Y24485398D01*
X13694763Y24473376D01*
X13694762Y24473373D01*
X13665640Y24373135D01*
X13652402Y24327569D01*
X13651605Y24317438D01*
X13649971Y24296674D01*
X13649500Y24290694D01*
X13649500Y23209306D01*
X13649806Y23205422D01*
X13649806Y23205413D01*
X13650814Y23192614D01*
X13652402Y23172431D01*
X13655238Y23162670D01*
X13655238Y23162669D01*
X13669018Y23115240D01*
X13698256Y23014602D01*
X13781919Y22873135D01*
X13898135Y22756919D01*
X14039602Y22673256D01*
X14051624Y22669763D01*
X14051627Y22669762D01*
X14187669Y22630238D01*
X14187670Y22630238D01*
X14197431Y22627402D01*
X14217614Y22625814D01*
X14230413Y22624806D01*
X14230422Y22624806D01*
X14234306Y22624500D01*
X14865694Y22624500D01*
X14869578Y22624806D01*
X14869587Y22624806D01*
X14882386Y22625814D01*
X14902569Y22627402D01*
X14912330Y22630238D01*
X14912331Y22630238D01*
X15048373Y22669762D01*
X15048376Y22669763D01*
X15060398Y22673256D01*
X15201865Y22756919D01*
X15318081Y22873135D01*
X15328712Y22891111D01*
X15389627Y22955399D01*
X15472403Y22986889D01*
X15560645Y22979346D01*
X15636875Y22934264D01*
X15671288Y22891111D01*
X15681919Y22873135D01*
X15798135Y22756919D01*
X15939602Y22673256D01*
X15951624Y22669763D01*
X15951627Y22669762D01*
X16087669Y22630238D01*
X16087670Y22630238D01*
X16097431Y22627402D01*
X16117614Y22625814D01*
X16130413Y22624806D01*
X16130422Y22624806D01*
X16134306Y22624500D01*
X16765694Y22624500D01*
X16769578Y22624806D01*
X16769587Y22624806D01*
X16782386Y22625814D01*
X16802569Y22627402D01*
X16812330Y22630238D01*
X16812331Y22630238D01*
X16948373Y22669762D01*
X16948376Y22669763D01*
X16960398Y22673256D01*
X17101865Y22756919D01*
X17218081Y22873135D01*
X17301744Y23014602D01*
X17330983Y23115240D01*
X17344762Y23162669D01*
X17344762Y23162670D01*
X17347598Y23172431D01*
X17349186Y23192614D01*
X17350194Y23205413D01*
X17350194Y23205422D01*
X17350500Y23209306D01*
X17350500Y24290694D01*
X17350030Y24296674D01*
X17348395Y24317438D01*
X17347598Y24327569D01*
X17334360Y24373135D01*
X17305238Y24473373D01*
X17305237Y24473376D01*
X17301744Y24485398D01*
X17218081Y24626865D01*
X17208439Y24636507D01*
X17207687Y24637704D01*
X17201555Y24645609D01*
X17202338Y24646216D01*
X17161320Y24711495D01*
X17151404Y24799502D01*
X17180655Y24883095D01*
X17186738Y24891792D01*
X17193081Y24898135D01*
X17199457Y24908916D01*
X17199459Y24908918D01*
X17224819Y24951800D01*
X17285734Y25016087D01*
X17368509Y25047577D01*
X17396106Y25049500D01*
X19228555Y25049500D01*
X19314898Y25029793D01*
X19384139Y24974574D01*
X19421432Y24899485D01*
X19443511Y24812548D01*
X19535883Y24612179D01*
X19663222Y24431998D01*
X19821264Y24278039D01*
X19858838Y24252933D01*
X19997136Y24160525D01*
X19997140Y24160523D01*
X20004717Y24155460D01*
X20013094Y24151861D01*
X20064463Y24129791D01*
X20136015Y24077600D01*
X20177836Y23999533D01*
X20181643Y23911052D01*
X20146683Y23829681D01*
X20079879Y23771537D01*
X20071575Y23767336D01*
X20069512Y23766352D01*
X20060957Y23763196D01*
X19871341Y23650386D01*
X19864485Y23644373D01*
X19864483Y23644372D01*
X19842744Y23625307D01*
X19705457Y23504910D01*
X19699811Y23497748D01*
X19699810Y23497747D01*
X19574510Y23338804D01*
X19574507Y23338800D01*
X19568863Y23331640D01*
X19564617Y23323569D01*
X19564614Y23323565D01*
X19502451Y23205413D01*
X19466131Y23136380D01*
X19400703Y22925667D01*
X19399631Y22916610D01*
X19381779Y22765775D01*
X19374770Y22706560D01*
X19389200Y22486396D01*
X19391445Y22477555D01*
X19391446Y22477551D01*
X19392323Y22474097D01*
X19392383Y22471633D01*
X19392873Y22468539D01*
X19392460Y22468474D01*
X19394477Y22385560D01*
X19358003Y22304856D01*
X19340161Y22284396D01*
X18612439Y21556674D01*
X18592875Y21539517D01*
X18571718Y21523282D01*
X18532267Y21471868D01*
X18475464Y21397841D01*
X18414956Y21251762D01*
X18394318Y21095000D01*
X18396020Y21082072D01*
X18396020Y21082065D01*
X18397797Y21068567D01*
X18399500Y21042592D01*
X18399500Y17705242D01*
X18379793Y17618899D01*
X18348386Y17572085D01*
X18267467Y17482216D01*
X18172821Y17318284D01*
X18169599Y17308369D01*
X18169599Y17308368D01*
X18130948Y17189412D01*
X18114326Y17138256D01*
X18113236Y17127889D01*
X18113236Y17127887D01*
X18102752Y17028132D01*
X18094540Y16950000D01*
X18095630Y16939629D01*
X18109156Y16810939D01*
X18114326Y16761744D01*
X18117548Y16751829D01*
X18117548Y16751827D01*
X18155886Y16633837D01*
X18172821Y16581716D01*
X18267467Y16417784D01*
X18394129Y16277112D01*
X18547270Y16165849D01*
X18720197Y16088856D01*
X18730394Y16086688D01*
X18730399Y16086687D01*
X18818103Y16068046D01*
X18905354Y16049500D01*
X19094646Y16049500D01*
X19181897Y16068046D01*
X19269601Y16086687D01*
X19269606Y16086688D01*
X19279803Y16088856D01*
X19452730Y16165849D01*
X19605871Y16277112D01*
X19732533Y16417784D01*
X19827179Y16581716D01*
X19844114Y16633837D01*
X19882452Y16751827D01*
X19882452Y16751829D01*
X19885674Y16761744D01*
X19890845Y16810939D01*
X19904370Y16939629D01*
X19905460Y16950000D01*
X19897248Y17028132D01*
X19886764Y17127887D01*
X19886764Y17127889D01*
X19885674Y17138256D01*
X19869053Y17189412D01*
X19830401Y17308368D01*
X19830401Y17308369D01*
X19827179Y17318284D01*
X19732533Y17482216D01*
X19651615Y17572085D01*
X19608485Y17649436D01*
X19600500Y17705242D01*
X19600500Y18973246D01*
X19620207Y19059589D01*
X19675426Y19128830D01*
X19755218Y19167257D01*
X19843782Y19167257D01*
X19910058Y19138709D01*
X19997136Y19080525D01*
X19997140Y19080523D01*
X20004717Y19075460D01*
X20112856Y19029000D01*
X20173610Y19002898D01*
X20207436Y18988365D01*
X20216334Y18986351D01*
X20216339Y18986350D01*
X20413735Y18941684D01*
X20413737Y18941684D01*
X20422632Y18939671D01*
X20643098Y18931009D01*
X20799096Y18953628D01*
X20887372Y18946514D01*
X20968364Y18897401D01*
X23091214Y16774551D01*
X23138333Y16699563D01*
X23149500Y16633837D01*
X23149500Y14953966D01*
X23129793Y14867623D01*
X23074574Y14798382D01*
X22994782Y14759955D01*
X22926594Y14756407D01*
X22913043Y14758047D01*
X22898708Y14759782D01*
X22898702Y14759782D01*
X22892772Y14760500D01*
X21157228Y14760500D01*
X21067453Y14749636D01*
X21055574Y14744933D01*
X21055571Y14744932D01*
X20939830Y14699107D01*
X20927217Y14694113D01*
X20916634Y14686080D01*
X20831898Y14660912D01*
X20819107Y14660500D01*
X12996163Y14660500D01*
X12909820Y14680207D01*
X12855449Y14718786D01*
X8608786Y18965449D01*
X8561667Y19040437D01*
X8550500Y19106163D01*
X8550500Y19864774D01*
X9697819Y19864774D01*
X9733907Y19599605D01*
X9808792Y19342683D01*
X9811883Y19335977D01*
X9811885Y19335973D01*
X9917738Y19106360D01*
X9917741Y19106354D01*
X9920831Y19099652D01*
X9959613Y19040500D01*
X10056273Y18893070D01*
X10067562Y18875851D01*
X10245760Y18676197D01*
X10251427Y18671484D01*
X10251432Y18671479D01*
X10365479Y18576628D01*
X10451512Y18505075D01*
X10457821Y18501247D01*
X10457826Y18501243D01*
X10640002Y18390696D01*
X10680298Y18366244D01*
X10687098Y18363392D01*
X10687103Y18363390D01*
X10836972Y18300545D01*
X10927091Y18262755D01*
X11186470Y18196881D01*
X11193817Y18196141D01*
X11193818Y18196141D01*
X11244001Y18191088D01*
X11408741Y18174500D01*
X11567944Y18174500D01*
X11766877Y18189283D01*
X11945458Y18229692D01*
X12020697Y18246717D01*
X12020699Y18246718D01*
X12027891Y18248345D01*
X12034759Y18251016D01*
X12034763Y18251017D01*
X12137036Y18290789D01*
X12277309Y18345338D01*
X12303554Y18360338D01*
X12503236Y18474466D01*
X12503237Y18474467D01*
X12509650Y18478132D01*
X12634591Y18576628D01*
X12714018Y18639243D01*
X12714019Y18639244D01*
X12719811Y18643810D01*
X12903175Y18838731D01*
X13055714Y19058615D01*
X13174076Y19298629D01*
X13204553Y19393837D01*
X13253410Y19546468D01*
X13255662Y19553503D01*
X13298678Y19817636D01*
X13298821Y19828521D01*
X13299296Y19864774D01*
X13697819Y19864774D01*
X13733907Y19599605D01*
X13808792Y19342683D01*
X13811883Y19335977D01*
X13811885Y19335973D01*
X13917738Y19106360D01*
X13917741Y19106354D01*
X13920831Y19099652D01*
X13959613Y19040500D01*
X14056273Y18893070D01*
X14067562Y18875851D01*
X14245760Y18676197D01*
X14251427Y18671484D01*
X14251432Y18671479D01*
X14365479Y18576628D01*
X14451512Y18505075D01*
X14457821Y18501247D01*
X14457826Y18501243D01*
X14640002Y18390696D01*
X14680298Y18366244D01*
X14687098Y18363392D01*
X14687103Y18363390D01*
X14836972Y18300545D01*
X14927091Y18262755D01*
X15186470Y18196881D01*
X15193817Y18196141D01*
X15193818Y18196141D01*
X15244001Y18191088D01*
X15408741Y18174500D01*
X15567944Y18174500D01*
X15766877Y18189283D01*
X15945458Y18229692D01*
X16020697Y18246717D01*
X16020699Y18246718D01*
X16027891Y18248345D01*
X16034759Y18251016D01*
X16034763Y18251017D01*
X16137036Y18290789D01*
X16277309Y18345338D01*
X16303554Y18360338D01*
X16503236Y18474466D01*
X16503237Y18474467D01*
X16509650Y18478132D01*
X16634591Y18576628D01*
X16714018Y18639243D01*
X16714019Y18639244D01*
X16719811Y18643810D01*
X16903175Y18838731D01*
X17055714Y19058615D01*
X17174076Y19298629D01*
X17204553Y19393837D01*
X17253410Y19546468D01*
X17255662Y19553503D01*
X17298678Y19817636D01*
X17298821Y19828521D01*
X17301292Y20017294D01*
X17302181Y20085226D01*
X17266093Y20350395D01*
X17244886Y20423156D01*
X17205498Y20558291D01*
X17191208Y20607317D01*
X17188115Y20614027D01*
X17082262Y20843640D01*
X17082259Y20843646D01*
X17079169Y20850348D01*
X16963440Y21026864D01*
X16936485Y21067977D01*
X16936482Y21067981D01*
X16932438Y21074149D01*
X16754240Y21273803D01*
X16748573Y21278516D01*
X16748568Y21278521D01*
X16554164Y21440204D01*
X16548488Y21444925D01*
X16542179Y21448753D01*
X16542174Y21448757D01*
X16326014Y21579926D01*
X16326012Y21579927D01*
X16319702Y21583756D01*
X16312902Y21586608D01*
X16312897Y21586610D01*
X16079713Y21684392D01*
X16079711Y21684393D01*
X16072909Y21687245D01*
X15813530Y21753119D01*
X15806183Y21753859D01*
X15806182Y21753859D01*
X15732640Y21761264D01*
X15591259Y21775500D01*
X15432056Y21775500D01*
X15233123Y21760717D01*
X15054542Y21720308D01*
X14979303Y21703283D01*
X14979301Y21703282D01*
X14972109Y21701655D01*
X14965241Y21698984D01*
X14965237Y21698983D01*
X14862964Y21659211D01*
X14722691Y21604662D01*
X14716283Y21600999D01*
X14716282Y21600999D01*
X14544241Y21502669D01*
X14490350Y21471868D01*
X14484547Y21467294D01*
X14484548Y21467294D01*
X14331614Y21346730D01*
X14280189Y21306190D01*
X14096825Y21111269D01*
X13944286Y20891385D01*
X13941027Y20884776D01*
X13941025Y20884773D01*
X13935403Y20873372D01*
X13825924Y20651371D01*
X13744338Y20396497D01*
X13701322Y20132364D01*
X13701225Y20124976D01*
X13701225Y20124973D01*
X13699816Y20017294D01*
X13697819Y19864774D01*
X13299296Y19864774D01*
X13301292Y20017294D01*
X13302181Y20085226D01*
X13266093Y20350395D01*
X13244886Y20423156D01*
X13205498Y20558291D01*
X13191208Y20607317D01*
X13188115Y20614027D01*
X13082262Y20843640D01*
X13082259Y20843646D01*
X13079169Y20850348D01*
X12963440Y21026864D01*
X12936485Y21067977D01*
X12936482Y21067981D01*
X12932438Y21074149D01*
X12754240Y21273803D01*
X12748573Y21278516D01*
X12748568Y21278521D01*
X12554164Y21440204D01*
X12548488Y21444925D01*
X12542179Y21448753D01*
X12542174Y21448757D01*
X12326014Y21579926D01*
X12326012Y21579927D01*
X12319702Y21583756D01*
X12312902Y21586608D01*
X12312897Y21586610D01*
X12079713Y21684392D01*
X12079711Y21684393D01*
X12072909Y21687245D01*
X11813530Y21753119D01*
X11806183Y21753859D01*
X11806182Y21753859D01*
X11732640Y21761264D01*
X11591259Y21775500D01*
X11432056Y21775500D01*
X11233123Y21760717D01*
X11054542Y21720308D01*
X10979303Y21703283D01*
X10979301Y21703282D01*
X10972109Y21701655D01*
X10965241Y21698984D01*
X10965237Y21698983D01*
X10862964Y21659211D01*
X10722691Y21604662D01*
X10716283Y21600999D01*
X10716282Y21600999D01*
X10544241Y21502669D01*
X10490350Y21471868D01*
X10484547Y21467294D01*
X10484548Y21467294D01*
X10331614Y21346730D01*
X10280189Y21306190D01*
X10096825Y21111269D01*
X9944286Y20891385D01*
X9941027Y20884776D01*
X9941025Y20884773D01*
X9935403Y20873372D01*
X9825924Y20651371D01*
X9744338Y20396497D01*
X9701322Y20132364D01*
X9701225Y20124976D01*
X9701225Y20124973D01*
X9699816Y20017294D01*
X9697819Y19864774D01*
X8550500Y19864774D01*
X8550500Y20690694D01*
X8547598Y20727569D01*
X8501744Y20885397D01*
X8418081Y21026864D01*
X8301864Y21143081D01*
X8160397Y21226744D01*
X8148375Y21230237D01*
X8148372Y21230238D01*
X8012331Y21269762D01*
X8012329Y21269762D01*
X8002569Y21272598D01*
X7982386Y21274186D01*
X7969587Y21275194D01*
X7969578Y21275194D01*
X7965694Y21275500D01*
X6034306Y21275500D01*
X6030422Y21275194D01*
X6030413Y21275194D01*
X6017614Y21274186D01*
X5997431Y21272598D01*
X5987671Y21269762D01*
X5987669Y21269762D01*
X5851628Y21230238D01*
X5851625Y21230237D01*
X5839603Y21226744D01*
X5698136Y21143081D01*
X5581919Y21026864D01*
X5498256Y20885397D01*
X5452402Y20727569D01*
X5449500Y20690694D01*
X5449500Y18759306D01*
X5452402Y18722431D01*
X5455238Y18712669D01*
X5455239Y18712666D01*
X5482112Y18620168D01*
X5487277Y18531756D01*
X5453569Y18449858D01*
X5387665Y18390696D01*
X5302618Y18365988D01*
X5215273Y18380626D01*
X5150300Y18423935D01*
X4608786Y18965449D01*
X4561667Y19040437D01*
X4550500Y19106163D01*
X4550500Y20690694D01*
X4547598Y20727569D01*
X4501744Y20885397D01*
X4418081Y21026864D01*
X4301864Y21143081D01*
X4160397Y21226744D01*
X4148375Y21230237D01*
X4148372Y21230238D01*
X4012331Y21269762D01*
X4012329Y21269762D01*
X4002569Y21272598D01*
X3982386Y21274186D01*
X3969587Y21275194D01*
X3969578Y21275194D01*
X3965694Y21275500D01*
X2034306Y21275500D01*
X2030422Y21275194D01*
X2030413Y21275194D01*
X2017614Y21274186D01*
X1997431Y21272598D01*
X1987671Y21269762D01*
X1987669Y21269762D01*
X1851628Y21230238D01*
X1851625Y21230237D01*
X1839603Y21226744D01*
X1698136Y21143081D01*
X1581919Y21026864D01*
X1498256Y20885397D01*
X1452402Y20727569D01*
X1449500Y20690694D01*
X1449500Y18759306D01*
X400500Y18759306D01*
X400500Y30037459D01*
X13742001Y30037459D01*
X13742308Y30029641D01*
X13744138Y30006385D01*
X13747772Y29986483D01*
X13787824Y29848625D01*
X13797692Y29825821D01*
X13869571Y29704280D01*
X13884799Y29684648D01*
X13984648Y29584799D01*
X14004280Y29569571D01*
X14125821Y29497692D01*
X14148625Y29487824D01*
X14274469Y29451262D01*
X14292319Y29450220D01*
X14296000Y29462891D01*
X14296000Y30411077D01*
X14291670Y30430047D01*
X14284500Y30433500D01*
X13764424Y30433500D01*
X13745454Y30429170D01*
X13742001Y30422000D01*
X13742001Y30037459D01*
X400500Y30037459D01*
X400500Y33414774D01*
X1197819Y33414774D01*
X1218436Y33263282D01*
X1227796Y33194511D01*
X1233907Y33149605D01*
X1235974Y33142512D01*
X1235975Y33142509D01*
X1275963Y33005316D01*
X1308792Y32892683D01*
X1311883Y32885977D01*
X1311885Y32885973D01*
X1417738Y32656360D01*
X1417741Y32656354D01*
X1420831Y32649652D01*
X1477920Y32562577D01*
X1557373Y32441392D01*
X1567562Y32425851D01*
X1745760Y32226197D01*
X1751427Y32221484D01*
X1751432Y32221479D01*
X1862912Y32128763D01*
X1951512Y32055075D01*
X1957821Y32051247D01*
X1957826Y32051243D01*
X2173986Y31920074D01*
X2180298Y31916244D01*
X2187098Y31913392D01*
X2187103Y31913390D01*
X2420287Y31815608D01*
X2427091Y31812755D01*
X2686470Y31746881D01*
X2693817Y31746141D01*
X2693818Y31746141D01*
X2744001Y31741088D01*
X2908741Y31724500D01*
X3067944Y31724500D01*
X3266877Y31739283D01*
X3491900Y31790201D01*
X3520697Y31796717D01*
X3520699Y31796718D01*
X3527891Y31798345D01*
X3534759Y31801016D01*
X3534763Y31801017D01*
X3671553Y31854212D01*
X3777309Y31895338D01*
X3793173Y31904405D01*
X4003236Y32024466D01*
X4003237Y32024467D01*
X4009650Y32028132D01*
X4092826Y32093703D01*
X4214018Y32189243D01*
X4214019Y32189244D01*
X4219811Y32193810D01*
X4403175Y32388731D01*
X4555714Y32608615D01*
X4674076Y32848629D01*
X4685719Y32885000D01*
X4753410Y33096468D01*
X4755662Y33103503D01*
X4798678Y33367636D01*
X4799295Y33414774D01*
X5197819Y33414774D01*
X5218436Y33263282D01*
X5227796Y33194511D01*
X5233907Y33149605D01*
X5235974Y33142512D01*
X5235975Y33142509D01*
X5275963Y33005316D01*
X5308792Y32892683D01*
X5311883Y32885977D01*
X5311885Y32885973D01*
X5417738Y32656360D01*
X5417741Y32656354D01*
X5420831Y32649652D01*
X5477920Y32562577D01*
X5557373Y32441392D01*
X5567562Y32425851D01*
X5745760Y32226197D01*
X5751427Y32221484D01*
X5751432Y32221479D01*
X5862912Y32128763D01*
X5951512Y32055075D01*
X5957821Y32051247D01*
X5957826Y32051243D01*
X6173986Y31920074D01*
X6180298Y31916244D01*
X6187098Y31913392D01*
X6187103Y31913390D01*
X6420287Y31815608D01*
X6427091Y31812755D01*
X6686470Y31746881D01*
X6693817Y31746141D01*
X6693818Y31746141D01*
X6744001Y31741088D01*
X6908741Y31724500D01*
X7067944Y31724500D01*
X7266877Y31739283D01*
X7491900Y31790201D01*
X7520697Y31796717D01*
X7520699Y31796718D01*
X7527891Y31798345D01*
X7534759Y31801016D01*
X7534763Y31801017D01*
X7671553Y31854212D01*
X7777309Y31895338D01*
X7793173Y31904405D01*
X8003236Y32024466D01*
X8003237Y32024467D01*
X8009650Y32028132D01*
X8092826Y32093703D01*
X8214018Y32189243D01*
X8214019Y32189244D01*
X8219811Y32193810D01*
X8403175Y32388731D01*
X8555714Y32608615D01*
X8674076Y32848629D01*
X8685719Y32885000D01*
X8753410Y33096468D01*
X8755662Y33103503D01*
X8798678Y33367636D01*
X8799567Y33435500D01*
X8802084Y33627838D01*
X8802181Y33635226D01*
X8772757Y33851426D01*
X8767090Y33893070D01*
X8767090Y33893071D01*
X8766093Y33900395D01*
X8764006Y33907557D01*
X8693275Y34150225D01*
X8691208Y34157317D01*
X8682723Y34175723D01*
X8582262Y34393640D01*
X8582259Y34393646D01*
X8579169Y34400348D01*
X8499094Y34522482D01*
X8436485Y34617977D01*
X8436482Y34617981D01*
X8432438Y34624149D01*
X8254240Y34823803D01*
X8248573Y34828516D01*
X8248568Y34828521D01*
X8063100Y34982772D01*
X8048488Y34994925D01*
X8042179Y34998753D01*
X8042174Y34998757D01*
X7826014Y35129926D01*
X7826012Y35129927D01*
X7819702Y35133756D01*
X7812902Y35136608D01*
X7812897Y35136610D01*
X7579713Y35234392D01*
X7579711Y35234393D01*
X7572909Y35237245D01*
X7313530Y35303119D01*
X7306183Y35303859D01*
X7306182Y35303859D01*
X7254260Y35309087D01*
X7091259Y35325500D01*
X6932056Y35325500D01*
X6733123Y35310717D01*
X6554817Y35270370D01*
X6479303Y35253283D01*
X6479301Y35253282D01*
X6472109Y35251655D01*
X6465241Y35248984D01*
X6465237Y35248983D01*
X6431016Y35235675D01*
X6222691Y35154662D01*
X6216283Y35150999D01*
X6216282Y35150999D01*
X6191107Y35136610D01*
X5990350Y35021868D01*
X5984547Y35017294D01*
X5984548Y35017294D01*
X5810179Y34879832D01*
X5780189Y34856190D01*
X5596825Y34661269D01*
X5444286Y34441385D01*
X5441027Y34434776D01*
X5441025Y34434773D01*
X5402382Y34356413D01*
X5325924Y34201371D01*
X5323676Y34194349D01*
X5323675Y34194346D01*
X5276423Y34046730D01*
X5244338Y33946497D01*
X5201322Y33682364D01*
X5201225Y33674976D01*
X5201225Y33674973D01*
X5201000Y33657747D01*
X5197819Y33414774D01*
X4799295Y33414774D01*
X4799567Y33435500D01*
X4802084Y33627838D01*
X4802181Y33635226D01*
X4772757Y33851426D01*
X4767090Y33893070D01*
X4767090Y33893071D01*
X4766093Y33900395D01*
X4764006Y33907557D01*
X4693275Y34150225D01*
X4691208Y34157317D01*
X4682723Y34175723D01*
X4582262Y34393640D01*
X4582259Y34393646D01*
X4579169Y34400348D01*
X4499094Y34522482D01*
X4436485Y34617977D01*
X4436482Y34617981D01*
X4432438Y34624149D01*
X4254240Y34823803D01*
X4248573Y34828516D01*
X4248568Y34828521D01*
X4063100Y34982772D01*
X4048488Y34994925D01*
X4042179Y34998753D01*
X4042174Y34998757D01*
X3826014Y35129926D01*
X3826012Y35129927D01*
X3819702Y35133756D01*
X3812902Y35136608D01*
X3812897Y35136610D01*
X3579713Y35234392D01*
X3579711Y35234393D01*
X3572909Y35237245D01*
X3313530Y35303119D01*
X3306183Y35303859D01*
X3306182Y35303859D01*
X3254260Y35309087D01*
X3091259Y35325500D01*
X2932056Y35325500D01*
X2733123Y35310717D01*
X2554817Y35270370D01*
X2479303Y35253283D01*
X2479301Y35253282D01*
X2472109Y35251655D01*
X2465241Y35248984D01*
X2465237Y35248983D01*
X2431016Y35235675D01*
X2222691Y35154662D01*
X2216283Y35150999D01*
X2216282Y35150999D01*
X2191107Y35136610D01*
X1990350Y35021868D01*
X1984547Y35017294D01*
X1984548Y35017294D01*
X1810179Y34879832D01*
X1780189Y34856190D01*
X1596825Y34661269D01*
X1444286Y34441385D01*
X1441027Y34434776D01*
X1441025Y34434773D01*
X1402382Y34356413D01*
X1325924Y34201371D01*
X1323676Y34194349D01*
X1323675Y34194346D01*
X1276423Y34046730D01*
X1244338Y33946497D01*
X1201322Y33682364D01*
X1201225Y33674976D01*
X1201225Y33674973D01*
X1201000Y33657747D01*
X1197819Y33414774D01*
X400500Y33414774D01*
X400500Y40526423D01*
X19267000Y40526423D01*
X19271330Y40507453D01*
X19278500Y40504000D01*
X20223577Y40504000D01*
X20242547Y40508330D01*
X20246000Y40515500D01*
X20246000Y40526423D01*
X20754000Y40526423D01*
X20758330Y40507453D01*
X20765500Y40504000D01*
X21710576Y40504000D01*
X21729546Y40508330D01*
X21732999Y40515500D01*
X21732999Y40545214D01*
X21732467Y40555487D01*
X21723156Y40645234D01*
X21718587Y40666388D01*
X21669752Y40812766D01*
X21660011Y40833562D01*
X21579167Y40964203D01*
X21564899Y40982205D01*
X21456175Y41090741D01*
X21438150Y41104976D01*
X21307363Y41185594D01*
X21286555Y41195297D01*
X21140073Y41243883D01*
X21118951Y41248411D01*
X21030413Y41257483D01*
X21020283Y41258000D01*
X20776423Y41258000D01*
X20757453Y41253670D01*
X20754000Y41246500D01*
X20754000Y40526423D01*
X20246000Y40526423D01*
X20246000Y41235576D01*
X20241670Y41254546D01*
X20234500Y41257999D01*
X19979786Y41257999D01*
X19969513Y41257467D01*
X19879766Y41248156D01*
X19858612Y41243587D01*
X19712234Y41194752D01*
X19691438Y41185011D01*
X19560797Y41104167D01*
X19542795Y41089899D01*
X19434259Y40981175D01*
X19420024Y40963150D01*
X19339406Y40832363D01*
X19329703Y40811555D01*
X19281117Y40665073D01*
X19276589Y40643951D01*
X19267517Y40555413D01*
X19267000Y40545283D01*
X19267000Y40526423D01*
X400500Y40526423D01*
X400500Y44135829D01*
X37777690Y44135829D01*
X37786193Y44123017D01*
X38484145Y43425065D01*
X38500620Y43414713D01*
X38508131Y43417341D01*
X39212034Y44121244D01*
X39222174Y44137382D01*
X39211577Y44148521D01*
X39163619Y44182102D01*
X39148618Y44190762D01*
X38956950Y44280139D01*
X38940674Y44286063D01*
X38736390Y44340801D01*
X38719348Y44343806D01*
X38508653Y44362239D01*
X38491347Y44362239D01*
X38280652Y44343806D01*
X38263610Y44340801D01*
X38059326Y44286063D01*
X38043050Y44280139D01*
X37851382Y44190762D01*
X37836381Y44182102D01*
X37790476Y44149959D01*
X37777690Y44135829D01*
X400500Y44135829D01*
X400500Y44850500D01*
X420207Y44936843D01*
X475426Y45006084D01*
X555218Y45044511D01*
X599500Y45049500D01*
X50400500Y45049500D01*
X50486843Y45029793D01*
G37*
%TD.AperFunction*%
%TA.AperFunction,Conductor*%
G36*
X38666343Y28674293D02*
G01*
X38735584Y28619074D01*
X38774011Y28539282D01*
X38779000Y28495000D01*
X38779000Y27654424D01*
X38783330Y27635454D01*
X38790500Y27632001D01*
X39412541Y27632001D01*
X39420359Y27632308D01*
X39443615Y27634138D01*
X39463514Y27637771D01*
X39544979Y27661440D01*
X39633392Y27666605D01*
X39715290Y27632898D01*
X39774452Y27566994D01*
X39799161Y27481947D01*
X39799500Y27470342D01*
X39799500Y26376874D01*
X39779793Y26290531D01*
X39741214Y26236160D01*
X39661868Y26156814D01*
X39586880Y26109695D01*
X39498873Y26099779D01*
X39415280Y26129030D01*
X39363123Y26181548D01*
X39361349Y26180142D01*
X39339899Y26207205D01*
X39231175Y26315741D01*
X39213150Y26329976D01*
X39082363Y26410594D01*
X39061555Y26420297D01*
X38915073Y26468883D01*
X38893951Y26473411D01*
X38805413Y26482483D01*
X38795283Y26483000D01*
X38776423Y26483000D01*
X38757453Y26478670D01*
X38754000Y26471500D01*
X38754000Y24039424D01*
X38758330Y24020454D01*
X38765500Y24017001D01*
X38795214Y24017001D01*
X38805487Y24017533D01*
X38895234Y24026844D01*
X38916388Y24031413D01*
X39062766Y24080248D01*
X39083562Y24089989D01*
X39214203Y24170833D01*
X39232205Y24185101D01*
X39340741Y24293825D01*
X39362144Y24320926D01*
X39364175Y24319322D01*
X39413944Y24369951D01*
X39497284Y24399917D01*
X39585372Y24390756D01*
X39661973Y24343081D01*
X39748135Y24256919D01*
X39889602Y24173256D01*
X39901624Y24169763D01*
X39901627Y24169762D01*
X40037669Y24130238D01*
X40037670Y24130238D01*
X40047431Y24127402D01*
X40067614Y24125814D01*
X40080413Y24124806D01*
X40080422Y24124806D01*
X40084306Y24124500D01*
X40653415Y24124500D01*
X40739758Y24104793D01*
X40808999Y24049574D01*
X40847426Y23969782D01*
X40847426Y23881218D01*
X40808999Y23801426D01*
X40794129Y23784786D01*
X38243130Y21233787D01*
X38168142Y21186668D01*
X38102416Y21175501D01*
X36731124Y21175501D01*
X36717590Y21175962D01*
X36688343Y21177956D01*
X36675040Y21178863D01*
X36663071Y21179679D01*
X36651252Y21177616D01*
X36651250Y21177616D01*
X36602780Y21169156D01*
X36592470Y21167633D01*
X36543588Y21161718D01*
X36543587Y21161718D01*
X36531681Y21160277D01*
X36520464Y21156039D01*
X36514142Y21154486D01*
X36507866Y21152591D01*
X36496047Y21150528D01*
X36485060Y21145705D01*
X36440008Y21125929D01*
X36430363Y21121993D01*
X36384300Y21104587D01*
X36384296Y21104585D01*
X36373078Y21100346D01*
X36363195Y21093554D01*
X36357421Y21090535D01*
X36351784Y21087202D01*
X36340798Y21082379D01*
X36322798Y21068567D01*
X36292220Y21045104D01*
X36283793Y21038982D01*
X36250480Y21016086D01*
X36233350Y21004313D01*
X36225370Y20995356D01*
X36193798Y20959921D01*
X36185931Y20951588D01*
X35618129Y20383786D01*
X35543141Y20336667D01*
X35477415Y20325500D01*
X34034306Y20325500D01*
X34030422Y20325194D01*
X34030413Y20325194D01*
X34017614Y20324186D01*
X33997431Y20322598D01*
X33987671Y20319762D01*
X33987669Y20319762D01*
X33851628Y20280238D01*
X33851625Y20280237D01*
X33839603Y20276744D01*
X33698136Y20193081D01*
X33581919Y20076864D01*
X33498256Y19935397D01*
X33494763Y19923375D01*
X33494762Y19923372D01*
X33464426Y19818956D01*
X33452402Y19777569D01*
X33451605Y19767438D01*
X33449968Y19746636D01*
X33449500Y19740694D01*
X33449500Y17809306D01*
X33452402Y17772431D01*
X33455238Y17762671D01*
X33455238Y17762669D01*
X33483624Y17664967D01*
X33498256Y17614603D01*
X33581919Y17473136D01*
X33698136Y17356919D01*
X33839603Y17273256D01*
X33851625Y17269763D01*
X33851628Y17269762D01*
X33987669Y17230238D01*
X33987671Y17230238D01*
X33997431Y17227402D01*
X34017614Y17225814D01*
X34030413Y17224806D01*
X34030422Y17224806D01*
X34034306Y17224500D01*
X34100500Y17224500D01*
X34186843Y17204793D01*
X34256084Y17149574D01*
X34294511Y17069782D01*
X34299500Y17025500D01*
X34299500Y14781127D01*
X34299039Y14767592D01*
X34297920Y14751171D01*
X34295322Y14713070D01*
X34297385Y14701251D01*
X34297385Y14701249D01*
X34305845Y14652779D01*
X34307368Y14642469D01*
X34314724Y14581680D01*
X34318962Y14570463D01*
X34320515Y14564141D01*
X34322410Y14557864D01*
X34324473Y14546046D01*
X34349095Y14489954D01*
X34353001Y14480382D01*
X34374655Y14423077D01*
X34381449Y14413192D01*
X34384471Y14407410D01*
X34387798Y14401784D01*
X34392621Y14390798D01*
X34399926Y14381278D01*
X34429882Y14342239D01*
X34436007Y14333809D01*
X34463890Y14293239D01*
X34463893Y14293235D01*
X34470688Y14283349D01*
X34479647Y14275367D01*
X34515089Y14243789D01*
X34523422Y14235922D01*
X38241214Y10518130D01*
X38288333Y10443142D01*
X38299500Y10377416D01*
X38299500Y6474500D01*
X38279793Y6388157D01*
X38224574Y6318916D01*
X38144782Y6280489D01*
X38100500Y6275500D01*
X38034306Y6275500D01*
X38030422Y6275194D01*
X38030413Y6275194D01*
X38017614Y6274186D01*
X37997431Y6272598D01*
X37987671Y6269762D01*
X37987669Y6269762D01*
X37851628Y6230238D01*
X37851625Y6230237D01*
X37839603Y6226744D01*
X37698136Y6143081D01*
X37581919Y6026864D01*
X37498256Y5885397D01*
X37494763Y5873375D01*
X37494762Y5873372D01*
X37458579Y5748829D01*
X37452402Y5727569D01*
X37451305Y5713630D01*
X37450111Y5698453D01*
X37449500Y5690694D01*
X37449500Y3772585D01*
X37429793Y3686242D01*
X37391214Y3631871D01*
X37168129Y3408786D01*
X37093141Y3361667D01*
X37027415Y3350500D01*
X36404306Y3350500D01*
X36317963Y3370207D01*
X36248722Y3425426D01*
X36210295Y3505218D01*
X36210295Y3593782D01*
X36248722Y3673574D01*
X36259361Y3685852D01*
X36398115Y3833351D01*
X36398121Y3833359D01*
X36403175Y3838731D01*
X36555714Y4058615D01*
X36674076Y4298629D01*
X36727867Y4466670D01*
X36753410Y4546468D01*
X36755662Y4553503D01*
X36798678Y4817636D01*
X36802181Y5085226D01*
X36766093Y5350395D01*
X36752412Y5397335D01*
X36693275Y5600225D01*
X36691208Y5607317D01*
X36675486Y5641421D01*
X36582262Y5843640D01*
X36582259Y5843646D01*
X36579169Y5850348D01*
X36470506Y6016086D01*
X36436485Y6067977D01*
X36436482Y6067981D01*
X36432438Y6074149D01*
X36254240Y6273803D01*
X36248573Y6278516D01*
X36248568Y6278521D01*
X36054164Y6440204D01*
X36048488Y6444925D01*
X36042179Y6448753D01*
X36042174Y6448757D01*
X35826014Y6579926D01*
X35826012Y6579927D01*
X35819702Y6583756D01*
X35812902Y6586608D01*
X35812897Y6586610D01*
X35579713Y6684392D01*
X35579711Y6684393D01*
X35572909Y6687245D01*
X35313530Y6753119D01*
X35306183Y6753859D01*
X35306182Y6753859D01*
X35232640Y6761264D01*
X35091259Y6775500D01*
X34932056Y6775500D01*
X34733123Y6760717D01*
X34554542Y6720308D01*
X34479303Y6703283D01*
X34479301Y6703282D01*
X34472109Y6701655D01*
X34465241Y6698984D01*
X34465237Y6698983D01*
X34427717Y6684392D01*
X34222691Y6604662D01*
X34216283Y6600999D01*
X34216282Y6600999D01*
X34191107Y6586610D01*
X33990350Y6471868D01*
X33780189Y6306190D01*
X33596825Y6111269D01*
X33444286Y5891385D01*
X33441027Y5884776D01*
X33441025Y5884773D01*
X33412709Y5827353D01*
X33325924Y5651371D01*
X33323676Y5644349D01*
X33323675Y5644346D01*
X33290430Y5540487D01*
X33244338Y5396497D01*
X33201322Y5132364D01*
X33197819Y4864774D01*
X33233907Y4599605D01*
X33235974Y4592512D01*
X33235975Y4592509D01*
X33274743Y4459500D01*
X33308792Y4342683D01*
X33311883Y4335977D01*
X33311885Y4335973D01*
X33417738Y4106360D01*
X33417741Y4106354D01*
X33420831Y4099652D01*
X33567562Y3875851D01*
X33740574Y3682007D01*
X33783364Y3604471D01*
X33788275Y3516044D01*
X33754332Y3434243D01*
X33688259Y3375271D01*
X33603141Y3350806D01*
X33592107Y3350500D01*
X22922584Y3350500D01*
X22836241Y3370207D01*
X22781870Y3408786D01*
X21908786Y4281871D01*
X21861667Y4356860D01*
X21850500Y4422585D01*
X21850500Y4790694D01*
X21847598Y4827569D01*
X21836789Y4864774D01*
X21805238Y4973373D01*
X21805237Y4973376D01*
X21801744Y4985398D01*
X21790872Y5003782D01*
X21763885Y5088133D01*
X21776168Y5175841D01*
X21821448Y5245792D01*
X22036233Y5460576D01*
X22256871Y5681214D01*
X22331860Y5728333D01*
X22397585Y5739500D01*
X26966090Y5739500D01*
X26967132Y5739497D01*
X27056105Y5739031D01*
X27057732Y5739422D01*
X27059090Y5739500D01*
X27842772Y5739500D01*
X27932547Y5750364D01*
X27944426Y5755067D01*
X27944429Y5755068D01*
X28060172Y5800894D01*
X28072783Y5805887D01*
X28192922Y5897078D01*
X28284113Y6017217D01*
X28321351Y6111269D01*
X28334932Y6145571D01*
X28334933Y6145574D01*
X28339636Y6157453D01*
X28350500Y6247228D01*
X28350500Y6632772D01*
X28339636Y6722547D01*
X28284113Y6862783D01*
X28275915Y6873583D01*
X28275913Y6873587D01*
X28214356Y6954684D01*
X28177850Y7035374D01*
X28179970Y7123912D01*
X28214356Y7195316D01*
X28275913Y7276413D01*
X28275915Y7276417D01*
X28284113Y7287217D01*
X28332241Y7408774D01*
X28334932Y7415571D01*
X28334933Y7415574D01*
X28339636Y7427453D01*
X28350500Y7517228D01*
X28350500Y7902772D01*
X28339636Y7992547D01*
X28284113Y8132783D01*
X28275915Y8143583D01*
X28275913Y8143587D01*
X28214356Y8224684D01*
X28177850Y8305374D01*
X28179970Y8393912D01*
X28214356Y8465316D01*
X28275913Y8546413D01*
X28275915Y8546417D01*
X28284113Y8557217D01*
X28339636Y8697453D01*
X28350500Y8787228D01*
X28350500Y9172772D01*
X28339636Y9262547D01*
X28334139Y9276433D01*
X28289106Y9390172D01*
X28284113Y9402783D01*
X28275915Y9413583D01*
X28275913Y9413587D01*
X28214356Y9494684D01*
X28177850Y9575374D01*
X28179970Y9663912D01*
X28214356Y9735316D01*
X28275913Y9816413D01*
X28275915Y9816417D01*
X28284113Y9827217D01*
X28339636Y9967453D01*
X28350500Y10057228D01*
X28350500Y10442772D01*
X28339636Y10532547D01*
X28317342Y10588856D01*
X28294225Y10647244D01*
X28280764Y10734779D01*
X28306616Y10819485D01*
X28366660Y10884586D01*
X28449004Y10917188D01*
X28479251Y10919500D01*
X28677321Y10919500D01*
X28763664Y10899793D01*
X28825206Y10853658D01*
X28887150Y10784862D01*
X28887154Y10784858D01*
X28894129Y10777112D01*
X29047270Y10665849D01*
X29220197Y10588856D01*
X29230394Y10586688D01*
X29230399Y10586687D01*
X29318103Y10568046D01*
X29405354Y10549500D01*
X29594646Y10549500D01*
X29681897Y10568046D01*
X29769601Y10586687D01*
X29769606Y10586688D01*
X29779803Y10588856D01*
X29952730Y10665849D01*
X30105871Y10777112D01*
X30232533Y10917784D01*
X30327179Y11081716D01*
X30336692Y11110993D01*
X30382452Y11251827D01*
X30382452Y11251829D01*
X30385674Y11261744D01*
X30386764Y11272113D01*
X30404698Y11442746D01*
X30433323Y11526556D01*
X30461894Y11562659D01*
X31537561Y12638326D01*
X31557125Y12655483D01*
X31578282Y12671718D01*
X31674536Y12797159D01*
X31735044Y12943238D01*
X31750500Y13060639D01*
X31755682Y13100000D01*
X31753980Y13112928D01*
X31753980Y13112935D01*
X31752203Y13126433D01*
X31750500Y13152408D01*
X31750500Y22568837D01*
X31770207Y22655180D01*
X31808786Y22709551D01*
X33829021Y24729786D01*
X37492001Y24729786D01*
X37492533Y24719513D01*
X37501844Y24629766D01*
X37506413Y24608612D01*
X37555248Y24462234D01*
X37564989Y24441438D01*
X37645833Y24310797D01*
X37660101Y24292795D01*
X37768825Y24184259D01*
X37786850Y24170024D01*
X37917637Y24089406D01*
X37938445Y24079703D01*
X38084927Y24031117D01*
X38106049Y24026589D01*
X38194587Y24017517D01*
X38204717Y24017000D01*
X38223577Y24017000D01*
X38242547Y24021330D01*
X38246000Y24028500D01*
X38246000Y24973577D01*
X38241670Y24992547D01*
X38234500Y24996000D01*
X37514424Y24996000D01*
X37495454Y24991670D01*
X37492001Y24984500D01*
X37492001Y24729786D01*
X33829021Y24729786D01*
X34625658Y25526423D01*
X37492000Y25526423D01*
X37496330Y25507453D01*
X37503500Y25504000D01*
X38223577Y25504000D01*
X38242547Y25508330D01*
X38246000Y25515500D01*
X38246000Y26460576D01*
X38241670Y26479546D01*
X38234500Y26482999D01*
X38204786Y26482999D01*
X38194513Y26482467D01*
X38104766Y26473156D01*
X38083612Y26468587D01*
X37937234Y26419752D01*
X37916438Y26410011D01*
X37785797Y26329167D01*
X37767795Y26314899D01*
X37659259Y26206175D01*
X37645024Y26188150D01*
X37564406Y26057363D01*
X37554703Y26036555D01*
X37506117Y25890073D01*
X37501589Y25868951D01*
X37492517Y25780413D01*
X37492000Y25770283D01*
X37492000Y25526423D01*
X34625658Y25526423D01*
X36938627Y27839392D01*
X37013615Y27886511D01*
X37101622Y27896427D01*
X37185215Y27867176D01*
X37220055Y27839392D01*
X37284648Y27774799D01*
X37304280Y27759571D01*
X37425821Y27687692D01*
X37448625Y27677824D01*
X37586478Y27637773D01*
X37606388Y27634137D01*
X37629648Y27632307D01*
X37637454Y27632000D01*
X38248577Y27632000D01*
X38267547Y27636330D01*
X38271000Y27643500D01*
X38271000Y28495000D01*
X38290707Y28581343D01*
X38345926Y28650584D01*
X38425718Y28689011D01*
X38470000Y28694000D01*
X38580000Y28694000D01*
X38666343Y28674293D01*
G37*
%TD.AperFunction*%
%TA.AperFunction,Conductor*%
G36*
X35765535Y30954793D02*
G01*
X35819906Y30916214D01*
X36127166Y30608954D01*
X36144329Y30589384D01*
X36159549Y30569549D01*
X36189729Y30546391D01*
X36189732Y30546388D01*
X36279768Y30477301D01*
X36361776Y30443333D01*
X36419764Y30419313D01*
X36432692Y30417611D01*
X36532280Y30404500D01*
X36557070Y30401236D01*
X36557072Y30401236D01*
X36570000Y30399534D01*
X36594799Y30402799D01*
X36620760Y30404500D01*
X37030648Y30404500D01*
X37116991Y30384793D01*
X37186232Y30329574D01*
X37224659Y30249782D01*
X37224659Y30161218D01*
X37215677Y30132252D01*
X37160364Y29992547D01*
X37149500Y29902772D01*
X37149500Y29831163D01*
X37129793Y29744820D01*
X37091214Y29690449D01*
X30762439Y23361674D01*
X30742875Y23344517D01*
X30721718Y23328282D01*
X30642823Y23225464D01*
X30625464Y23202841D01*
X30564956Y23056762D01*
X30544318Y22900000D01*
X30546020Y22887072D01*
X30546020Y22887065D01*
X30547797Y22873567D01*
X30549500Y22847592D01*
X30549500Y17858978D01*
X30529793Y17772635D01*
X30474574Y17703394D01*
X30394782Y17664967D01*
X30306218Y17664967D01*
X30226426Y17703394D01*
X30217344Y17711092D01*
X30212844Y17715143D01*
X30205871Y17722888D01*
X30052730Y17834151D01*
X29960309Y17875300D01*
X29889331Y17906902D01*
X29889329Y17906903D01*
X29879803Y17911144D01*
X29869606Y17913312D01*
X29869601Y17913313D01*
X29781897Y17931954D01*
X29694646Y17950500D01*
X29505354Y17950500D01*
X29418103Y17931954D01*
X29330399Y17913313D01*
X29330394Y17913312D01*
X29320197Y17911144D01*
X29310671Y17906903D01*
X29310669Y17906902D01*
X29239691Y17875300D01*
X29147270Y17834151D01*
X28994129Y17722888D01*
X28867467Y17582216D01*
X28772821Y17418284D01*
X28769599Y17408369D01*
X28769599Y17408368D01*
X28743263Y17327313D01*
X28714326Y17238256D01*
X28713236Y17227889D01*
X28713236Y17227887D01*
X28708317Y17181084D01*
X28694540Y17050000D01*
X28714326Y16861744D01*
X28717548Y16851829D01*
X28717548Y16851827D01*
X28761595Y16716265D01*
X28772821Y16681716D01*
X28867467Y16517784D01*
X28874447Y16510032D01*
X28948385Y16427916D01*
X28991515Y16350564D01*
X28999500Y16294758D01*
X28999500Y14081163D01*
X28979793Y13994820D01*
X28941214Y13940449D01*
X28764846Y13764081D01*
X28689858Y13716962D01*
X28601851Y13707046D01*
X28518258Y13736297D01*
X28457608Y13796947D01*
X28452507Y13801527D01*
X28437109Y13806000D01*
X26920000Y13806000D01*
X26833657Y13825707D01*
X26764416Y13880926D01*
X26725989Y13960718D01*
X26721000Y14005000D01*
X26721000Y14336423D01*
X27229000Y14336423D01*
X27233330Y14317453D01*
X27240500Y14314000D01*
X28432570Y14314000D01*
X28450004Y14317979D01*
X28450004Y14331172D01*
X28412176Y14461375D01*
X28402308Y14484179D01*
X28330429Y14605720D01*
X28315201Y14625352D01*
X28215352Y14725201D01*
X28195720Y14740429D01*
X28074179Y14812308D01*
X28051375Y14822176D01*
X27913522Y14862227D01*
X27893612Y14865863D01*
X27870352Y14867693D01*
X27862546Y14868000D01*
X27251423Y14868000D01*
X27232453Y14863670D01*
X27229000Y14856500D01*
X27229000Y14336423D01*
X26721000Y14336423D01*
X26721000Y14845576D01*
X26716670Y14864546D01*
X26709500Y14867999D01*
X26087459Y14867999D01*
X26079629Y14867691D01*
X26065102Y14866549D01*
X25977480Y14879425D01*
X25904122Y14929045D01*
X25859558Y15005579D01*
X25850500Y15064936D01*
X25850500Y19393837D01*
X25870207Y19480180D01*
X25908786Y19534551D01*
X26251469Y19877234D01*
X26919841Y19877234D01*
X26920209Y19857520D01*
X26963937Y19694326D01*
X26969861Y19678050D01*
X27059238Y19486382D01*
X27067898Y19471381D01*
X27189202Y19298142D01*
X27200334Y19284875D01*
X27349875Y19135334D01*
X27363142Y19124202D01*
X27536381Y19002898D01*
X27551382Y18994238D01*
X27743050Y18904861D01*
X27759326Y18898937D01*
X27924341Y18854722D01*
X27941253Y18854089D01*
X27945532Y18871341D01*
X28454000Y18871341D01*
X28457766Y18854841D01*
X28477480Y18855209D01*
X28640674Y18898937D01*
X28656950Y18904861D01*
X28848618Y18994238D01*
X28863619Y19002898D01*
X29036858Y19124202D01*
X29050125Y19135334D01*
X29199666Y19284875D01*
X29210798Y19298142D01*
X29332102Y19471381D01*
X29340762Y19486382D01*
X29430139Y19678050D01*
X29436063Y19694326D01*
X29480278Y19859341D01*
X29480911Y19876253D01*
X29461772Y19881000D01*
X28476423Y19881000D01*
X28457453Y19876670D01*
X28454000Y19869500D01*
X28454000Y18871341D01*
X27945532Y18871341D01*
X27946000Y18873228D01*
X27946000Y19858577D01*
X27941670Y19877547D01*
X27934500Y19881000D01*
X26936341Y19881000D01*
X26919841Y19877234D01*
X26251469Y19877234D01*
X26718513Y20344278D01*
X26793501Y20391397D01*
X26881508Y20401313D01*
X26907130Y20396712D01*
X26938225Y20389000D01*
X29463659Y20389000D01*
X29480159Y20392766D01*
X29479791Y20412480D01*
X29436063Y20575674D01*
X29430139Y20591950D01*
X29340762Y20783618D01*
X29332102Y20798619D01*
X29210798Y20971858D01*
X29199666Y20985125D01*
X29050125Y21134666D01*
X29036858Y21145798D01*
X28863619Y21267102D01*
X28848622Y21275760D01*
X28824154Y21287170D01*
X28754230Y21341521D01*
X28714812Y21420829D01*
X28713709Y21509386D01*
X28751138Y21589651D01*
X28811020Y21641151D01*
X28874924Y21676939D01*
X28874933Y21676945D01*
X28882884Y21681398D01*
X29052518Y21822482D01*
X29193602Y21992116D01*
X29301410Y22184621D01*
X29372331Y22393548D01*
X29403991Y22611902D01*
X29405643Y22675000D01*
X29388585Y22860639D01*
X29386289Y22885626D01*
X29386289Y22885628D01*
X29385454Y22894711D01*
X29325565Y23107064D01*
X29227980Y23304947D01*
X29095967Y23481733D01*
X28933949Y23631501D01*
X28747350Y23749236D01*
X28721656Y23759487D01*
X28648763Y23809785D01*
X28604911Y23886730D01*
X28598788Y23975081D01*
X28631605Y24057340D01*
X28698160Y24117946D01*
X28874924Y24216939D01*
X28874933Y24216945D01*
X28882884Y24221398D01*
X29052518Y24362482D01*
X29193602Y24532116D01*
X29301410Y24724621D01*
X29307677Y24743081D01*
X29337530Y24831029D01*
X29372331Y24933548D01*
X29403991Y25151902D01*
X29405643Y25215000D01*
X29385454Y25434711D01*
X29325565Y25647064D01*
X29227980Y25844947D01*
X29095967Y26021733D01*
X29000810Y26109695D01*
X28940650Y26165307D01*
X28940648Y26165309D01*
X28933949Y26171501D01*
X28747350Y26289236D01*
X28721656Y26299487D01*
X28648763Y26349785D01*
X28604911Y26426730D01*
X28598788Y26515081D01*
X28631605Y26597340D01*
X28698160Y26657946D01*
X28874924Y26756939D01*
X28874933Y26756945D01*
X28882884Y26761398D01*
X29052518Y26902482D01*
X29193602Y27072116D01*
X29198056Y27080070D01*
X29203230Y27087597D01*
X29204732Y27086565D01*
X29256125Y27143435D01*
X29338134Y27176871D01*
X29370376Y27179500D01*
X30868454Y27179500D01*
X30954797Y27159793D01*
X30971095Y27150987D01*
X31134987Y27052316D01*
X31141472Y27049570D01*
X31376331Y26950120D01*
X31376338Y26950118D01*
X31382822Y26947372D01*
X31447390Y26930252D01*
X31636171Y26880197D01*
X31636175Y26880196D01*
X31642972Y26878394D01*
X31834295Y26855749D01*
X31903265Y26847586D01*
X31903267Y26847586D01*
X31910245Y26846760D01*
X32044778Y26849931D01*
X32172282Y26852935D01*
X32172287Y26852935D01*
X32179310Y26853101D01*
X32326307Y26877568D01*
X32437846Y26896133D01*
X32437849Y26896134D01*
X32444796Y26897290D01*
X32451509Y26899413D01*
X32451513Y26899414D01*
X32694695Y26976323D01*
X32694694Y26976323D01*
X32701408Y26978446D01*
X32778154Y27015299D01*
X32937685Y27091904D01*
X32937691Y27091908D01*
X32944025Y27094949D01*
X33167806Y27244474D01*
X33306025Y27368273D01*
X33363042Y27419342D01*
X33363043Y27419343D01*
X33368286Y27424039D01*
X33372809Y27429420D01*
X33372815Y27429426D01*
X33536942Y27624679D01*
X33536943Y27624681D01*
X33541465Y27630060D01*
X33545181Y27636019D01*
X33545185Y27636024D01*
X33680167Y27852463D01*
X33680167Y27852464D01*
X33683887Y27858428D01*
X33732180Y27967665D01*
X33789869Y28098152D01*
X33789872Y28098159D01*
X33792712Y28104584D01*
X33794619Y28111344D01*
X33794621Y28111351D01*
X33863858Y28356850D01*
X33865767Y28363618D01*
X33901595Y28630362D01*
X33901858Y28638710D01*
X33904492Y28722547D01*
X33905355Y28750000D01*
X33902120Y28795701D01*
X33894349Y28905442D01*
X33886347Y29018467D01*
X33838304Y29241616D01*
X33831181Y29274700D01*
X33831179Y29274705D01*
X33829700Y29281577D01*
X33736547Y29534081D01*
X33698223Y29605107D01*
X33612087Y29764745D01*
X33612085Y29764749D01*
X33608744Y29770940D01*
X33476119Y29950500D01*
X33453023Y29981770D01*
X33453021Y29981772D01*
X33448843Y29987429D01*
X33260034Y30179228D01*
X33046083Y30342510D01*
X32996116Y30370493D01*
X32817397Y30470581D01*
X32817393Y30470583D01*
X32811261Y30474017D01*
X32560251Y30571125D01*
X32514884Y30581641D01*
X32435224Y30620334D01*
X32380239Y30689761D01*
X32360822Y30776170D01*
X32380820Y30862446D01*
X32436271Y30931501D01*
X32516192Y30969659D01*
X32559821Y30974500D01*
X35679192Y30974500D01*
X35765535Y30954793D01*
G37*
%TD.AperFunction*%
%TD*%
%TA.AperFunction,NonConductor*%
G36*
X34528535Y40529793D02*
G01*
X34597776Y40474574D01*
X34636203Y40394782D01*
X34636203Y40306218D01*
X34597776Y40226426D01*
X34573401Y40200884D01*
X34442320Y40085930D01*
X34442313Y40085922D01*
X34435457Y40079910D01*
X34429811Y40072748D01*
X34429810Y40072747D01*
X34304510Y39913804D01*
X34304507Y39913800D01*
X34298863Y39906640D01*
X34294617Y39898569D01*
X34294614Y39898565D01*
X34261194Y39835044D01*
X34196131Y39711380D01*
X34193427Y39702671D01*
X34193426Y39702669D01*
X34187028Y39682064D01*
X34130703Y39500667D01*
X34129631Y39491610D01*
X34108816Y39315741D01*
X34104770Y39281560D01*
X34110480Y39194446D01*
X34117455Y39088027D01*
X34119200Y39061396D01*
X34121444Y39052559D01*
X34121445Y39052555D01*
X34144974Y38959913D01*
X34173511Y38847548D01*
X34265883Y38647179D01*
X34271146Y38639732D01*
X34367072Y38504000D01*
X34393222Y38466998D01*
X34551264Y38313039D01*
X34606986Y38275807D01*
X34727136Y38195525D01*
X34727140Y38195523D01*
X34734717Y38190460D01*
X34937436Y38103365D01*
X34946334Y38101351D01*
X34946339Y38101350D01*
X35143735Y38056684D01*
X35143737Y38056684D01*
X35152632Y38054671D01*
X35373098Y38046009D01*
X35382119Y38047317D01*
X35382120Y38047317D01*
X35477016Y38061077D01*
X35591452Y38077669D01*
X35693971Y38112470D01*
X35791740Y38145657D01*
X35791744Y38145659D01*
X35800379Y38148590D01*
X35811929Y38155058D01*
X35875143Y38190460D01*
X35992884Y38256398D01*
X36162518Y38397482D01*
X36303602Y38567116D01*
X36303887Y38566879D01*
X36365056Y38623211D01*
X36449782Y38648998D01*
X36463909Y38649500D01*
X36968837Y38649500D01*
X37055180Y38629793D01*
X37109551Y38591214D01*
X37260854Y38439911D01*
X37307973Y38364923D01*
X37317761Y38275809D01*
X37308259Y38195525D01*
X37296104Y38092827D01*
X37294770Y38081560D01*
X37297611Y38038216D01*
X37308412Y37873422D01*
X37309200Y37861396D01*
X37311444Y37852559D01*
X37311445Y37852555D01*
X37343928Y37724655D01*
X37363511Y37647548D01*
X37455883Y37447179D01*
X37461146Y37439732D01*
X37564991Y37292795D01*
X37583222Y37266998D01*
X37741264Y37113039D01*
X37745912Y37109933D01*
X37799715Y37041426D01*
X37818778Y36954938D01*
X37798429Y36868745D01*
X37742696Y36799916D01*
X37662619Y36762086D01*
X37643691Y36758862D01*
X37567453Y36749636D01*
X37555574Y36744933D01*
X37555571Y36744932D01*
X37457283Y36706017D01*
X37427217Y36694113D01*
X37307078Y36602922D01*
X37215887Y36482783D01*
X37210894Y36470172D01*
X37188394Y36413342D01*
X37160364Y36342547D01*
X37149500Y36252772D01*
X37149500Y35867228D01*
X37160364Y35777453D01*
X37165067Y35765574D01*
X37165068Y35765571D01*
X37205775Y35662756D01*
X37219236Y35575221D01*
X37193384Y35490515D01*
X37133340Y35425414D01*
X37050996Y35392812D01*
X37020749Y35390500D01*
X36591163Y35390500D01*
X36504820Y35410207D01*
X36450449Y35448786D01*
X36201678Y35697557D01*
X36184514Y35717129D01*
X36176225Y35727932D01*
X36176219Y35727938D01*
X36168282Y35738282D01*
X36042841Y35834536D01*
X35949469Y35873212D01*
X35908812Y35890053D01*
X35908810Y35890054D01*
X35896762Y35895044D01*
X35779361Y35910500D01*
X35752928Y35913980D01*
X35740000Y35915682D01*
X35727072Y35913980D01*
X35727065Y35913980D01*
X35713567Y35912203D01*
X35687592Y35910500D01*
X32592408Y35910500D01*
X32566433Y35912203D01*
X32552935Y35913980D01*
X32552928Y35913980D01*
X32540000Y35915682D01*
X32527072Y35913980D01*
X32527065Y35913980D01*
X32513567Y35912203D01*
X32487592Y35910500D01*
X29599499Y35910500D01*
X29513156Y35930207D01*
X29443915Y35985426D01*
X29405488Y36065218D01*
X29400499Y36109500D01*
X29400499Y36206518D01*
X29397108Y36227932D01*
X29388097Y36284831D01*
X29388096Y36284834D01*
X29385646Y36300304D01*
X29372907Y36325307D01*
X29335160Y36399388D01*
X29328050Y36413342D01*
X29238342Y36503050D01*
X29219162Y36512823D01*
X29139260Y36553535D01*
X29125304Y36560646D01*
X29031519Y36575500D01*
X28999500Y36575500D01*
X28913157Y36595207D01*
X28843916Y36650426D01*
X28805489Y36730218D01*
X28800500Y36774500D01*
X28800500Y38687592D01*
X28802203Y38713567D01*
X28803980Y38727063D01*
X28803980Y38727072D01*
X28805682Y38740000D01*
X28803979Y38752933D01*
X28803979Y38763790D01*
X28814540Y38827761D01*
X28859400Y38959913D01*
X28859400Y38959915D01*
X28862331Y38968548D01*
X28893991Y39186902D01*
X28894778Y39216970D01*
X28895490Y39244147D01*
X28895490Y39244151D01*
X28895643Y39250000D01*
X28892743Y39281560D01*
X28876289Y39460626D01*
X28876289Y39460628D01*
X28875454Y39469711D01*
X28815565Y39682064D01*
X28731662Y39852203D01*
X28722016Y39871763D01*
X28722015Y39871764D01*
X28717980Y39879947D01*
X28585967Y40056733D01*
X28426253Y40204371D01*
X28376227Y40277451D01*
X28362864Y40365000D01*
X28388810Y40449677D01*
X28448927Y40514712D01*
X28531308Y40547222D01*
X28561335Y40549500D01*
X34442192Y40549500D01*
X34528535Y40529793D01*
G37*
%TD.AperFunction*%
%TA.AperFunction,NonConductor*%
G36*
X31616927Y34689793D02*
G01*
X31686168Y34634574D01*
X31724595Y34554782D01*
X31724595Y34466218D01*
X31721682Y34454980D01*
X31684089Y34325584D01*
X31677402Y34302569D01*
X31674500Y34265694D01*
X31674500Y33410084D01*
X31654793Y33323741D01*
X31599574Y33254500D01*
X31519782Y33216073D01*
X31431218Y33216073D01*
X31351426Y33254500D01*
X31346954Y33258496D01*
X31343282Y33263282D01*
X31217841Y33359536D01*
X31095808Y33410084D01*
X31083812Y33415053D01*
X31083810Y33415054D01*
X31071762Y33420044D01*
X30954361Y33435500D01*
X30927928Y33438980D01*
X30915000Y33440682D01*
X30902072Y33438980D01*
X30902065Y33438980D01*
X30888567Y33437203D01*
X30862592Y33435500D01*
X29349729Y33435500D01*
X29263386Y33455207D01*
X29190280Y33515433D01*
X29101428Y33634420D01*
X29101427Y33634421D01*
X29095967Y33641733D01*
X29025591Y33706788D01*
X28940650Y33785307D01*
X28940648Y33785309D01*
X28933949Y33791501D01*
X28909066Y33807201D01*
X28846559Y33869942D01*
X28817465Y33953590D01*
X28827545Y34041578D01*
X28874804Y34116478D01*
X28949881Y34163456D01*
X29015255Y34174501D01*
X29031518Y34174501D01*
X29039231Y34175723D01*
X29039237Y34175723D01*
X29109831Y34186903D01*
X29109834Y34186904D01*
X29125304Y34189354D01*
X29139260Y34196465D01*
X29139263Y34196466D01*
X29224388Y34239840D01*
X29238342Y34246950D01*
X29328050Y34336658D01*
X29385646Y34449696D01*
X29400207Y34541631D01*
X29433179Y34623828D01*
X29498549Y34683579D01*
X29583371Y34709049D01*
X29596757Y34709500D01*
X31530584Y34709500D01*
X31616927Y34689793D01*
G37*
%TD.AperFunction*%
%TA.AperFunction,NonConductor*%
G36*
X15736843Y32204793D02*
G01*
X15806084Y32149574D01*
X15844511Y32069782D01*
X15849500Y32025500D01*
X15849500Y31655893D01*
X15829793Y31569550D01*
X15824037Y31558520D01*
X15815887Y31547783D01*
X15810894Y31535171D01*
X15810893Y31535170D01*
X15769169Y31429785D01*
X15760364Y31407547D01*
X15758062Y31388522D01*
X15752927Y31346092D01*
X15722989Y31262742D01*
X15659852Y31200636D01*
X15576020Y31172075D01*
X15488098Y31182715D01*
X15413500Y31230449D01*
X15367001Y31305823D01*
X15356981Y31354396D01*
X15355863Y31368614D01*
X15352228Y31388517D01*
X15312176Y31526375D01*
X15302308Y31549179D01*
X15230429Y31670720D01*
X15215201Y31690352D01*
X15115352Y31790201D01*
X15095723Y31805427D01*
X15013231Y31854212D01*
X14948944Y31915127D01*
X14917453Y31997902D01*
X14924996Y32086144D01*
X14970078Y32162374D01*
X15043770Y32211495D01*
X15114530Y32224500D01*
X15650500Y32224500D01*
X15736843Y32204793D01*
G37*
%TD.AperFunction*%
%TA.AperFunction,NonConductor*%
G36*
X16920180Y35629793D02*
G01*
X16974551Y35591214D01*
X19340854Y33224911D01*
X19387973Y33149923D01*
X19397761Y33060809D01*
X19391193Y33005316D01*
X19376848Y32884113D01*
X19374770Y32866560D01*
X19379596Y32792922D01*
X19387471Y32672783D01*
X19389200Y32646396D01*
X19391444Y32637559D01*
X19391445Y32637555D01*
X19418114Y32532547D01*
X19443511Y32432548D01*
X19535883Y32232179D01*
X19541146Y32224732D01*
X19655297Y32063212D01*
X19663222Y32051998D01*
X19669755Y32045634D01*
X19790127Y31928372D01*
X19821264Y31898039D01*
X19886856Y31854212D01*
X19997136Y31780525D01*
X19997140Y31780523D01*
X20004717Y31775460D01*
X20013094Y31771861D01*
X20064463Y31749791D01*
X20136015Y31697600D01*
X20177836Y31619533D01*
X20181643Y31531052D01*
X20146683Y31449681D01*
X20079879Y31391537D01*
X20071575Y31387336D01*
X20069512Y31386352D01*
X20060957Y31383196D01*
X20053125Y31378537D01*
X20053124Y31378536D01*
X19998591Y31346092D01*
X19871341Y31270386D01*
X19864485Y31264373D01*
X19864483Y31264372D01*
X19842744Y31245307D01*
X19705457Y31124910D01*
X19699813Y31117750D01*
X19699804Y31117741D01*
X19584361Y30971301D01*
X19515431Y30915695D01*
X19428083Y30895500D01*
X17349500Y30895500D01*
X17263157Y30915207D01*
X17193916Y30970426D01*
X17155489Y31050218D01*
X17150500Y31094500D01*
X17150500Y31317772D01*
X17139636Y31407547D01*
X17130832Y31429785D01*
X17089107Y31535170D01*
X17089106Y31535171D01*
X17084113Y31547783D01*
X17076080Y31558366D01*
X17050912Y31643102D01*
X17050500Y31655893D01*
X17050500Y32772592D01*
X17052203Y32798567D01*
X17053980Y32812065D01*
X17053980Y32812072D01*
X17055682Y32825000D01*
X17053980Y32837928D01*
X17053980Y32837935D01*
X17052203Y32851433D01*
X17050500Y32877408D01*
X17050500Y34740694D01*
X17047598Y34777569D01*
X17044761Y34787334D01*
X17005238Y34923372D01*
X17005237Y34923375D01*
X17001744Y34935397D01*
X16918081Y35076864D01*
X16801864Y35193081D01*
X16660397Y35276744D01*
X16661746Y35279025D01*
X16605544Y35320246D01*
X16563928Y35398423D01*
X16560353Y35486914D01*
X16595527Y35568193D01*
X16662483Y35626161D01*
X16755993Y35649500D01*
X16833837Y35649500D01*
X16920180Y35629793D01*
G37*
%TD.AperFunction*%
%TA.AperFunction,NonConductor*%
G36*
X26908535Y40529793D02*
G01*
X26977776Y40474574D01*
X27016203Y40394782D01*
X27016203Y40306218D01*
X26977776Y40226426D01*
X26953401Y40200884D01*
X26822320Y40085930D01*
X26822313Y40085922D01*
X26815457Y40079910D01*
X26809811Y40072748D01*
X26809810Y40072747D01*
X26684510Y39913804D01*
X26684507Y39913800D01*
X26678863Y39906640D01*
X26674617Y39898569D01*
X26674614Y39898565D01*
X26641194Y39835044D01*
X26576131Y39711380D01*
X26573427Y39702671D01*
X26573426Y39702669D01*
X26567028Y39682064D01*
X26510703Y39500667D01*
X26509631Y39491610D01*
X26488816Y39315741D01*
X26484770Y39281560D01*
X26490480Y39194446D01*
X26497455Y39088027D01*
X26499200Y39061396D01*
X26501444Y39052559D01*
X26501445Y39052555D01*
X26524974Y38959913D01*
X26553511Y38847548D01*
X26645883Y38647179D01*
X26651146Y38639732D01*
X26747072Y38504000D01*
X26773222Y38466998D01*
X26931264Y38313039D01*
X26986986Y38275807D01*
X27107136Y38195525D01*
X27107140Y38195523D01*
X27114717Y38190460D01*
X27317436Y38103365D01*
X27444419Y38074632D01*
X27524283Y38036356D01*
X27579631Y37967217D01*
X27599500Y37880539D01*
X27599500Y36774499D01*
X27579793Y36688156D01*
X27524574Y36618915D01*
X27444782Y36580488D01*
X27400500Y36575499D01*
X27368482Y36575499D01*
X27360769Y36574277D01*
X27360763Y36574277D01*
X27290169Y36563097D01*
X27290166Y36563096D01*
X27274696Y36560646D01*
X27260740Y36553535D01*
X27260737Y36553534D01*
X27175612Y36510160D01*
X27161658Y36503050D01*
X27071950Y36413342D01*
X27014354Y36300304D01*
X26999500Y36206519D01*
X26999500Y36198695D01*
X26999501Y35374417D01*
X26999501Y34543482D01*
X27000723Y34535769D01*
X27000723Y34535763D01*
X27011903Y34465169D01*
X27011904Y34465166D01*
X27014354Y34449696D01*
X27021465Y34435740D01*
X27021466Y34435737D01*
X27051426Y34376939D01*
X27071950Y34336658D01*
X27161658Y34246950D01*
X27274696Y34189354D01*
X27368481Y34174500D01*
X27381462Y34174500D01*
X27467805Y34154793D01*
X27537046Y34099574D01*
X27575473Y34019782D01*
X27575473Y33931218D01*
X27537046Y33851426D01*
X27498705Y33814767D01*
X27491341Y33810386D01*
X27325457Y33664910D01*
X27319811Y33657748D01*
X27319810Y33657747D01*
X27194510Y33498804D01*
X27194507Y33498800D01*
X27188863Y33491640D01*
X27184617Y33483569D01*
X27184614Y33483565D01*
X27145954Y33410084D01*
X27086131Y33296380D01*
X27083427Y33287671D01*
X27083426Y33287669D01*
X27066074Y33231785D01*
X27020703Y33085667D01*
X27019631Y33076610D01*
X26996848Y32884113D01*
X26994770Y32866560D01*
X26999596Y32792922D01*
X27007471Y32672783D01*
X27009200Y32646396D01*
X27011444Y32637559D01*
X27011445Y32637555D01*
X27038114Y32532547D01*
X27063511Y32432548D01*
X27067332Y32424260D01*
X27074913Y32407816D01*
X27093166Y32321154D01*
X27072010Y32235155D01*
X27015635Y32166851D01*
X26935207Y32129772D01*
X26894194Y32125500D01*
X25350759Y32125500D01*
X25324788Y32127202D01*
X25300000Y32130465D01*
X25287072Y32128763D01*
X25287071Y32128763D01*
X25262293Y32125501D01*
X25262281Y32125500D01*
X25262278Y32125500D01*
X25262269Y32125499D01*
X25162690Y32112389D01*
X25162688Y32112388D01*
X25149764Y32110687D01*
X25108760Y32093703D01*
X25009767Y32052699D01*
X24919732Y31983612D01*
X24919729Y31983609D01*
X24889549Y31960451D01*
X24881611Y31950106D01*
X24874329Y31940616D01*
X24857166Y31921046D01*
X22619906Y29683786D01*
X22544918Y29636667D01*
X22479192Y29625500D01*
X21898310Y29625500D01*
X21811967Y29645207D01*
X21742726Y29700426D01*
X21704299Y29780218D01*
X21704299Y29868782D01*
X21709867Y29888453D01*
X21752331Y30013548D01*
X21783991Y30231902D01*
X21785643Y30295000D01*
X21778330Y30374582D01*
X21766289Y30505626D01*
X21766289Y30505628D01*
X21765454Y30514711D01*
X21705565Y30727064D01*
X21607980Y30924947D01*
X21589118Y30950207D01*
X21481428Y31094420D01*
X21481427Y31094421D01*
X21475967Y31101733D01*
X21399872Y31172075D01*
X21320650Y31245307D01*
X21320648Y31245309D01*
X21313949Y31251501D01*
X21127350Y31369236D01*
X21101656Y31379487D01*
X21028763Y31429785D01*
X20984911Y31506730D01*
X20978788Y31595081D01*
X21011605Y31677340D01*
X21078160Y31737946D01*
X21254924Y31836939D01*
X21254933Y31836945D01*
X21262884Y31841398D01*
X21432518Y31982482D01*
X21573602Y32152116D01*
X21681410Y32344621D01*
X21696384Y32388731D01*
X21745202Y32532547D01*
X21752331Y32553548D01*
X21783991Y32771902D01*
X21785643Y32835000D01*
X21777942Y32918813D01*
X21766289Y33045626D01*
X21766289Y33045628D01*
X21765454Y33054711D01*
X21705565Y33267064D01*
X21621662Y33437203D01*
X21612016Y33456763D01*
X21612015Y33456764D01*
X21607980Y33464947D01*
X21475967Y33641733D01*
X21405591Y33706788D01*
X21320650Y33785307D01*
X21320648Y33785309D01*
X21313949Y33791501D01*
X21127350Y33909236D01*
X21101656Y33919487D01*
X21028763Y33969785D01*
X20984911Y34046730D01*
X20978788Y34135081D01*
X21011605Y34217340D01*
X21078160Y34277946D01*
X21254924Y34376939D01*
X21254933Y34376945D01*
X21262884Y34381398D01*
X21432518Y34522482D01*
X21573602Y34692116D01*
X21681410Y34884621D01*
X21702305Y34946174D01*
X21746396Y35076065D01*
X21752331Y35093548D01*
X21783991Y35311902D01*
X21785237Y35359500D01*
X21785490Y35369147D01*
X21785490Y35369151D01*
X21785643Y35375000D01*
X21784006Y35392812D01*
X21766289Y35585626D01*
X21766289Y35585628D01*
X21765454Y35594711D01*
X21705565Y35807064D01*
X21607980Y36004947D01*
X21475967Y36181733D01*
X21405591Y36246788D01*
X21320650Y36325307D01*
X21320648Y36325309D01*
X21313949Y36331501D01*
X21306231Y36336371D01*
X21293308Y36344525D01*
X21230803Y36407266D01*
X21201710Y36490915D01*
X21200500Y36512823D01*
X21200500Y37364109D01*
X21220207Y37450452D01*
X21275426Y37519693D01*
X21298200Y37535396D01*
X21366084Y37575543D01*
X21366085Y37575544D01*
X21376865Y37581919D01*
X21386160Y37591214D01*
X21386829Y37591634D01*
X21395609Y37598445D01*
X21396284Y37597575D01*
X21461148Y37638333D01*
X21526874Y37649500D01*
X21568873Y37649500D01*
X21582408Y37649039D01*
X21624960Y37646138D01*
X21636930Y37645322D01*
X21648749Y37647385D01*
X21648751Y37647385D01*
X21697221Y37655845D01*
X21707531Y37657368D01*
X21756413Y37663283D01*
X21756414Y37663283D01*
X21768320Y37664724D01*
X21779537Y37668962D01*
X21785859Y37670515D01*
X21792136Y37672410D01*
X21803954Y37674473D01*
X21860046Y37699095D01*
X21869618Y37703001D01*
X21926923Y37724655D01*
X21936808Y37731449D01*
X21942590Y37734471D01*
X21948216Y37737798D01*
X21959202Y37742621D01*
X22007763Y37779883D01*
X22016191Y37786007D01*
X22056761Y37813890D01*
X22056765Y37813893D01*
X22066651Y37820688D01*
X22106211Y37865089D01*
X22114078Y37873422D01*
X24731870Y40491214D01*
X24806858Y40538333D01*
X24872584Y40549500D01*
X26822192Y40549500D01*
X26908535Y40529793D01*
G37*
%TD.AperFunction*%
%TA.AperFunction,NonConductor*%
G36*
X31517399Y30954793D02*
G01*
X31586640Y30899574D01*
X31625067Y30819782D01*
X31625067Y30731218D01*
X31586640Y30651426D01*
X31517399Y30596207D01*
X31496994Y30587742D01*
X31243292Y30498648D01*
X31090566Y30419313D01*
X31023791Y30384626D01*
X31004455Y30374582D01*
X30998733Y30370493D01*
X30796689Y30226110D01*
X30785481Y30218101D01*
X30780397Y30213251D01*
X30780392Y30213247D01*
X30725852Y30161218D01*
X30590740Y30032328D01*
X30586384Y30026803D01*
X30586379Y30026797D01*
X30474013Y29884260D01*
X30424118Y29820968D01*
X30420585Y29814885D01*
X30420582Y29814881D01*
X30349311Y29692179D01*
X30288939Y29588240D01*
X30187900Y29338787D01*
X30123017Y29077586D01*
X30095585Y28809849D01*
X30095861Y28802823D01*
X30095861Y28802821D01*
X30106152Y28540917D01*
X30104294Y28540844D01*
X30095390Y28463359D01*
X30048106Y28388475D01*
X29973013Y28341522D01*
X29907703Y28330500D01*
X29368398Y28330500D01*
X29282055Y28350207D01*
X29208949Y28410433D01*
X29101428Y28554420D01*
X29101427Y28554421D01*
X29095967Y28561733D01*
X29021725Y28630362D01*
X28940650Y28705307D01*
X28940648Y28705309D01*
X28933949Y28711501D01*
X28926235Y28716368D01*
X28926230Y28716372D01*
X28893310Y28737143D01*
X28830804Y28799884D01*
X28801710Y28883532D01*
X28800500Y28905442D01*
X28800500Y29141091D01*
X28820207Y29227434D01*
X28875426Y29296675D01*
X28878445Y29298912D01*
X28882884Y29301398D01*
X29052518Y29442482D01*
X29193602Y29612116D01*
X29282548Y29770940D01*
X29296954Y29796664D01*
X29296955Y29796665D01*
X29301410Y29804621D01*
X29308607Y29825821D01*
X29361544Y29981770D01*
X29372331Y30013548D01*
X29403991Y30231902D01*
X29405643Y30295000D01*
X29398330Y30374582D01*
X29386289Y30505626D01*
X29386289Y30505628D01*
X29385454Y30514711D01*
X29337267Y30685571D01*
X29327139Y30721484D01*
X29322670Y30809935D01*
X29357020Y30891565D01*
X29423387Y30950207D01*
X29508626Y30974246D01*
X29518668Y30974500D01*
X31431056Y30974500D01*
X31517399Y30954793D01*
G37*
%TD.AperFunction*%
%TA.AperFunction,NonConductor*%
G36*
X45173574Y34883999D02*
G01*
X45190214Y34869129D01*
X45241214Y34818129D01*
X45288333Y34743141D01*
X45299500Y34677415D01*
X45299500Y28372585D01*
X45279793Y28286242D01*
X45241214Y28231871D01*
X45190214Y28180871D01*
X45115226Y28133752D01*
X45027219Y28123836D01*
X44943626Y28153087D01*
X44881002Y28215711D01*
X44851751Y28299304D01*
X44850500Y28321585D01*
X44850500Y28632772D01*
X44839636Y28722547D01*
X44833964Y28736875D01*
X44789106Y28850172D01*
X44784113Y28862783D01*
X44775915Y28873583D01*
X44775913Y28873587D01*
X44714356Y28954684D01*
X44677850Y29035374D01*
X44679970Y29123912D01*
X44714356Y29195316D01*
X44775913Y29276413D01*
X44775915Y29276417D01*
X44784113Y29287217D01*
X44804531Y29338787D01*
X44834932Y29415571D01*
X44834933Y29415574D01*
X44839636Y29427453D01*
X44850500Y29517228D01*
X44850500Y29902772D01*
X44839636Y29992547D01*
X44834742Y30004910D01*
X44789106Y30120172D01*
X44784113Y30132783D01*
X44775915Y30143583D01*
X44775913Y30143587D01*
X44714356Y30224684D01*
X44677850Y30305374D01*
X44679970Y30393912D01*
X44714356Y30465316D01*
X44775913Y30546413D01*
X44775915Y30546417D01*
X44784113Y30557217D01*
X44821413Y30651426D01*
X44834932Y30685571D01*
X44834933Y30685574D01*
X44839636Y30697453D01*
X44850500Y30787228D01*
X44850500Y31172772D01*
X44839636Y31262547D01*
X44806852Y31345352D01*
X44789106Y31390172D01*
X44784113Y31402783D01*
X44775915Y31413583D01*
X44775913Y31413587D01*
X44714356Y31494684D01*
X44677850Y31575374D01*
X44679970Y31663912D01*
X44714356Y31735316D01*
X44775913Y31816413D01*
X44775915Y31816417D01*
X44784113Y31827217D01*
X44819361Y31916244D01*
X44834932Y31955571D01*
X44834933Y31955574D01*
X44839636Y31967453D01*
X44850500Y32057228D01*
X44850500Y32442772D01*
X44839636Y32532547D01*
X44831322Y32553548D01*
X44789106Y32660172D01*
X44784113Y32672783D01*
X44775915Y32683583D01*
X44775913Y32683587D01*
X44714356Y32764684D01*
X44677850Y32845374D01*
X44679970Y32933912D01*
X44714356Y33005316D01*
X44775913Y33086413D01*
X44775915Y33086417D01*
X44784113Y33097217D01*
X44802045Y33142509D01*
X44834932Y33225571D01*
X44834933Y33225574D01*
X44839636Y33237453D01*
X44850500Y33327228D01*
X44850500Y33712772D01*
X44839636Y33802547D01*
X44834902Y33814506D01*
X44789106Y33930172D01*
X44784113Y33942783D01*
X44775915Y33953583D01*
X44775913Y33953587D01*
X44714356Y34034684D01*
X44677850Y34115374D01*
X44679970Y34203912D01*
X44714356Y34275316D01*
X44775913Y34356413D01*
X44775915Y34356417D01*
X44784113Y34367217D01*
X44813478Y34441385D01*
X44834932Y34495571D01*
X44834933Y34495574D01*
X44839636Y34507453D01*
X44850500Y34597228D01*
X44850500Y34728415D01*
X44870207Y34814758D01*
X44925426Y34883999D01*
X45005218Y34922426D01*
X45093782Y34922426D01*
X45173574Y34883999D01*
G37*
%TD.AperFunction*%
%TA.AperFunction,NonConductor*%
G36*
X19362470Y28454793D02*
G01*
X19431711Y28399574D01*
X19470138Y28319782D01*
X19470138Y28231218D01*
X19465458Y28216589D01*
X19466131Y28216380D01*
X19400703Y28005667D01*
X19399631Y27996610D01*
X19376467Y27800894D01*
X19374770Y27786560D01*
X19389200Y27566396D01*
X19391444Y27557559D01*
X19391445Y27557555D01*
X19420888Y27441624D01*
X19443511Y27352548D01*
X19535883Y27152179D01*
X19663222Y26971998D01*
X19669755Y26965634D01*
X19785443Y26852935D01*
X19821264Y26818039D01*
X19828850Y26812970D01*
X19835940Y26807229D01*
X19834666Y26805655D01*
X19886707Y26750615D01*
X19913605Y26666235D01*
X19901229Y26578541D01*
X19852029Y26504901D01*
X19775750Y26459900D01*
X19715310Y26450500D01*
X17396106Y26450500D01*
X17309763Y26470207D01*
X17240522Y26525426D01*
X17224819Y26548200D01*
X17199457Y26591084D01*
X17199455Y26591087D01*
X17193081Y26601865D01*
X17076865Y26718081D01*
X16935398Y26801744D01*
X16923376Y26805237D01*
X16923373Y26805238D01*
X16787331Y26844762D01*
X16787330Y26844762D01*
X16777569Y26847598D01*
X16757386Y26849186D01*
X16744587Y26850194D01*
X16744578Y26850194D01*
X16740694Y26850500D01*
X16084306Y26850500D01*
X16080422Y26850194D01*
X16080413Y26850194D01*
X16067614Y26849186D01*
X16047431Y26847598D01*
X16006833Y26835803D01*
X15918421Y26830640D01*
X15836523Y26864348D01*
X15777361Y26930252D01*
X15752654Y27015299D01*
X15767293Y27102644D01*
X15810601Y27167616D01*
X15887561Y27244576D01*
X15907125Y27261733D01*
X15928282Y27277968D01*
X16024536Y27403409D01*
X16057366Y27482667D01*
X16080053Y27537438D01*
X16080054Y27537440D01*
X16085044Y27549488D01*
X16100500Y27666889D01*
X16105682Y27706250D01*
X16103980Y27719178D01*
X16103980Y27719185D01*
X16102203Y27732683D01*
X16100500Y27758658D01*
X16100500Y27844107D01*
X16120207Y27930450D01*
X16125963Y27941480D01*
X16134113Y27952217D01*
X16146495Y27983490D01*
X16184932Y28080571D01*
X16184933Y28080574D01*
X16189636Y28092453D01*
X16200500Y28182228D01*
X16200500Y28275500D01*
X16220207Y28361843D01*
X16275426Y28431084D01*
X16355218Y28469511D01*
X16399500Y28474500D01*
X19276127Y28474500D01*
X19362470Y28454793D01*
G37*
%TD.AperFunction*%
%TA.AperFunction,NonConductor*%
G36*
X43213759Y40529793D02*
G01*
X43268130Y40491214D01*
X43291214Y40468130D01*
X43338333Y40393142D01*
X43349500Y40327416D01*
X43349500Y39276874D01*
X43329793Y39190531D01*
X43298105Y39145872D01*
X43298445Y39145609D01*
X43292271Y39137650D01*
X43291214Y39136160D01*
X43281919Y39126865D01*
X43198256Y38985398D01*
X43194763Y38973376D01*
X43194762Y38973373D01*
X43155238Y38837331D01*
X43152402Y38827569D01*
X43149500Y38790694D01*
X43149500Y38422585D01*
X43129793Y38336242D01*
X43091214Y38281871D01*
X43001677Y38192334D01*
X42991780Y38183089D01*
X42950604Y38147169D01*
X42943706Y38137354D01*
X42943705Y38137353D01*
X42915405Y38097086D01*
X42909193Y38088722D01*
X42899500Y38076360D01*
X42871416Y38040543D01*
X42866477Y38029604D01*
X42863101Y38024029D01*
X42860013Y38018271D01*
X42853113Y38008453D01*
X42830877Y37951421D01*
X42826841Y37941822D01*
X42806582Y37896952D01*
X42806580Y37896947D01*
X42801645Y37886016D01*
X42799459Y37874221D01*
X42797504Y37867983D01*
X42795882Y37861665D01*
X42791524Y37850487D01*
X42789958Y37838591D01*
X42783534Y37789792D01*
X42781903Y37779498D01*
X42772934Y37731106D01*
X42772934Y37731100D01*
X42770748Y37719308D01*
X42771438Y37707337D01*
X42771438Y37707335D01*
X42774170Y37659955D01*
X42774500Y37648501D01*
X42774500Y36957113D01*
X42754793Y36870770D01*
X42699574Y36801529D01*
X42619782Y36763102D01*
X42599408Y36759554D01*
X42554667Y36754139D01*
X42517453Y36749636D01*
X42505574Y36744933D01*
X42505571Y36744932D01*
X42407283Y36706017D01*
X42377217Y36694113D01*
X42257078Y36602922D01*
X42165887Y36482783D01*
X42160894Y36470172D01*
X42138394Y36413342D01*
X42110364Y36342547D01*
X42099500Y36252772D01*
X42099500Y35867228D01*
X42110364Y35777453D01*
X42115067Y35765574D01*
X42115068Y35765571D01*
X42134248Y35717129D01*
X42165887Y35637217D01*
X42174085Y35626417D01*
X42174087Y35626413D01*
X42235644Y35545316D01*
X42272150Y35464626D01*
X42270030Y35376088D01*
X42235644Y35304684D01*
X42174087Y35223587D01*
X42174085Y35223583D01*
X42165887Y35212783D01*
X42160894Y35200172D01*
X42115580Y35085720D01*
X42110364Y35072547D01*
X42099500Y34982772D01*
X42099500Y34597228D01*
X42110364Y34507453D01*
X42115067Y34495574D01*
X42115068Y34495571D01*
X42136522Y34441385D01*
X42165887Y34367217D01*
X42174085Y34356417D01*
X42174087Y34356413D01*
X42235644Y34275316D01*
X42272150Y34194626D01*
X42270030Y34106088D01*
X42235644Y34034684D01*
X42174087Y33953587D01*
X42174085Y33953583D01*
X42165887Y33942783D01*
X42160894Y33930172D01*
X42115099Y33814506D01*
X42110364Y33802547D01*
X42099500Y33712772D01*
X42099500Y33327228D01*
X42110364Y33237453D01*
X42115067Y33225574D01*
X42115068Y33225571D01*
X42147955Y33142509D01*
X42165887Y33097217D01*
X42174085Y33086417D01*
X42174087Y33086413D01*
X42235644Y33005316D01*
X42272150Y32924626D01*
X42270030Y32836088D01*
X42235644Y32764684D01*
X42174087Y32683587D01*
X42174085Y32683583D01*
X42165887Y32672783D01*
X42160894Y32660172D01*
X42118679Y32553548D01*
X42110364Y32532547D01*
X42099500Y32442772D01*
X42099500Y32057228D01*
X42110364Y31967453D01*
X42115067Y31955574D01*
X42115068Y31955571D01*
X42130639Y31916244D01*
X42165887Y31827217D01*
X42174085Y31816417D01*
X42174087Y31816413D01*
X42235644Y31735316D01*
X42272150Y31654626D01*
X42270030Y31566088D01*
X42235644Y31494684D01*
X42174087Y31413587D01*
X42174085Y31413583D01*
X42165887Y31402783D01*
X42160894Y31390172D01*
X42143149Y31345352D01*
X42110364Y31262547D01*
X42099500Y31172772D01*
X42099500Y30787228D01*
X42110364Y30697453D01*
X42115067Y30685574D01*
X42115068Y30685571D01*
X42128587Y30651426D01*
X42165887Y30557217D01*
X42174085Y30546417D01*
X42174087Y30546413D01*
X42235644Y30465316D01*
X42272150Y30384626D01*
X42270030Y30296088D01*
X42235644Y30224684D01*
X42174087Y30143587D01*
X42174085Y30143583D01*
X42165887Y30132783D01*
X42160894Y30120172D01*
X42115259Y30004910D01*
X42110364Y29992547D01*
X42099500Y29902772D01*
X42099500Y29517228D01*
X42110364Y29427453D01*
X42115067Y29415574D01*
X42115068Y29415571D01*
X42145469Y29338787D01*
X42165887Y29287217D01*
X42174085Y29276417D01*
X42174087Y29276413D01*
X42235644Y29195316D01*
X42272150Y29114626D01*
X42270030Y29026088D01*
X42235644Y28954684D01*
X42174087Y28873587D01*
X42174085Y28873583D01*
X42165887Y28862783D01*
X42160894Y28850172D01*
X42116037Y28736875D01*
X42110364Y28722547D01*
X42099500Y28632772D01*
X42099500Y28247228D01*
X42110364Y28157453D01*
X42115067Y28145574D01*
X42115068Y28145571D01*
X42152249Y28051662D01*
X42165887Y28017217D01*
X42257078Y27897078D01*
X42377217Y27805887D01*
X42389828Y27800894D01*
X42505571Y27755068D01*
X42505574Y27755067D01*
X42517453Y27750364D01*
X42607228Y27739500D01*
X44268415Y27739500D01*
X44354758Y27719793D01*
X44423999Y27664574D01*
X44462426Y27584782D01*
X44462426Y27496218D01*
X44423999Y27416426D01*
X44409129Y27399786D01*
X41640214Y24630871D01*
X41565226Y24583752D01*
X41477219Y24573836D01*
X41393626Y24603087D01*
X41331002Y24665711D01*
X41301751Y24749304D01*
X41300500Y24771585D01*
X41300500Y25790694D01*
X41297598Y25827569D01*
X41287140Y25863565D01*
X41255238Y25973373D01*
X41255237Y25973376D01*
X41251744Y25985398D01*
X41168081Y26126865D01*
X41058786Y26236160D01*
X41011667Y26311148D01*
X41000500Y26376874D01*
X41000500Y32697592D01*
X41002203Y32723567D01*
X41003980Y32737065D01*
X41003980Y32737072D01*
X41005682Y32750000D01*
X40985044Y32906762D01*
X40924536Y33052841D01*
X40852450Y33146786D01*
X40852449Y33146787D01*
X40828282Y33178282D01*
X40807132Y33194511D01*
X40787562Y33211674D01*
X40091678Y33907557D01*
X40074514Y33927129D01*
X40066225Y33937932D01*
X40066219Y33937938D01*
X40058282Y33948282D01*
X39932841Y34044536D01*
X39920793Y34049527D01*
X39920785Y34049531D01*
X39909693Y34054125D01*
X39837464Y34105374D01*
X39794625Y34182887D01*
X39789660Y34271311D01*
X39820981Y34343616D01*
X39819251Y34344591D01*
X39825913Y34356413D01*
X39834113Y34367217D01*
X39863478Y34441385D01*
X39884932Y34495571D01*
X39884933Y34495574D01*
X39889636Y34507453D01*
X39900500Y34597228D01*
X39900500Y34982772D01*
X39889636Y35072547D01*
X39884421Y35085720D01*
X39839106Y35200172D01*
X39834113Y35212783D01*
X39825915Y35223583D01*
X39825913Y35223587D01*
X39764356Y35304684D01*
X39727850Y35385374D01*
X39729970Y35473912D01*
X39764356Y35545316D01*
X39825913Y35626413D01*
X39825915Y35626417D01*
X39834113Y35637217D01*
X39865752Y35717129D01*
X39884932Y35765571D01*
X39884933Y35765574D01*
X39889636Y35777453D01*
X39900500Y35867228D01*
X39900500Y36252772D01*
X39889636Y36342547D01*
X39861607Y36413342D01*
X39839106Y36470172D01*
X39834113Y36482783D01*
X39742922Y36602922D01*
X39622783Y36694113D01*
X39592717Y36706017D01*
X39494429Y36744932D01*
X39494426Y36744933D01*
X39482547Y36749636D01*
X39392772Y36760500D01*
X39377587Y36760500D01*
X39291244Y36780207D01*
X39222003Y36835426D01*
X39183576Y36915218D01*
X39183576Y37003782D01*
X39222003Y37083574D01*
X39250338Y37112499D01*
X39345507Y37191651D01*
X39352518Y37197482D01*
X39493602Y37367116D01*
X39601410Y37559621D01*
X39608980Y37581919D01*
X39649460Y37701172D01*
X39672331Y37768548D01*
X39703991Y37986902D01*
X39705286Y38036356D01*
X39705490Y38044147D01*
X39705490Y38044151D01*
X39705643Y38050000D01*
X39692271Y38195525D01*
X39686289Y38260626D01*
X39686289Y38260628D01*
X39685454Y38269711D01*
X39625565Y38482064D01*
X39527980Y38679947D01*
X39518653Y38692438D01*
X39401428Y38849420D01*
X39401427Y38849421D01*
X39395967Y38856733D01*
X39284348Y38959913D01*
X39240650Y39000307D01*
X39240648Y39000309D01*
X39233949Y39006501D01*
X39047350Y39124236D01*
X39038883Y39127614D01*
X39038879Y39127616D01*
X38944886Y39165115D01*
X38842421Y39205994D01*
X38626024Y39249038D01*
X38512859Y39250519D01*
X38414531Y39251807D01*
X38414526Y39251807D01*
X38405406Y39251926D01*
X38396416Y39250381D01*
X38396413Y39250381D01*
X38316064Y39236574D01*
X38286707Y39231530D01*
X38198274Y39236331D01*
X38120681Y39279026D01*
X38112293Y39286942D01*
X37761674Y39637561D01*
X37744517Y39657125D01*
X37728282Y39678282D01*
X37602841Y39774536D01*
X37509088Y39813370D01*
X37468812Y39830053D01*
X37468810Y39830054D01*
X37456762Y39835044D01*
X37339361Y39850500D01*
X37312928Y39853980D01*
X37300000Y39855682D01*
X37287072Y39853980D01*
X37287065Y39853980D01*
X37273567Y39852203D01*
X37247592Y39850500D01*
X36459729Y39850500D01*
X36373386Y39870207D01*
X36300280Y39930433D01*
X36211428Y40049420D01*
X36211427Y40049421D01*
X36205967Y40056733D01*
X36046253Y40204371D01*
X35996227Y40277451D01*
X35982864Y40365000D01*
X36008810Y40449677D01*
X36068927Y40514712D01*
X36151308Y40547222D01*
X36181335Y40549500D01*
X43127416Y40549500D01*
X43213759Y40529793D01*
G37*
%TD.AperFunction*%
%TA.AperFunction,NonConductor*%
G36*
X26970038Y30954793D02*
G01*
X27039279Y30899574D01*
X27077706Y30819782D01*
X27077706Y30731218D01*
X27073744Y30716489D01*
X27027819Y30568584D01*
X27020703Y30545667D01*
X27019631Y30536610D01*
X26996153Y30338241D01*
X26994770Y30326560D01*
X26995367Y30317456D01*
X27007471Y30132783D01*
X27009200Y30106396D01*
X27011444Y30097559D01*
X27011445Y30097555D01*
X27035097Y30004426D01*
X27063511Y29892548D01*
X27155883Y29692179D01*
X27161146Y29684732D01*
X27275297Y29523212D01*
X27283222Y29511998D01*
X27441264Y29358039D01*
X27448846Y29352973D01*
X27511059Y29311403D01*
X27571902Y29247047D01*
X27598796Y29162666D01*
X27599500Y29145941D01*
X27599500Y28907897D01*
X27579793Y28821554D01*
X27524574Y28752313D01*
X27502248Y28736875D01*
X27491341Y28730386D01*
X27484485Y28724373D01*
X27484483Y28724372D01*
X27444162Y28689011D01*
X27325457Y28584910D01*
X27319811Y28577748D01*
X27319810Y28577747D01*
X27194510Y28418804D01*
X27194507Y28418800D01*
X27188863Y28411640D01*
X27184617Y28403569D01*
X27184614Y28403565D01*
X27176675Y28388475D01*
X27086131Y28216380D01*
X27083427Y28207671D01*
X27083426Y28207669D01*
X27075105Y28180871D01*
X27020703Y28005667D01*
X27019631Y27996610D01*
X26996467Y27800894D01*
X26994770Y27786560D01*
X27009200Y27566396D01*
X27011444Y27557559D01*
X27011445Y27557555D01*
X27040888Y27441624D01*
X27063511Y27352548D01*
X27155883Y27152179D01*
X27283222Y26971998D01*
X27289755Y26965634D01*
X27405443Y26852935D01*
X27441264Y26818039D01*
X27517308Y26767228D01*
X27617136Y26700525D01*
X27617140Y26700523D01*
X27624717Y26695460D01*
X27633094Y26691861D01*
X27684463Y26669791D01*
X27756015Y26617600D01*
X27797836Y26539533D01*
X27801643Y26451052D01*
X27766683Y26369681D01*
X27699879Y26311537D01*
X27691575Y26307336D01*
X27689512Y26306352D01*
X27680957Y26303196D01*
X27673125Y26298537D01*
X27673124Y26298536D01*
X27617922Y26265694D01*
X27491341Y26190386D01*
X27484485Y26184373D01*
X27484483Y26184372D01*
X27465415Y26167650D01*
X27325457Y26044910D01*
X27319811Y26037748D01*
X27319810Y26037747D01*
X27194510Y25878804D01*
X27194507Y25878800D01*
X27188863Y25871640D01*
X27184617Y25863569D01*
X27184614Y25863565D01*
X27140866Y25780413D01*
X27086131Y25676380D01*
X27020703Y25465667D01*
X26994770Y25246560D01*
X26995990Y25227953D01*
X27007812Y25047577D01*
X27009200Y25026396D01*
X27011444Y25017559D01*
X27011445Y25017555D01*
X27034975Y24924906D01*
X27063511Y24812548D01*
X27155883Y24612179D01*
X27283222Y24431998D01*
X27441264Y24278039D01*
X27478838Y24252933D01*
X27617136Y24160525D01*
X27617140Y24160523D01*
X27624717Y24155460D01*
X27633094Y24151861D01*
X27684463Y24129791D01*
X27756015Y24077600D01*
X27797836Y23999533D01*
X27801643Y23911052D01*
X27766683Y23829681D01*
X27699879Y23771537D01*
X27691575Y23767336D01*
X27689512Y23766352D01*
X27680957Y23763196D01*
X27491341Y23650386D01*
X27484485Y23644373D01*
X27484483Y23644372D01*
X27462744Y23625307D01*
X27325457Y23504910D01*
X27319811Y23497748D01*
X27319810Y23497747D01*
X27194510Y23338804D01*
X27194507Y23338800D01*
X27188863Y23331640D01*
X27184617Y23323569D01*
X27184614Y23323565D01*
X27122451Y23205413D01*
X27086131Y23136380D01*
X27020703Y22925667D01*
X27019631Y22916610D01*
X27001779Y22765775D01*
X26994770Y22706560D01*
X27009200Y22486396D01*
X27011445Y22477555D01*
X27011446Y22477551D01*
X27012323Y22474097D01*
X27012383Y22471633D01*
X27012873Y22468539D01*
X27012460Y22468474D01*
X27014477Y22385560D01*
X26978003Y22304856D01*
X26960161Y22284396D01*
X25440214Y20764449D01*
X25365226Y20717330D01*
X25277219Y20707414D01*
X25193626Y20736665D01*
X25131002Y20799289D01*
X25101751Y20882882D01*
X25100500Y20905163D01*
X25100500Y23782592D01*
X25102203Y23808567D01*
X25103980Y23822065D01*
X25103980Y23822072D01*
X25105682Y23835000D01*
X25085044Y23991762D01*
X25024536Y24137841D01*
X24928282Y24263282D01*
X24907125Y24279517D01*
X24887561Y24296674D01*
X21817599Y27366636D01*
X21770480Y27441624D01*
X21761372Y27535904D01*
X21783991Y27691902D01*
X21785397Y27745611D01*
X21785490Y27749147D01*
X21785490Y27749151D01*
X21785643Y27755000D01*
X21779256Y27824513D01*
X21766289Y27965626D01*
X21766289Y27965628D01*
X21765454Y27974711D01*
X21705565Y28187064D01*
X21701533Y28195240D01*
X21698261Y28203764D01*
X21701230Y28204904D01*
X21684845Y28273493D01*
X21703680Y28360030D01*
X21758198Y28429825D01*
X21837599Y28469054D01*
X21883835Y28474500D01*
X22749240Y28474500D01*
X22775214Y28472798D01*
X22787071Y28471237D01*
X22787072Y28471237D01*
X22800000Y28469535D01*
X22812928Y28471237D01*
X22812929Y28471237D01*
X22837707Y28474499D01*
X22837719Y28474500D01*
X22837722Y28474500D01*
X22837731Y28474501D01*
X22890531Y28481453D01*
X22950236Y28489313D01*
X23090233Y28547302D01*
X23109040Y28561733D01*
X23180268Y28616388D01*
X23180275Y28616394D01*
X23200106Y28631611D01*
X23210451Y28639549D01*
X23225671Y28659384D01*
X23242834Y28678954D01*
X25480094Y30916214D01*
X25555082Y30963333D01*
X25620808Y30974500D01*
X26883695Y30974500D01*
X26970038Y30954793D01*
G37*
%TD.AperFunction*%
%TA.AperFunction,NonConductor*%
G36*
X22103146Y25379667D02*
G01*
X22124951Y25360814D01*
X23841214Y23644551D01*
X23888333Y23569563D01*
X23899500Y23503837D01*
X23899500Y18145163D01*
X23879793Y18058820D01*
X23824574Y17989579D01*
X23744782Y17951152D01*
X23656218Y17951152D01*
X23576426Y17989579D01*
X23559786Y18004449D01*
X21817599Y19746636D01*
X21770480Y19821624D01*
X21761372Y19915904D01*
X21783991Y20071902D01*
X21784778Y20101970D01*
X21785490Y20129147D01*
X21785490Y20129151D01*
X21785643Y20135000D01*
X21783836Y20154662D01*
X21766289Y20345626D01*
X21766289Y20345628D01*
X21765454Y20354711D01*
X21705565Y20567064D01*
X21646526Y20686784D01*
X21612016Y20756763D01*
X21612015Y20756764D01*
X21607980Y20764947D01*
X21582336Y20799289D01*
X21481428Y20934420D01*
X21481427Y20934421D01*
X21475967Y20941733D01*
X21400917Y21011109D01*
X21320650Y21085307D01*
X21320648Y21085309D01*
X21313949Y21091501D01*
X21127350Y21209236D01*
X21101656Y21219487D01*
X21028763Y21269785D01*
X20984911Y21346730D01*
X20978788Y21435081D01*
X21011605Y21517340D01*
X21078160Y21577946D01*
X21254924Y21676939D01*
X21254933Y21676945D01*
X21262884Y21681398D01*
X21432518Y21822482D01*
X21573602Y21992116D01*
X21681410Y22184621D01*
X21752331Y22393548D01*
X21783991Y22611902D01*
X21785643Y22675000D01*
X21768585Y22860639D01*
X21766289Y22885626D01*
X21766289Y22885628D01*
X21765454Y22894711D01*
X21705565Y23107064D01*
X21607980Y23304947D01*
X21475967Y23481733D01*
X21313949Y23631501D01*
X21127350Y23749236D01*
X21101656Y23759487D01*
X21028763Y23809785D01*
X20984911Y23886730D01*
X20978788Y23975081D01*
X21011605Y24057340D01*
X21078160Y24117946D01*
X21254924Y24216939D01*
X21254933Y24216945D01*
X21262884Y24221398D01*
X21432518Y24362482D01*
X21573602Y24532116D01*
X21681410Y24724621D01*
X21687677Y24743081D01*
X21717530Y24831029D01*
X21752331Y24933548D01*
X21783991Y25151902D01*
X21784578Y25174327D01*
X21785490Y25209139D01*
X21785490Y25209147D01*
X21785643Y25215000D01*
X21785636Y25215081D01*
X21802211Y25300521D01*
X21855130Y25371535D01*
X21933621Y25412555D01*
X22022137Y25415458D01*
X22103146Y25379667D01*
G37*
%TD.AperFunction*%
%TA.AperFunction,NonConductor*%
G36*
X5895168Y18207112D02*
G01*
X5987666Y18180239D01*
X5997431Y18177402D01*
X6017614Y18175814D01*
X6030413Y18174806D01*
X6030422Y18174806D01*
X6034306Y18174500D01*
X7618837Y18174500D01*
X7705180Y18154793D01*
X7759551Y18116214D01*
X12203326Y13672439D01*
X12220483Y13652875D01*
X12236718Y13631718D01*
X12340022Y13552450D01*
X12362159Y13535464D01*
X12508238Y13474956D01*
X12665000Y13454318D01*
X12677928Y13456020D01*
X12677935Y13456020D01*
X12691433Y13457797D01*
X12717408Y13459500D01*
X19979837Y13459500D01*
X20066180Y13439793D01*
X20135421Y13384574D01*
X20173848Y13304782D01*
X20173848Y13216218D01*
X20135421Y13136426D01*
X20120551Y13119786D01*
X19309551Y12308786D01*
X19234563Y12261667D01*
X19168837Y12250500D01*
X19105354Y12250500D01*
X19018103Y12231954D01*
X18930399Y12213313D01*
X18930394Y12213312D01*
X18920197Y12211144D01*
X18910671Y12206903D01*
X18910669Y12206902D01*
X18841636Y12176166D01*
X18747270Y12134151D01*
X18594129Y12022888D01*
X18467467Y11882216D01*
X18372821Y11718284D01*
X18314326Y11538256D01*
X18313236Y11527889D01*
X18313236Y11527887D01*
X18309477Y11492118D01*
X18294540Y11350000D01*
X18314326Y11161744D01*
X18326994Y11122756D01*
X18330816Y11110993D01*
X18338754Y11022786D01*
X18307634Y10939870D01*
X18243621Y10878668D01*
X18159392Y10851301D01*
X18141555Y10850500D01*
X12806163Y10850500D01*
X12719820Y10870207D01*
X12665449Y10908786D01*
X5698935Y17875300D01*
X5651816Y17950288D01*
X5641900Y18038295D01*
X5671151Y18121888D01*
X5733775Y18184512D01*
X5817368Y18213763D01*
X5895168Y18207112D01*
G37*
%TD.AperFunction*%
%TA.AperFunction,NonConductor*%
G36*
X20556374Y11638335D02*
G01*
X20618998Y11575711D01*
X20648249Y11492118D01*
X20649500Y11469837D01*
X20649500Y11327228D01*
X20660364Y11237453D01*
X20665067Y11225574D01*
X20665068Y11225571D01*
X20705775Y11122756D01*
X20719236Y11035221D01*
X20693384Y10950515D01*
X20633340Y10885414D01*
X20550996Y10852812D01*
X20520749Y10850500D01*
X20258445Y10850500D01*
X20172102Y10870207D01*
X20102861Y10925426D01*
X20064434Y11005218D01*
X20064434Y11093782D01*
X20069184Y11110993D01*
X20073006Y11122756D01*
X20085674Y11161744D01*
X20092284Y11224631D01*
X20104698Y11342746D01*
X20133323Y11426556D01*
X20161894Y11462659D01*
X20309786Y11610551D01*
X20384774Y11657670D01*
X20472781Y11667586D01*
X20556374Y11638335D01*
G37*
%TD.AperFunction*%
%TA.AperFunction,NonConductor*%
G36*
X25423574Y10036157D02*
G01*
X25440214Y10021287D01*
X25599062Y9862439D01*
X25616219Y9842875D01*
X25632454Y9821718D01*
X25642799Y9813780D01*
X25642800Y9813779D01*
X25693935Y9774542D01*
X25697471Y9771829D01*
X25753978Y9703635D01*
X25775300Y9617677D01*
X25757215Y9530979D01*
X25734844Y9493630D01*
X25674087Y9413587D01*
X25674085Y9413583D01*
X25665887Y9402783D01*
X25660894Y9390172D01*
X25615862Y9276433D01*
X25610364Y9262547D01*
X25599500Y9172772D01*
X25599500Y8787228D01*
X25610364Y8697453D01*
X25665887Y8557217D01*
X25674085Y8546417D01*
X25674087Y8546413D01*
X25735644Y8465316D01*
X25772150Y8384626D01*
X25770030Y8296088D01*
X25735644Y8224684D01*
X25674087Y8143587D01*
X25674085Y8143583D01*
X25665887Y8132783D01*
X25610364Y7992547D01*
X25599500Y7902772D01*
X25599500Y7517228D01*
X25610364Y7427453D01*
X25615067Y7415574D01*
X25615069Y7415567D01*
X25616182Y7412757D01*
X25616795Y7408774D01*
X25618215Y7403181D01*
X25617676Y7403044D01*
X25629644Y7325223D01*
X25603793Y7240517D01*
X25543750Y7175415D01*
X25461406Y7142812D01*
X25431157Y7140500D01*
X23720163Y7140500D01*
X23633820Y7160207D01*
X23564579Y7215426D01*
X23526152Y7295218D01*
X23526152Y7383782D01*
X23564579Y7463574D01*
X23579449Y7480214D01*
X24887561Y8788326D01*
X24907125Y8805483D01*
X24928282Y8821718D01*
X25024536Y8947159D01*
X25085044Y9093238D01*
X25100500Y9210639D01*
X25105682Y9250000D01*
X25103980Y9262928D01*
X25103980Y9262935D01*
X25102203Y9276433D01*
X25100500Y9302408D01*
X25100500Y9880573D01*
X25120207Y9966916D01*
X25175426Y10036157D01*
X25255218Y10074584D01*
X25343782Y10074584D01*
X25423574Y10036157D01*
G37*
%TD.AperFunction*%
M02*
