M48
; DRILL file {KiCad (6.0.7-1)-1} date 2022 November 12, Saturday 09:43:56
; FORMAT={-:-/ absolute / metric / decimal}
; #@! TF.CreationDate,2022-11-12T09:43:56+01:00
; #@! TF.GenerationSoftware,Kicad,Pcbnew,(6.0.7-1)-1
; #@! TF.FileFunction,MixedPlating,1,2
FMAT,2
METRIC
; #@! TA.AperFunction,Plated,PTH,ViaDrill
T1C0.600
; #@! TA.AperFunction,Plated,PTH,ComponentDrill
T2C0.800
; #@! TA.AperFunction,Plated,PTH,ComponentDrill
T3C1.100
; #@! TA.AperFunction,NonPlated,NPTH,ComponentDrill
T4C2.800
%
G90
G05
T1
X19.0Y16.95
X19.2Y11.35
X29.5Y11.45
X29.6Y17.05
X31.0Y25.25
X36.5Y25.25
X36.7Y8.75
X41.6Y8.75
T2
X20.58Y35.375
X20.58Y32.835
X20.58Y30.295
X20.58Y27.755
X20.58Y25.215
X20.58Y22.675
X20.58Y20.135
X27.69Y39.25
X28.2Y35.375
X28.2Y32.835
X28.2Y30.295
X28.2Y27.755
X28.2Y25.215
X28.2Y22.675
X28.2Y20.135
X35.31Y39.25
X38.5Y43.05
X38.5Y38.05
T3
X3.0Y19.725
X7.0Y19.725
X11.5Y33.775
X15.5Y33.775
X35.0Y18.775
X39.0Y4.725
X44.0Y18.775
X48.0Y4.725
T4
X3.0Y33.525
X7.0Y33.525
X11.5Y19.975
X15.5Y19.975
X35.0Y4.975
X39.0Y18.525
X44.0Y4.975
X48.0Y18.525
T0
M30
