%TF.GenerationSoftware,KiCad,Pcbnew,(6.0.7-1)-1*%
%TF.CreationDate,2022-11-12T09:43:49+01:00*%
%TF.ProjectId,transmitter,7472616e-736d-4697-9474-65722e6b6963,rev?*%
%TF.SameCoordinates,PX4b571c0PY82e44d0*%
%TF.FileFunction,Copper,L2,Bot*%
%TF.FilePolarity,Positive*%
%FSLAX46Y46*%
G04 Gerber Fmt 4.6, Leading zero omitted, Abs format (unit mm)*
G04 Created by KiCad (PCBNEW (6.0.7-1)-1) date 2022-11-12 09:43:49*
%MOMM*%
%LPD*%
G01*
G04 APERTURE LIST*
G04 Aperture macros list*
%AMRoundRect*
0 Rectangle with rounded corners*
0 $1 Rounding radius*
0 $2 $3 $4 $5 $6 $7 $8 $9 X,Y pos of 4 corners*
0 Add a 4 corners polygon primitive as box body*
4,1,4,$2,$3,$4,$5,$6,$7,$8,$9,$2,$3,0*
0 Add four circle primitives for the rounded corners*
1,1,$1+$1,$2,$3*
1,1,$1+$1,$4,$5*
1,1,$1+$1,$6,$7*
1,1,$1+$1,$8,$9*
0 Add four rect primitives between the rounded corners*
20,1,$1+$1,$2,$3,$4,$5,0*
20,1,$1+$1,$4,$5,$6,$7,0*
20,1,$1+$1,$6,$7,$8,$9,0*
20,1,$1+$1,$8,$9,$2,$3,0*%
G04 Aperture macros list end*
%TA.AperFunction,ComponentPad*%
%ADD10C,1.600000*%
%TD*%
%TA.AperFunction,ComponentPad*%
%ADD11O,1.600000X1.600000*%
%TD*%
%TA.AperFunction,ComponentPad*%
%ADD12R,1.600000X1.600000*%
%TD*%
%TA.AperFunction,ComponentPad*%
%ADD13RoundRect,0.250001X-0.899999X-0.899999X0.899999X-0.899999X0.899999X0.899999X-0.899999X0.899999X0*%
%TD*%
%TA.AperFunction,ComponentPad*%
%ADD14RoundRect,0.250001X0.899999X0.899999X-0.899999X0.899999X-0.899999X-0.899999X0.899999X-0.899999X0*%
%TD*%
%TA.AperFunction,ViaPad*%
%ADD15C,1.000000*%
%TD*%
%TA.AperFunction,Conductor*%
%ADD16C,0.400000*%
%TD*%
%TA.AperFunction,Conductor*%
%ADD17C,0.600000*%
%TD*%
G04 APERTURE END LIST*
D10*
%TO.P,C2,1*%
%TO.N,Net-(C2-Pad1)*%
X38500000Y38050000D03*
%TO.P,C2,2*%
%TO.N,GND*%
X38500000Y43050000D03*
%TD*%
%TO.P,R2,1*%
%TO.N,Net-(C2-Pad1)*%
X35310000Y39250000D03*
D11*
%TO.P,R2,2*%
%TO.N,Net-(R2-Pad2)*%
X27690000Y39250000D03*
%TD*%
D12*
%TO.P,U1,1*%
%TO.N,Net-(R2-Pad2)*%
X28200000Y35375000D03*
D11*
%TO.P,U1,2*%
%TO.N,Net-(U1-Pad2)*%
X28200000Y32835000D03*
%TO.P,U1,3*%
%TO.N,/nlp*%
X28200000Y30295000D03*
%TO.P,U1,4*%
X28200000Y27755000D03*
%TO.P,U1,5*%
%TO.N,VCC*%
X28200000Y25215000D03*
%TO.P,U1,6*%
%TO.N,/~{nlp}*%
X28200000Y22675000D03*
%TO.P,U1,7,GND*%
%TO.N,GND*%
X28200000Y20135000D03*
%TO.P,U1,8*%
%TO.N,Net-(U1-Pad8)*%
X20580000Y20135000D03*
%TO.P,U1,9*%
%TO.N,Net-(U1-Pad9)*%
X20580000Y22675000D03*
%TO.P,U1,10*%
%TO.N,VCC*%
X20580000Y25215000D03*
%TO.P,U1,11*%
%TO.N,/xor_tx*%
X20580000Y27755000D03*
%TO.P,U1,12*%
%TO.N,/sck_tx*%
X20580000Y30295000D03*
%TO.P,U1,13*%
%TO.N,/mosi_tx*%
X20580000Y32835000D03*
%TO.P,U1,14,VCC*%
%TO.N,VCC*%
X20580000Y35375000D03*
%TD*%
D13*
%TO.P,J8,1,Pin_1*%
%TO.N,/driver_ena*%
X7000000Y19725000D03*
%TD*%
%TO.P,J7,1,Pin_1*%
%TO.N,/driver_in*%
X3000000Y19725000D03*
%TD*%
D14*
%TO.P,J6,1,Pin_1*%
%TO.N,/mosi_tx*%
X11500000Y33775000D03*
%TD*%
%TO.P,J5,1,Pin_1*%
%TO.N,/sck_tx*%
X15500000Y33775000D03*
%TD*%
%TO.P,J4,1,Pin_1*%
%TO.N,GND*%
X44000000Y18775000D03*
%TD*%
D13*
%TO.P,J3,1,Pin_1*%
%TO.N,GND*%
X48000000Y4725000D03*
%TD*%
%TO.P,J2,1,Pin_1*%
%TO.N,VCC*%
X39000000Y4725000D03*
%TD*%
D14*
%TO.P,J1,1,Pin_1*%
%TO.N,VCC*%
X35000000Y18775000D03*
%TD*%
D15*
%TO.N,GND*%
X41600000Y8750000D03*
X36700000Y8750000D03*
X36500000Y25250000D03*
X31000000Y25250000D03*
%TO.N,Net-(U1-Pad9)*%
X19000000Y16950000D03*
X29600000Y17050000D03*
%TO.N,/tx_ena*%
X29500000Y11450000D03*
X19200000Y11350000D03*
%TD*%
D16*
%TO.N,GND*%
X41600000Y8750000D02*
X36700000Y8750000D01*
D17*
%TO.N,VCC*%
X35000000Y18775000D02*
X34640000Y18775000D01*
X34640000Y18775000D02*
X28200000Y25215000D01*
X20580000Y25215000D02*
X28200000Y25215000D01*
D16*
%TO.N,GND*%
X36500000Y25250000D02*
X31000000Y25250000D01*
%TO.N,/tx_ena*%
X19300000Y11450000D02*
X19200000Y11350000D01*
X29500000Y11450000D02*
X19300000Y11450000D01*
%TO.N,Net-(U1-Pad9)*%
X29500000Y16950000D02*
X29600000Y17050000D01*
X19000000Y16950000D02*
X29500000Y16950000D01*
%TD*%
M02*
